{
.appVersion = "1325";
DisplayStrings = (
"/brevecomb_tildecomb/abrevetilde/brevecomb_tildecomb.case/Abrevetilde \012/circumflexcomb_tildecomb/acircumflextilde/circumflexcomb_tildecomb.case/Acircumflextilde/Ecircumflextilde",
"/space/Udieresisacute/space/Udieresiscaron/space/Udieresisgrave/space/Udieresismacron",
"g/space/gbreve/space/gcaron/space/gcircumflex/space/gcommaaccent/space/gdotaccent",
"hnmu/hbar",
"/eng/nhookleft/uhorn r",
g,
"/Udieresisacute",
"/Nhookleft/Nhookleft.ss07"
);
classes = (
{
automatic = 1;

glyphs = (
{
glyphname = A;
lastChange = "2020-04-17 23:41:57 +0000";
layers = (
{
anchors = (
{
name = bottom;
position = "{199, 0}";
},
{
name = ogonek;
position = "{307, 10}";
},
{
name = top;
position = "{203, 680}";
}
);
background = {
paths = (
{
closed = 1;
nodes = (
"302 0 LINE",
"425 0 LINE",
"425 32 LINE",
"302 32 LINE"
);
},
{
closed = 1;
nodes = (
"340 22 LINE",
"397 22 LINE",
"251 680 LINE",
"194 680 LINE"
);
},
{
closed = 1;
nodes = (
"132 648 LINE",
"180 648 LINE",
"180 680 LINE",
"132 680 LINE"
);
},
{
closed = 1;
nodes = (
"166 680 LINE",
"21 22 LINE",
"60 22 LINE",
"205 680 LINE"
);
},
{
closed = 1;
nodes = (
"-11 0 LINE",
"97 0 LINE",
"97 32 LINE",
"-11 32 LINE"
);
},
{
closed = 1;
nodes = (
"96 201 LINE",
"306 201 LINE",
"306 233 LINE",
"96 233 LINE"
);
}
);
};
guideLines = (
{
position = "{9, 216}";
},
{
position = "{9, 200}";
},
{
position = "{9, 232}";
},
{
angle = -77.4896;
position = "{297, 351}";
},
{
angle = 90;
position = "{199, 611}";
}
);
hints = (
{
horizontal = 1;
origin = "{0, 0}";
target = "{0, 1}";
type = TTStem;
options = 4;
},
{
horizontal = 1;
origin = "{0, 1}";
target = "{1, 2}";
type = Align;
options = 4;
},
{
horizontal = 1;
origin = "{0, 9}";
target = "{1, 1}";
type = TTStem;
options = 4;
},
{
horizontal = 1;
origin = "{0, 5}";
target = "{0, 4}";
type = TTStem;
options = 4;
},
{
horizontal = 1;
origin = "{0, 4}";
target = "{0, 8}";
type = Align;
options = 4;
},
{
horizontal = 1;
origin = "{0, 13}";
target = "{0, 12}";
type = TTStem;
options = 4;
},
{
horizontal = 1;
origin = "{0, 12}";
target = "{0, 16}";
type = Align;
options = 4;
}
);
layerId = "985FD43C-E2EB-4FA2-9714-12093F08C61F";
paths = (
{
closed = 1;
nodes = (
"141 680 LINE",
"141 648 LINE",
"163 648 LINE",
"27 32 LINE",
"5 32 LINE",
"5 0 LINE",
"84 0 LINE",
"84 32 LINE",
"62 32 LINE",
"99 201 LINE",
"300 201 LINE",
"338 32 LINE",
"316 32 LINE",
"316 0 LINE",
"417 0 LINE",
"417 32 LINE",
"395 32 LINE",
"249 680 LINE"
);
},
{
closed = 1;
nodes = (
"293 233 LINE",
"106 233 LINE",
"200 655 LINE"
);
}
);
width = 427;
},
{
associatedMasterId = "985FD43C-E2EB-4FA2-9714-12093F08C61F";
guideLines = (
{
angle = 90;
position = "{49, -40}";
},
{
angle = 90;
position = "{379, -40}";
}
);
layerId = "5732DB09-4A8E-4EEE-BF67-28E370C1114D";
name = "Sep 13 18, 16:18";
paths = (
{
closed = 1;
nodes = (
"403 0 LINE",
"527 0 LINE",
"527 32 LINE",
"403 32 LINE"
);
},
{
closed = 1;
nodes = (
"441 22 LINE",
"499 22 LINE",
"311 680 LINE",
"253 680 LINE"
);
},
{
closed = 1;
nodes = (
"195 648 LINE",
"297 648 LINE",
"297 680 LINE",
"195 680 LINE"
);
},
{
closed = 1;
nodes = (
"233 680 LINE",
"45 22 LINE",
"84 22 LINE",
"272 680 LINE"
);
},
{
closed = 1;
nodes = (
"14 0 LINE",
"121 0 LINE",
"121 32 LINE",
"14 32 LINE"
);
},
{
closed = 1;
nodes = (
"126 206 LINE",
"251 165 LINE",
"396 209 LINE",
"396 247 LINE",
"251 203 LINE",
"126 244 LINE"
);
}
);
width = 541;
},
{
associatedMasterId = "985FD43C-E2EB-4FA2-9714-12093F08C61F";
background = {
paths = (
{
closed = 1;
nodes = (
"283 0 LINE",
"406 0 LINE",
"406 32 LINE",
"283 32 LINE"
);
},
{
closed = 1;
nodes = (
"321 22 LINE",
"378 22 LINE",
"248 680 LINE",
"191 680 LINE"
);
},
{
closed = 1;
nodes = (
"133 648 LINE",
"235 648 LINE",
"235 680 LINE",
"133 680 LINE"
);
},
{
closed = 1;
nodes = (
"171 680 LINE",
"41 22 LINE",
"80 22 LINE",
"210 680 LINE"
);
},
{
closed = 1;
nodes = (
"10 0 LINE",
"117 0 LINE",
"117 32 LINE",
"10 32 LINE"
);
},
{
closed = 1;
nodes = (
"102 200 LINE",
"307 201 LINE",
"307 233 LINE",
"102 232 LINE"
);
}
);
};
guideLines = (
{
angle = 90;
position = "{5, -40}";
},
{
angle = -11.1759;
position = "{145, 335}";
showMeasurement = 1;
},
{
position = "{15, 216}";
},
{
position = "{15, 200}";
},
{
position = "{15, 232}";
},
{
angle = 90;
position = "{45, -10}";
},
{
angle = 90;
position = "{375, -10}";
}
);
layerId = "A332802F-743C-4CF8-9083-7280BB67AF12";
name = "Sep 14 18, 15:41";
paths = (
{
closed = 1;
nodes = (
"283 0 LINE",
"406 0 LINE",
"406 32 LINE",
"283 32 LINE"
);
},
{
closed = 1;
nodes = (
"321 22 LINE",
"378 22 LINE",
"248 680 LINE",
"191 680 LINE"
);
},
{
closed = 1;
nodes = (
"133 648 LINE",
"235 648 LINE",
"235 680 LINE",
"133 680 LINE"
);
},
{
closed = 1;
nodes = (
"171 680 LINE",
"41 22 LINE",
"80 22 LINE",
"210 680 LINE"
);
},
{
closed = 1;
nodes = (
"10 0 LINE",
"117 0 LINE",
"117 32 LINE",
"10 32 LINE"
);
},
{
closed = 1;
nodes = (
"102 200 LINE",
"307 201 LINE",
"307 233 LINE",
"102 232 LINE"
);
}
);
width = 417;
},
{
associatedMasterId = "985FD43C-E2EB-4FA2-9714-12093F08C61F";
background = {
paths = (
{
closed = 1;
nodes = (
"293 0 LINE",
"416 0 LINE",
"416 32 LINE",
"293 32 LINE"
);
},
{
closed = 1;
nodes = (
"331 22 LINE",
"388 22 LINE",
"255 680 LINE",
"198 680 LINE"
);
},
{
closed = 1;
nodes = (
"136 648 LINE",
"184 648 LINE",
"184 680 LINE",
"136 680 LINE"
);
},
{
closed = 1;
nodes = (
"170 680 LINE",
"37 22 LINE",
"76 22 LINE",
"209 680 LINE"
);
},
{
closed = 1;
nodes = (
"6 0 LINE",
"113 0 LINE",
"113 32 LINE",
"6 32 LINE"
);
},
{
closed = 1;
nodes = (
"100 201 LINE",
"310 201 LINE",
"310 233 LINE",
"100 233 LINE"
);
}
);
};
guideLines = (
{
angle = 90;
position = "{3, -40}";
},
{
angle = -11.1759;
position = "{143, 335}";
showMeasurement = 1;
},
{
position = "{13, 216}";
},
{
position = "{13, 200}";
},
{
position = "{13, 232}";
},
{
angle = 90;
position = "{43, -10}";
},
{
angle = 90;
position = "{373, -10}";
}
);
layerId = "4CA4D9D1-0034-43BB-BEE4-5BF7D8072D50";
name = "Sep 18 18, 12:45";
paths = (
{
closed = 1;
nodes = (
"289 0 LINE",
"412 0 LINE",
"412 32 LINE",
"289 32 LINE"
);
},
{
closed = 1;
nodes = (
"327 22 LINE",
"384 22 LINE",
"253 680 LINE",
"196 680 LINE"
);
},
{
closed = 1;
nodes = (
"136 648 LINE",
"238 648 LINE",
"238 680 LINE",
"136 680 LINE"
);
},
{
closed = 1;
nodes = (
"172 680 LINE",
"41 22 LINE",
"80 22 LINE",
"211 680 LINE"
);
},
{
closed = 1;
nodes = (
"10 0 LINE",
"117 0 LINE",
"117 32 LINE",
"10 32 LINE"
);
},
{
closed = 1;
nodes = (
"100 201 LINE",
"310 201 LINE",
"310 233 LINE",
"100 233 LINE"
);
}
);
width = 422;
},
{
associatedMasterId = "985FD43C-E2EB-4FA2-9714-12093F08C61F";
background = {
paths = (
{
closed = 1;
nodes = (
"307 0 LINE",
"430 0 LINE",
"430 32 LINE",
"307 32 LINE"
);
},
{
closed = 1;
nodes = (
"345 22 LINE",
"402 22 LINE",
"264 680 LINE",
"207 680 LINE"
);
},
{
closed = 1;
nodes = (
"145 648 LINE",
"193 648 LINE",
"193 680 LINE",
"145 680 LINE"
);
},
{
closed = 1;
nodes = (
"179 680 LINE",
"41 22 LINE",
"80 22 LINE",
"218 680 LINE"
);
},
{
closed = 1;
nodes = (
"10 0 LINE",
"117 0 LINE",
"117 32 LINE",
"10 32 LINE"
);
},
{
closed = 1;
nodes = (
"109 201 LINE",
"319 201 LINE",
"319 233 LINE",
"109 233 LINE"
);
}
);
};
guideLines = (
{
angle = 90;
position = "{12, -40}";
},
{
angle = -11.1759;
position = "{152, 335}";
showMeasurement = 1;
},
{
position = "{22, 216}";
},
{
position = "{22, 200}";
},
{
position = "{22, 232}";
},
{
angle = 90;
position = "{52, -10}";
},
{
angle = 90;
position = "{382, -10}";
}
);
layerId = "7698D0DB-166E-4E0E-ABDB-543525AC9D62";
name = "Sep 18 18, 12:48";
paths = (
{
closed = 1;
nodes = (
"298 0 LINE",
"421 0 LINE",
"421 32 LINE",
"298 32 LINE"
);
},
{
closed = 1;
nodes = (
"336 22 LINE",
"393 22 LINE",
"262 680 LINE",
"205 680 LINE"
);
},
{
closed = 1;
nodes = (
"145 648 LINE",
"247 648 LINE",
"247 680 LINE",
"145 680 LINE"
);
},
{
closed = 1;
nodes = (
"181 680 LINE",
"50 22 LINE",
"89 22 LINE",
"220 680 LINE"
);
},
{
closed = 1;
nodes = (
"19 0 LINE",
"126 0 LINE",
"126 32 LINE",
"19 32 LINE"
);
},
{
closed = 1;
nodes = (
"109 201 LINE",
"319 201 LINE",
"319 233 LINE",
"109 233 LINE"
);
}
);
width = 440;
},
{
anchors = (
{
name = bottom;
position = "{212, 0}";
},
{
name = ogonek;
position = "{304, 10}";
},
{
name = top;
position = "{223, 680}";
}
);
background = {
paths = (
{
closed = 1;
nodes = (
"290 0 LINE",
"413 0 LINE",
"413 32 LINE",
"290 32 LINE"
);
},
{
closed = 1;
nodes = (
"328 22 LINE",
"385 22 LINE",
"239 680 LINE",
"182 680 LINE"
);
},
{
closed = 1;
nodes = (
"124 648 LINE",
"172 648 LINE",
"172 680 LINE",
"124 680 LINE"
);
},
{
closed = 1;
nodes = (
"158 680 LINE",
"13 22 LINE",
"48 22 LINE",
"193 680 LINE"
);
},
{
closed = 1;
nodes = (
"-19 0 LINE",
"85 0 LINE",
"85 32 LINE",
"-19 32 LINE"
);
},
{
closed = 1;
nodes = (
"84 201 LINE",
"294 201 LINE",
"294 233 LINE",
"84 233 LINE"
);
}
);
};
guideLines = (
{
angle = 102.5104;
position = "{287, 507}";
}
);
layerId = "79669AF3-7E96-4900-AB6D-33745B934CAA";
paths = (
{
closed = 1;
nodes = (
"123 680 LINE",
"123 602 LINE",
"143 602 LINE",
"27 78 LINE",
"7 78 LINE",
"7 0 LINE",
"129 0 LINE",
"129 78 LINE",
"109 78 LINE",
"132 182 LINE",
"292 182 LINE",
"316 78 LINE",
"295 78 LINE",
"295 0 LINE",
"467 0 LINE",
"467 78 LINE",
"447 78 LINE",
"318 680 LINE"
);
},
{
closed = 1;
nodes = (
"276 256 LINE",
"149 256 LINE",
"212 544 LINE"
);
}
);
width = 477;
}
);
leftKerningGroup = A;
rightKerningGroup = A;
unicode = 0041;
},
{
glyphname = Aogonek;
lastChange = "2020-04-16 19:09:57 +0000";
layers = (
{
components = (
{
name = A;
}
);
guideLines = (
{
angle = -77.4896;
position = "{297, 351}";
}
);
hints = (
{
horizontal = 1;
origin = "{0, 19}";
target = "{0, 6}";
type = TTStem;
options = 4;
}
);
layerId = "985FD43C-E2EB-4FA2-9714-12093F08C61F";
paths = (
{
closed = 1;
nodes = (
"371 -180 OFFCURVE",
"397 -168 OFFCURVE",
"406 -139 CURVE",
"391 -130 LINE",
"383 -142 OFFCURVE",
"371 -146 OFFCURVE",
"358 -146 CURVE SMOOTH",
"333 -146 OFFCURVE",
"314 -128 OFFCURVE",
"314 -95 CURVE SMOOTH",
"314 -56 OFFCURVE",
"337 -22 OFFCURVE",
"396 0 CURVE",
"356 0 LINE",
"284 -28 OFFCURVE",
"260 -57 OFFCURVE",
"260 -105 CURVE SMOOTH",
"260 -157 OFFCURVE",
"300 -180 OFFCURVE",
"342 -180 CURVE SMOOTH"
);
}
);
width = 427;
},
{
components = (
{
name = A;
}
);
guideLines = (
{
angle = 102.5104;
position = "{287, 507}";
}
);
layerId = "79669AF3-7E96-4900-AB6D-33745B934CAA";
paths = (
{
closed = 1;
nodes = (
"389 -199 OFFCURVE",
"418 -181 OFFCURVE",
"431 -140 CURVE",
"400 -125 LINE",
"393 -139 OFFCURVE",
"381 -145 OFFCURVE",
"367 -145 CURVE SMOOTH",
"344 -145 OFFCURVE",
"333 -126 OFFCURVE",
"333 -99 CURVE SMOOTH",
"333 -60 OFFCURVE",
"360 -23 OFFCURVE",
"431 0 CURVE",
"377 0 LINE",
"273 -19 OFFCURVE",
"241 -63 OFFCURVE",
"241 -108 CURVE SMOOTH",
"241 -163 OFFCURVE",
"283 -199 OFFCURVE",
"351 -199 CURVE SMOOTH"
);
}
);
width = 477;
}
);
leftKerningGroup = A;
rightKerningGroup = A;
unicode = 0104;
},
{
glyphname = Aring;
lastChange = "2020-04-28 01:39:36 +0000";
layers = (
{
hints = (
{
horizontal = 1;
origin = "{0, 3}";
target = "{0, 2}";
type = TTStem;
options = 4;
},
{
horizontal = 1;
origin = "{0, 2}";
target = "{0, 1}";
type = Align;
options = 4;
},
{
horizontal = 1;
origin = "{1, 3}";
target = "{1, 2}";
type = TTStem;
options = 4;
},
{
horizontal = 1;
origin = "{1, 2}";
target = "{1, 1}";
type = Align;
options = 4;
},
{
horizontal = 1;
origin = "{2, 0, 4, 14}";
target = "{2, 2, 4, 14}";
type = TTStem;
options = 4;
},
{
horizontal = 1;
origin = "{3, 11}";
target = "{4, 14}";
type = TTStem;
options = 4;
},
{
horizontal = 1;
origin = "{4, 14}";
target = "{4, 11}";
type = Align;
options = 4;
},
{
horizontal = 1;
origin = "{4, 14}";
target = "{4, 17}";
type = Align;
options = 4;
},
{
horizontal = 1;
origin = "{3, 5}";
target = "{4, 5}";
type = TTStem;
options = 4;
}
);
layerId = "985FD43C-E2EB-4FA2-9714-12093F08C61F";
paths = (
{
closed = 1;
nodes = (
"84 0 LINE",
"84 32 LINE",
"5 32 LINE",
"5 0 LINE"
);
},
{
closed = 1;
nodes = (
"417 0 LINE",
"417 32 LINE",
"316 32 LINE",
"316 0 LINE"
);
},
{
closed = 1;
nodes = (
"306 201 LINE",
"306 233 LINE",
"96 233 LINE",
"96 201 LINE"
);
},
{
closed = 1;
nodes = (
"183 680 OFFCURVE",
"157 703 OFFCURVE",
"157 736 CURVE SMOOTH",
"157 769 OFFCURVE",
"183 792 OFFCURVE",
"211 792 CURVE SMOOTH",
"239 792 OFFCURVE",
"265 769 OFFCURVE",
"265 736 CURVE SMOOTH",
"265 703 OFFCURVE",
"239 680 OFFCURVE",
"211 680 CURVE SMOOTH"
);
},
{
closed = 1;
nodes = (
"283 671 OFFCURVE",
"303 699 OFFCURVE",
"303 736 CURVE SMOOTH",
"303 791 OFFCURVE",
"259 828 OFFCURVE",
"211 828 CURVE SMOOTH",
"163 828 OFFCURVE",
"119 791 OFFCURVE",
"119 736 CURVE SMOOTH",
"119 700 OFFCURVE",
"138 672 OFFCURVE",
"165 656 CURVE",
"25 22 LINE",
"60 22 LINE",
"200 655 LINE",
"340 22 LINE",
"397 22 LINE",
"256 656 LINE"
);
}
);
width = 427;
},
{
layerId = "79669AF3-7E96-4900-AB6D-33745B934CAA";
paths = (
{
closed = 1;
nodes = (
"129 0 LINE",
"129 78 LINE",
"7 78 LINE",
"7 0 LINE"
);
},
{
closed = 1;
nodes = (
"467 0 LINE",
"467 78 LINE",
"295 78 LINE",
"295 0 LINE"
);
},
{
closed = 1;
nodes = (
"314 182 LINE",
"314 256 LINE",
"106 256 LINE",
"106 182 LINE"
);
},
{
closed = 1;
nodes = (
"222 680 OFFCURVE",
"203 697 OFFCURVE",
"203 721 CURVE SMOOTH",
"203 745 OFFCURVE",
"222 762 OFFCURVE",
"243 762 CURVE SMOOTH",
"264 762 OFFCURVE",
"283 745 OFFCURVE",
"283 721 CURVE SMOOTH",
"283 697 OFFCURVE",
"264 680 OFFCURVE",
"243 680 CURVE SMOOTH"
);
},
{
closed = 1;
nodes = (
"341 662 OFFCURVE",
"353 689 OFFCURVE",
"353 721 CURVE SMOOTH",
"353 787 OFFCURVE",
"300 831 OFFCURVE",
"243 831 CURVE SMOOTH",
"186 831 OFFCURVE",
"133 787 OFFCURVE",
"133 721 CURVE SMOOTH",
"133 695 OFFCURVE",
"141 673 OFFCURVE",
"154 655 CURVE",
"15 22 LINE",
"97 22 LINE",
"212 544 LINE",
"328 22 LINE",
"459 22 LINE",
"321 643 LINE"
);
}
);
width = 477;
}
);
leftKerningGroup = A;
rightKerningGroup = A;
unicode = 00C5;
},
{
glyphname = Aringacute;
lastChange = "2020-04-28 01:38:38 +0000";
layers = (
{
guideLines = (
{
angle = 180;
position = "{224, 764}";
}
);
hints = (
{
horizontal = 1;
origin = "{0, 3}";
target = "{0, 2}";
type = TTStem;
options = 4;
},
{
horizontal = 1;
origin = "{1, 3}";
target = "{1, 2}";
type = TTStem;
options = 4;
},
{
horizontal = 1;
origin = "{2, 0, 5, 3}";
target = "{2, 2, 5, 3}";
type = TTStem;
options = 4;
},
{
horizontal = 1;
origin = "{1, 2}";
target = "{0, 2}";
type = Align;
options = 4;
},
{
horizontal = 1;
origin = "{0, 2}";
target = "{0, 2, 5, 3}";
type = Align;
options = 4;
},
{
horizontal = 1;
origin = "{3, 5}";
target = "{4, 5}";
type = TTStem;
options = 4;
},
{
horizontal = 1;
origin = "{2, 3}";
target = "{2, 2}";
type = TTStem;
options = 4;
},
{
horizontal = 1;
origin = "{3, 11}";
target = "{4, 25}";
type = TTStem;
options = 4;
},
{
horizontal = 1;
origin = "{4, 25}";
target = "{4, 22}";
type = Align;
options = 4;
},
{
horizontal = 1;
origin = "{4, 25}";
target = "{4, 28}";
type = Align;
options = 4;
}
);
layerId = "985FD43C-E2EB-4FA2-9714-12093F08C61F";
paths = (
{
closed = 1;
nodes = (
"84 0 LINE",
"84 32 LINE",
"5 32 LINE",
"5 0 LINE"
);
},
{
closed = 1;
nodes = (
"417 0 LINE",
"417 32 LINE",
"316 32 LINE",
"316 0 LINE"
);
},
{
closed = 1;
nodes = (
"306 201 LINE",
"306 233 LINE",
"96 233 LINE",
"96 201 LINE"
);
},
{
closed = 1;
nodes = (
"183 680 OFFCURVE",
"157 703 OFFCURVE",
"157 736 CURVE SMOOTH",
"157 769 OFFCURVE",
"183 792 OFFCURVE",
"211 792 CURVE SMOOTH",
"239 792 OFFCURVE",
"265 769 OFFCURVE",
"265 736 CURVE SMOOTH",
"265 703 OFFCURVE",
"239 680 OFFCURVE",
"211 680 CURVE SMOOTH"
);
},
{
closed = 1;
nodes = (
"283 671 OFFCURVE",
"303 699 OFFCURVE",
"303 736 CURVE SMOOTH",
"303 789 OFFCURVE",
"263 825 OFFCURVE",
"217 828 CURVE",
"246 861 LINE SMOOTH",
"253 869 OFFCURVE",
"258 880 OFFCURVE",
"258 890 CURVE SMOOTH",
"258 907 OFFCURVE",
"247 919 OFFCURVE",
"227 919 CURVE SMOOTH",
"214 919 OFFCURVE",
"202 913 OFFCURVE",
"193 895 CURVE SMOOTH",
"143 798 LINE",
"128 783 OFFCURVE",
"119 761 OFFCURVE",
"119 736 CURVE SMOOTH",
"119 700 OFFCURVE",
"138 672 OFFCURVE",
"165 656 CURVE",
"25 22 LINE",
"60 22 LINE",
"200 655 LINE",
"340 22 LINE",
"397 22 LINE",
"256 656 LINE"
);
}
);
width = 427;
},
{
guideLines = (
{
position = "{262, 741}";
}
);
layerId = "79669AF3-7E96-4900-AB6D-33745B934CAA";
paths = (
{
closed = 1;
nodes = (
"129 0 LINE",
"129 78 LINE",
"7 78 LINE",
"7 0 LINE"
);
},
{
closed = 1;
nodes = (
"467 0 LINE",
"467 78 LINE",
"295 78 LINE",
"295 0 LINE"
);
},
{
closed = 1;
nodes = (
"314 182 LINE",
"314 256 LINE",
"106 256 LINE",
"106 182 LINE"
);
},
{
closed = 1;
nodes = (
"222 680 OFFCURVE",
"203 697 OFFCURVE",
"203 721 CURVE SMOOTH",
"203 745 OFFCURVE",
"222 762 OFFCURVE",
"243 762 CURVE SMOOTH",
"264 762 OFFCURVE",
"283 745 OFFCURVE",
"283 721 CURVE SMOOTH",
"283 697 OFFCURVE",
"264 680 OFFCURVE",
"243 680 CURVE SMOOTH"
);
},
{
closed = 1;
nodes = (
"341 662 OFFCURVE",
"353 689 OFFCURVE",
"353 721 CURVE SMOOTH",
"353 771 OFFCURVE",
"322 809 OFFCURVE",
"283 824 CURVE",
"304 847 LINE SMOOTH",
"313 857 OFFCURVE",
"315 871 OFFCURVE",
"315 882 CURVE SMOOTH",
"315 911 OFFCURVE",
"289 933 OFFCURVE",
"260 933 CURVE SMOOTH",
"228 933 OFFCURVE",
"212 914 OFFCURVE",
"200 887 CURVE SMOOTH",
"158 792 LINE",
"143 773 OFFCURVE",
"133 749 OFFCURVE",
"133 721 CURVE SMOOTH",
"133 695 OFFCURVE",
"141 673 OFFCURVE",
"154 655 CURVE",
"15 22 LINE",
"97 22 LINE",
"212 544 LINE",
"328 22 LINE",
"459 22 LINE",
"321 643 LINE"
);
}
);
width = 477;
}
);
leftKerningGroup = A;
rightKerningGroup = A;
unicode = 01FA;
},
{
glyphname = AE;
lastChange = "2020-04-27 19:46:26 +0000";
layers = (
{
anchors = (
{
name = bottom;
position = "{279, 0}";
},
{
name = ogonek;
position = "{370, 10}";
},
{
name = top;
position = "{279, 680}";
}
);
hints = (
{
horizontal = 1;
origin = "{0, 0}";
target = "{0, 1}";
type = TTStem;
options = 4;
},
{
horizontal = 1;
origin = "{0, 0}";
target = "{0, 27}";
type = TTStem;
options = 4;
},
{
horizontal = 1;
origin = "{0, 5}";
target = "{0, 4}";
type = TTStem;
options = 4;
},
{
horizontal = 1;
origin = "{0, 4}";
target = "{0, 8}";
type = Align;
options = 4;
},
{
horizontal = 1;
origin = "{0, 13}";
target = "{0, 12}";
type = TTStem;
options = 4;
},
{
horizontal = 1;
origin = "{0, 12}";
target = "{0, 18}";
type = Align;
options = 4;
},
{
horizontal = 1;
origin = "{0, 19}";
target = "{0, 26}";
type = TTStem;
options = 4;
},
{
horizontal = 1;
origin = "{0, 9}";
target = "{1, 1}";
type = TTStem;
options = 4;
},
{
horizontal = 1;
origin = "{0, 0}";
target = "{1, 2}";
type = TTStem;
options = 4;
}
);
layerId = "985FD43C-E2EB-4FA2-9714-12093F08C61F";
paths = (
{
closed = 1;
nodes = (
"141 680 LINE",
"141 648 LINE",
"163 648 LINE",
"27 32 LINE",
"5 32 LINE",
"5 0 LINE",
"84 0 LINE",
"84 32 LINE",
"62 32 LINE",
"99 201 LINE",
"300 201 LINE",
"338 32 LINE",
"316 32 LINE",
"316 0 LINE",
"516 0 LINE",
"516 83 LINE",
"480 83 LINE",
"480 32 LINE",
"395 32 LINE",
"301 451 LINE",
"421 451 LINE",
"421 431 LINE",
"457 431 LINE",
"457 503 LINE",
"421 503 LINE",
"421 483 LINE",
"293 483 LINE",
"256 648 LINE",
"480 648 LINE",
"480 597 LINE",
"516 597 LINE",
"516 680 LINE"
);
},
{
closed = 1;
nodes = (
"293 233 LINE",
"106 233 LINE",
"200 655 LINE"
);
}
);
width = 558;
},
{
anchors = (
{
name = bottom;
position = "{298, 0}";
},
{
name = ogonek;
position = "{403, 10}";
},
{
name = top;
position = "{298, 680}";
}
);
background = {
components = (
{
name = E;
transform = "{1, 0, 0, 1, 188, 0}";
}
);
};
hints = (
{
horizontal = 1;
origin = "{0, 0}";
target = "{0, 1}";
type = TTStem;
options = 4;
},
{
horizontal = 1;
origin = "{0, 0}";
target = "{0, 27}";
type = TTStem;
options = 4;
},
{
horizontal = 1;
origin = "{0, 5}";
target = "{0, 4}";
type = TTStem;
options = 4;
},
{
horizontal = 1;
origin = "{0, 4}";
target = "{0, 8}";
type = Align;
options = 4;
},
{
horizontal = 1;
origin = "{0, 13}";
target = "{0, 12}";
type = TTStem;
options = 4;
},
{
horizontal = 1;
origin = "{0, 12}";
target = "{0, 18}";
type = Align;
options = 4;
},
{
horizontal = 1;
origin = "{0, 26}";
target = "{0, 19}";
type = TTStem;
options = 4;
},
{
horizontal = 1;
origin = "{0, 9}";
target = "{1, 1}";
type = TTStem;
options = 4;
}
);
layerId = "79669AF3-7E96-4900-AB6D-33745B934CAA";
paths = (
{
closed = 1;
nodes = (
"123 680 LINE",
"123 602 LINE",
"143 602 LINE",
"27 78 LINE",
"7 78 LINE",
"7 0 LINE",
"129 0 LINE",
"129 78 LINE",
"109 78 LINE",
"132 182 LINE",
"292 182 LINE",
"316 78 LINE",
"295 78 LINE",
"295 0 LINE",
"571 0 LINE",
"571 128 LINE",
"493 128 LINE",
"493 78 LINE",
"447 78 LINE",
"372 428 LINE",
"437 428 LINE",
"437 408 LINE",
"515 408 LINE",
"515 526 LINE",
"437 526 LINE",
"437 506 LINE",
"355 506 LINE",
"335 602 LINE",
"493 602 LINE",
"493 552 LINE",
"571 552 LINE",
"571 680 LINE"
);
},
{
closed = 1;
nodes = (
"276 256 LINE",
"149 256 LINE",
"212 544 LINE"
);
}
);
width = 596;
}
);
leftKerningGroup = A;
leftMetricsKey = A;
rightKerningGroup = E;
rightMetricsKey = E;
unicode = 00C6;
},
{
glyphname = B;
lastChange = "2020-04-17 23:46:13 +0000";
layers = (
{
anchors = (
{
name = bottom;
position = "{239, 0}";
},
{
name = ogonek;
position = "{239, 10}";
},
{
name = top;
position = "{239, 680}";
}
);
background = {
paths = (
{
closed = 1;
nodes = (
"159 0 LINE SMOOTH",
"362 0 OFFCURVE",
"431 102 OFFCURVE",
"431 247 CURVE SMOOTH",
"431 351 OFFCURVE",
"372 446 OFFCURVE",
"240 472 CURVE",
"238 463 LINE",
"325 476 OFFCURVE",
"363 533 OFFCURVE",
"363 586 CURVE SMOOTH",
"363 635 OFFCURVE",
"329 680 OFFCURVE",
"249 680 CURVE SMOOTH",
"47 680 LINE",
"47 648 LINE",
"219 648 LINE SMOOTH",
"273 648 OFFCURVE",
"301 616 OFFCURVE",
"301 572 CURVE SMOOTH",
"301 523 OFFCURVE",
"267 482 OFFCURVE",
"209 482 CURVE SMOOTH",
"107 482 LINE",
"107 455 LINE",
"169 455 LINE SMOOTH",
"305 455 OFFCURVE",
"365 351 OFFCURVE",
"365 244 CURVE SMOOTH",
"365 130 OFFCURVE",
"305 32 OFFCURVE",
"159 32 CURVE SMOOTH",
"47 32 LINE",
"47 0 LINE"
);
},
{
closed = 1;
nodes = (
"127 20 LINE",
"127 660 LINE",
"69 660 LINE",
"69 20 LINE"
);
}
);
};
hints = (
{
horizontal = 1;
origin = "{0, 13}";
target = "{0, 14}";
type = TTStem;
options = 4;
},
{
horizontal = 1;
origin = "{2, 8}";
target = "{1, 0}";
type = TTStem;
options = 4;
},
{
horizontal = 1;
origin = "{0, 18}";
target = "{0, 17}";
type = TTStem;
options = 4;
},
{
horizontal = 1;
origin = "{0, 17}";
target = "{1, 7}";
type = Align;
options = 4;
},
{
horizontal = 1;
origin = "{1, 0}";
target = "{2, 8}";
other1 = "{0, 6}";
type = Interpolate;
options = 4;
},
{
horizontal = 1;
origin = "{0, 14}";
target = "{2, 0}";
type = Align;
options = 4;
}
);
layerId = "985FD43C-E2EB-4FA2-9714-12093F08C61F";
paths = (
{
closed = 1;
nodes = (
"159 0 LINE SMOOTH",
"362 0 OFFCURVE",
"431 102 OFFCURVE",
"431 247 CURVE SMOOTH",
"431 346 OFFCURVE",
"378 436 OFFCURVE",
"260 467 CURVE",
"331 486 OFFCURVE",
"363 538 OFFCURVE",
"363 586 CURVE SMOOTH",
"363 635 OFFCURVE",
"329 680 OFFCURVE",
"249 680 CURVE SMOOTH",
"47 680 LINE",
"47 648 LINE",
"69 648 LINE",
"69 32 LINE",
"47 32 LINE",
"47 0 LINE"
);
},
{
closed = 1;
nodes = (
"127 452 LINE",
"169 452 LINE SMOOTH",
"305 452 OFFCURVE",
"365 351 OFFCURVE",
"365 244 CURVE SMOOTH",
"365 130 OFFCURVE",
"305 32 OFFCURVE",
"159 32 CURVE SMOOTH",
"127 32 LINE"
);
},
{
closed = 1;
nodes = (
"127 648 LINE",
"219 648 LINE SMOOTH",
"273 648 OFFCURVE",
"301 616 OFFCURVE",
"301 572 CURVE SMOOTH",
"301 523 OFFCURVE",
"267 484 OFFCURVE",
"209 484 CURVE SMOOTH",
"127 484 LINE"
);
}
);
width = 459;
},
{
anchors = (
{
name = bottom;
position = "{255, 0}";
},
{
name = ogonek;
position = "{255, 10}";
},
{
name = top;
position = "{255, 680}";
}
);
background = {
paths = (
{
closed = 1;
nodes = (
"159 0 LINE SMOOTH",
"362 0 OFFCURVE",
"431 102 OFFCURVE",
"431 247 CURVE SMOOTH",
"431 351 OFFCURVE",
"372 446 OFFCURVE",
"240 472 CURVE",
"238 463 LINE",
"325 476 OFFCURVE",
"363 533 OFFCURVE",
"363 586 CURVE SMOOTH",
"363 635 OFFCURVE",
"329 680 OFFCURVE",
"249 680 CURVE SMOOTH",
"47 680 LINE",
"47 648 LINE",
"219 648 LINE SMOOTH",
"273 648 OFFCURVE",
"301 616 OFFCURVE",
"301 572 CURVE SMOOTH",
"301 523 OFFCURVE",
"267 484 OFFCURVE",
"209 484 CURVE SMOOTH",
"107 484 LINE",
"107 452 LINE",
"169 452 LINE SMOOTH",
"305 452 OFFCURVE",
"365 351 OFFCURVE",
"365 244 CURVE SMOOTH",
"365 130 OFFCURVE",
"305 32 OFFCURVE",
"159 32 CURVE SMOOTH",
"47 32 LINE",
"47 0 LINE"
);
},
{
closed = 1;
nodes = (
"127 20 LINE",
"127 660 LINE",
"69 660 LINE",
"69 20 LINE"
);
}
);
};
layerId = "79669AF3-7E96-4900-AB6D-33745B934CAA";
paths = (
{
closed = 1;
nodes = (
"173 0 LINE SMOOTH",
"399 0 OFFCURVE",
"476 102 OFFCURVE",
"476 247 CURVE SMOOTH",
"476 361 OFFCURVE",
"413 443 OFFCURVE",
"289 471 CURVE",
"360 484 OFFCURVE",
"406 519 OFFCURVE",
"406 586 CURVE SMOOTH",
"406 635 OFFCURVE",
"374 680 OFFCURVE",
"273 680 CURVE SMOOTH",
"33 680 LINE",
"33 602 LINE",
"55 602 LINE",
"55 78 LINE",
"33 78 LINE",
"33 0 LINE"
);
},
{
closed = 1;
nodes = (
"188 431 LINE",
"188 431 LINE SMOOTH",
"285 428 OFFCURVE",
"328 337 OFFCURVE",
"328 244 CURVE SMOOTH",
"328 159 OFFCURVE",
"287 85 OFFCURVE",
"188 78 CURVE SMOOTH",
"188 78 LINE"
);
},
{
closed = 1;
nodes = (
"188 602 LINE",
"217 602 LINE SMOOTH",
"254 602 OFFCURVE",
"266 581 OFFCURVE",
"266 554 CURVE SMOOTH",
"266 519 OFFCURVE",
"244 505 OFFCURVE",
"205 505 CURVE SMOOTH",
"188 505 LINE"
);
}
);
width = 479;
}
);
leftKerningGroup = H;
leftMetricsKey = H;
rightKerningGroup = B;
unicode = 0042;
},
{
glyphname = C;
lastChange = "2020-04-28 01:40:20 +0000";
layers = (
{
anchors = (
{
name = bottom;
position = "{234, 0}";
},
{
name = ogonek;
position = "{234, 10}";
},
{
name = top;
position = "{226, 680}";
}
);
guideLines = (
{
angle = 90;
position = "{348, 549}";
}
);
hints = (
{
horizontal = 1;
origin = "{0, 23}";
target = "{0, 12}";
type = TTStem;
options = 4;
},
{
horizontal = 1;
origin = "{0, 29}";
target = "{0, 6}";
type = TTStem;
options = 4;
},
{
horizontal = 1;
origin = "{0, 18}";
type = Anchor;
}
);
layerId = "985FD43C-E2EB-4FA2-9714-12093F08C61F";
paths = (
{
closed = 1;
nodes = (
"287 -10 OFFCURVE",
"333 19 OFFCURVE",
"368 70 CURVE",
"343 89 LINE",
"312 45 OFFCURVE",
"273 26 OFFCURVE",
"234 26 CURVE SMOOTH",
"152 26 OFFCURVE",
"96 148 OFFCURVE",
"96 340 CURVE SMOOTH",
"96 532 OFFCURVE",
"149 654 OFFCURVE",
"226 654 CURVE SMOOTH",
"266 654 OFFCURVE",
"299 617 OFFCURVE",
"313 549 CURVE",
"348 549 LINE",
"348 680 LINE",
"312 680 LINE",
"312 614 LINE",
"318 614 LINE",
"303 668 OFFCURVE",
"267 690 OFFCURVE",
"226 690 CURVE SMOOTH",
"110 690 OFFCURVE",
"30 554 OFFCURVE",
"30 340 CURVE SMOOTH",
"30 126 OFFCURVE",
"113 -10 OFFCURVE",
"234 -10 CURVE SMOOTH"
);
}
);
width = 386;
},
{
anchors = (
{
name = bottom;
position = "{244, 0}";
},
{
name = ogonek;
position = "{260, 10}";
},
{
name = top;
position = "{260, 680}";
}
);
background = {
paths = (
{
closed = 1;
nodes = (
"337 668 OFFCURVE",
"301 690 OFFCURVE",
"260 690 CURVE SMOOTH",
"144 690 OFFCURVE",
"64 554 OFFCURVE",
"64 340 CURVE SMOOTH",
"64 126 OFFCURVE",
"147 -10 OFFCURVE",
"268 -10 CURVE SMOOTH",
"321 -10 OFFCURVE",
"367 19 OFFCURVE",
"402 70 CURVE",
"377 89 LINE",
"346 45 OFFCURVE",
"307 26 OFFCURVE",
"268 26 CURVE SMOOTH",
"186 26 OFFCURVE",
"130 148 OFFCURVE",
"130 340 CURVE SMOOTH",
"130 532 OFFCURVE",
"183 654 OFFCURVE",
"260 654 CURVE SMOOTH",
"300 654 OFFCURVE",
"333 617 OFFCURVE",
"347 549 CURVE",
"382 549 LINE",
"382 680 LINE",
"346 680 LINE",
"346 614 LINE",
"352 614 LINE"
);
}
);
};
guideLines = (
{
angle = 90;
position = "{434, 499}";
}
);
layerId = "79669AF3-7E96-4900-AB6D-33745B934CAA";
paths = (
{
closed = 1;
nodes = (
"337 -10 OFFCURVE",
"401 30 OFFCURVE",
"443 102 CURVE",
"377 148 LINE",
"344 98 OFFCURVE",
"311 76 OFFCURVE",
"278 76 CURVE SMOOTH",
"207 76 OFFCURVE",
"170 180 OFFCURVE",
"170 337 CURVE SMOOTH",
"170 501 OFFCURVE",
"210 604 OFFCURVE",
"272 604 CURVE SMOOTH",
"305 604 OFFCURVE",
"335 574 OFFCURVE",
"347 519 CURVE",
"434 519 LINE",
"434 680 LINE",
"346 680 LINE",
"346 614 LINE",
"352 614 LINE",
"343 668 OFFCURVE",
"311 690 OFFCURVE",
"254 690 CURVE SMOOTH",
"119 690 OFFCURVE",
"22 554 OFFCURVE",
"22 340 CURVE SMOOTH",
"22 126 OFFCURVE",
"119 -10 OFFCURVE",
"260 -10 CURVE SMOOTH"
);
}
);
width = 463;
}
);
leftKerningGroup = O;
leftMetricsKey = O;
rightKerningGroup = C;
unicode = 0043;
},
{
glyphname = D;
lastChange = "2020-04-17 23:44:50 +0000";
layers = (
{
anchors = (
{
name = bottom;
position = "{228, 0}";
},
{
name = ogonek;
position = "{228, 10}";
},
{
name = top;
position = "{228, 680}";
}
);
background = {
paths = (
{
closed = 1;
nodes = (
"127 20 LINE",
"127 660 LINE",
"69 660 LINE",
"69 20 LINE"
);
},
{
closed = 1;
nodes = (
"159 0 LINE SMOOTH",
"220 0 OFFCURVE",
"262 11 OFFCURVE",
"304 42 CURVE SMOOTH",
"364 90 OFFCURVE",
"408 182 OFFCURVE",
"408 345 CURVE SMOOTH",
"408 498 OFFCURVE",
"364 590 OFFCURVE",
"304 638 CURVE SMOOTH",
"262 669 OFFCURVE",
"220 680 OFFCURVE",
"159 680 CURVE SMOOTH",
"47 680 LINE",
"47 648 LINE",
"159 648 LINE SMOOTH",
"211 648 OFFCURVE",
"250 634 OFFCURVE",
"281 598 CURVE SMOOTH",
"320 553 OFFCURVE",
"342 470 OFFCURVE",
"342 345 CURVE SMOOTH",
"342 210 OFFCURVE",
"318 128 OFFCURVE",
"281 82 CURVE SMOOTH",
"251 45 OFFCURVE",
"211 32 OFFCURVE",
"159 32 CURVE SMOOTH",
"47 32 LINE",
"47 0 LINE"
);
}
);
};
hints = (
{
horizontal = 1;
origin = "{0, 2}";
target = "{0, 3}";
type = TTStem;
options = 4;
},
{
horizontal = 1;
origin = "{0, 7}";
target = "{0, 6}";
type = TTStem;
options = 4;
},
{
horizontal = 1;
origin = "{0, 6}";
target = "{1, 2}";
type = Align;
options = 4;
},
{
horizontal = 1;
origin = "{0, 3}";
target = "{1, 3}";
type = Align;
options = 4;
}
);
layerId = "985FD43C-E2EB-4FA2-9714-12093F08C61F";
paths = (
{
closed = 1;
nodes = (
"220 680 OFFCURVE",
"159 680 CURVE SMOOTH",
"47 680 LINE",
"47 648 LINE",
"69 648 LINE",
"69 32 LINE",
"47 32 LINE",
"47 0 LINE",
"159 0 LINE SMOOTH",
"220 0 OFFCURVE",
"262 10 OFFCURVE",
"304 42 CURVE SMOOTH",
"365 89 OFFCURVE",
"408 182 OFFCURVE",
"408 345 CURVE SMOOTH",
"408 498 OFFCURVE",
"365 591 OFFCURVE",
"304 638 CURVE SMOOTH",
"262 670 OFFCURVE"
);
},
{
closed = 1;
nodes = (
"211 32 OFFCURVE",
"159 32 CURVE SMOOTH",
"127 32 LINE",
"127 648 LINE",
"159 648 LINE SMOOTH",
"211 648 OFFCURVE",
"250 634 OFFCURVE",
"281 598 CURVE SMOOTH",
"320 553 OFFCURVE",
"342 470 OFFCURVE",
"342 345 CURVE SMOOTH",
"342 210 OFFCURVE",
"318 128 OFFCURVE",
"281 82 CURVE SMOOTH",
"251 45 OFFCURVE"
);
}
);
width = 438;
},
{
anchors = (
{
name = bottom;
position = "{261, 0}";
},
{
name = ogonek;
position = "{261, 10}";
},
{
name = top;
position = "{261, 680}";
}
);
background = {
paths = (
{
closed = 1;
nodes = (
"185 58 LINE",
"185 622 LINE",
"53 622 LINE",
"53 58 LINE"
);
},
{
closed = 1;
nodes = (
"203 0 LINE SMOOTH",
"290 0 OFFCURVE",
"357 26 OFFCURVE",
"403 74 CURVE SMOOTH",
"460 134 OFFCURVE",
"489 225 OFFCURVE",
"489 340 CURVE SMOOTH",
"489 455 OFFCURVE",
"461 547 OFFCURVE",
"403 606 CURVE SMOOTH",
"357 654 OFFCURVE",
"290 680 OFFCURVE",
"203 680 CURVE SMOOTH",
"33 680 LINE",
"33 602 LINE",
"203 602 LINE SMOOTH",
"252 602 OFFCURVE",
"285 580 OFFCURVE",
"307 540 CURVE SMOOTH",
"332 494 OFFCURVE",
"341 425 OFFCURVE",
"341 340 CURVE SMOOTH",
"341 255 OFFCURVE",
"332 186 OFFCURVE",
"307 140 CURVE SMOOTH",
"285 100 OFFCURVE",
"252 78 OFFCURVE",
"203 78 CURVE SMOOTH",
"33 78 LINE",
"33 0 LINE"
);
}
);
};
layerId = "79669AF3-7E96-4900-AB6D-33745B934CAA";
paths = (
{
closed = 1;
nodes = (
"290 680 OFFCURVE",
"203 680 CURVE SMOOTH",
"33 680 LINE",
"33 602 LINE",
"53 602 LINE",
"53 78 LINE",
"33 78 LINE",
"33 0 LINE",
"203 0 LINE SMOOTH",
"290 0 OFFCURVE",
"357 26 OFFCURVE",
"403 74 CURVE SMOOTH",
"460 134 OFFCURVE",
"489 225 OFFCURVE",
"489 340 CURVE SMOOTH",
"489 455 OFFCURVE",
"460 546 OFFCURVE",
"403 606 CURVE SMOOTH",
"357 654 OFFCURVE"
);
},
{
closed = 1;
nodes = (
"252 78 OFFCURVE",
"203 78 CURVE SMOOTH",
"185 78 LINE",
"185 602 LINE",
"203 602 LINE SMOOTH",
"252 602 OFFCURVE",
"285 580 OFFCURVE",
"307 540 CURVE SMOOTH",
"332 494 OFFCURVE",
"341 425 OFFCURVE",
"341 340 CURVE SMOOTH",
"341 255 OFFCURVE",
"332 186 OFFCURVE",
"307 140 CURVE SMOOTH",
"285 100 OFFCURVE"
);
}
);
width = 511;
}
);
leftKerningGroup = H;
leftMetricsKey = H;
rightKerningGroup = O;
rightMetricsKey = O;
unicode = 0044;
},
{
glyphname = Eth;
lastChange = "2020-04-16 19:21:15 +0000";
layers = (
{
components = (
{
name = D;
}
);
guideLines = (
{
angle = 90;
position = "{235, 245}";
}
);
hints = (
{
horizontal = 1;
origin = "{0, 3}";
target = "{0, 2}";
type = TTStem;
options = 4;
},
{
horizontal = 1;
origin = "{0, 2}";
target = "{0, 1}";
type = Align;
options = 4;
},
{
horizontal = 1;
origin = "{0, 3}";
target = "{0, 0}";
type = Align;
options = 4;
}
);
layerId = "985FD43C-E2EB-4FA2-9714-12093F08C61F";
paths = (
{
closed = 1;
nodes = (
"235 324 LINE",
"235 356 LINE",
"47 356 LINE",
"47 324 LINE"
);
}
);
width = 438;
},
{
components = (
{
name = D;
}
);
layerId = "79669AF3-7E96-4900-AB6D-33745B934CAA";
paths = (
{
closed = 1;
nodes = (
"263 301 LINE",
"263 379 LINE",
"33 379 LINE",
"33 301 LINE"
);
}
);
width = 511;
}
);
leftKerningGroup = H;
rightKerningGroup = O;
unicode = 00D0;
},
{
glyphname = E;
lastChange = "2020-04-21 21:43:50 +0000";
layers = (
{
anchors = (
{
name = bottom;
position = "{196, 0}";
},
{
name = ogonek;
position = "{296, 10}";
},
{
name = top;
position = "{196, 680}";
}
);
hints = (
{
horizontal = 1;
origin = "{0, 0}";
target = "{0, 1}";
type = TTStem;
options = 4;
},
{
horizontal = 1;
origin = "{0, 11}";
target = "{0, 18}";
type = TTStem;
options = 4;
},
{
horizontal = 1;
origin = "{0, 5}";
target = "{0, 4}";
type = TTStem;
options = 4;
},
{
horizontal = 1;
origin = "{0, 8}";
type = Anchor;
options = 1;
},
{
horizontal = 1;
origin = "{0, 21}";
type = Anchor;
options = 2;
},
{
horizontal = 1;
origin = "{0, 0}";
target = "{0, 19}";
type = TTStem;
options = 4;
},
{
horizontal = 1;
origin = "{0, 5}";
target = "{0, 10}";
type = TTStem;
options = 4;
}
);
layerId = "985FD43C-E2EB-4FA2-9714-12093F08C61F";
paths = (
{
closed = 1;
nodes = (
"47 680 LINE",
"47 648 LINE",
"69 648 LINE",
"69 32 LINE",
"47 32 LINE",
"47 0 LINE",
"344 0 LINE",
"344 83 LINE",
"308 83 LINE",
"308 32 LINE",
"127 32 LINE",
"127 451 LINE",
"249 451 LINE",
"249 431 LINE",
"285 431 LINE",
"285 503 LINE",
"249 503 LINE",
"249 483 LINE",
"127 483 LINE",
"127 648 LINE",
"308 648 LINE",
"308 597 LINE",
"344 597 LINE",
"344 680 LINE"
);
}
);
width = 386;
},
{
anchors = (
{
name = bottom;
position = "{208, 0}";
},
{
name = ogonek;
position = "{319, 10}";
},
{
name = top;
position = "{208, 680}";
}
);
background = {
paths = (
{
closed = 1;
nodes = (
"185 58 LINE",
"185 622 LINE",
"53 622 LINE",
"53 58 LINE"
);
},
{
closed = 1;
nodes = (
"431 0 LINE",
"431 128 LINE",
"305 128 LINE",
"305 78 LINE",
"33 78 LINE",
"33 0 LINE"
);
},
{
closed = 1;
nodes = (
"331 408 LINE",
"331 526 LINE",
"249 526 LINE",
"249 506 LINE",
"165 506 LINE",
"165 428 LINE",
"249 428 LINE",
"249 408 LINE"
);
},
{
closed = 1;
nodes = (
"431 552 LINE",
"431 680 LINE",
"33 680 LINE",
"33 602 LINE",
"305 602 LINE",
"305 552 LINE"
);
}
);
};
guideLines = (
{
angle = 90;
position = "{305, 340}";
},
{
angle = 90;
position = "{437, 602}";
},
{
angle = 90;
position = "{371, 602}";
},
{
angle = 179.7278;
position = "{8, 568}";
showMeasurement = 1;
}
);
layerId = "79669AF3-7E96-4900-AB6D-33745B934CAA";
paths = (
{
closed = 1;
nodes = (
"33 680 LINE",
"33 602 LINE",
"53 602 LINE",
"53 78 LINE",
"33 78 LINE",
"33 0 LINE",
"383 0 LINE",
"383 128 LINE",
"305 128 LINE",
"305 78 LINE",
"185 78 LINE",
"185 428 LINE",
"249 428 LINE",
"249 408 LINE",
"327 408 LINE",
"327 526 LINE",
"249 526 LINE",
"249 506 LINE",
"185 506 LINE",
"185 602 LINE",
"305 602 LINE",
"305 552 LINE",
"383 552 LINE",
"383 680 LINE"
);
}
);
width = 408;
},
{
anchors = (
{
name = bottom;
position = "{196, 0}";
},
{
name = ogonek;
position = "{296, 10}";
},
{
name = top;
position = "{196, 680}";
}
);
associatedMasterId = "985FD43C-E2EB-4FA2-9714-12093F08C61F";
hints = (
{
horizontal = 1;
origin = "{3, 2}";
target = "{3, 3}";
type = TTStem;
options = 1;
},
{
horizontal = 1;
origin = "{0, 1, 2, 6}";
target = "{0, 1, 2, 4}";
type = TTStem;
options = 4;
},
{
horizontal = 1;
origin = "{1, 5}";
target = "{1, 4}";
type = TTStem;
options = 1;
},
{
horizontal = 1;
origin = "{3, 3}";
target = "{0, 1, 3, 4}";
type = Align;
options = 4;
},
{
horizontal = 1;
origin = "{1, 4}";
target = "{0, 1, 1, 4}";
type = Align;
options = 4;
},
{
horizontal = 1;
origin = "{1, 2}";
type = Anchor;
options = 1;
},
{
horizontal = 1;
origin = "{3, 5}";
type = Anchor;
options = 2;
}
);
layerId = "5CB83AF5-E9A1-42DF-B36C-011A2316FB7B";
name = "Apr 17 20, 11:34";
paths = (
{
closed = 1;
nodes = (
"127 20 LINE",
"127 660 LINE",
"69 660 LINE",
"69 20 LINE"
);
},
{
closed = 1;
nodes = (
"344 0 LINE",
"344 83 LINE",
"308 83 LINE",
"308 32 LINE",
"47 32 LINE",
"47 0 LINE"
);
},
{
closed = 1;
nodes = (
"285 431 LINE",
"285 503 LINE",
"249 503 LINE",
"249 483 LINE",
"105 483 LINE",
"105 451 LINE",
"249 451 LINE",
"249 431 LINE"
);
},
{
closed = 1;
nodes = (
"344 597 LINE",
"344 680 LINE",
"47 680 LINE",
"47 648 LINE",
"308 648 LINE",
"308 597 LINE"
);
}
);
width = 386;
}
);
leftKerningGroup = H;
leftMetricsKey = H;
rightKerningGroup = E;
unicode = 0045;
},
{
glyphname = F;
lastChange = "2020-04-28 01:40:36 +0000";
layers = (
{
anchors = (
{
name = bottom;
position = "{98, 0}";
},
{
name = ogonek;
position = "{98, 10}";
},
{
name = top;
position = "{196, 680}";
}
);
guideLines = (
{
position = "{21, 200}";
},
{
position = "{21, 232}";
},
{
angle = 270;
position = "{344, 639}";
}
);
hints = (
{
horizontal = 1;
origin = "{0, 16}";
target = "{0, 17}";
type = TTStem;
options = 4;
},
{
horizontal = 1;
origin = "{0, 21}";
target = "{0, 20}";
type = TTStem;
options = 4;
},
{
horizontal = 1;
origin = "{0, 3}";
target = "{0, 10}";
type = TTStem;
options = 4;
},
{
horizontal = 1;
origin = "{0, 17}";
target = "{0, 11}";
type = Align;
options = 4;
},
{
horizontal = 1;
origin = "{0, 20}";
target = "{0, 2}";
type = Align;
options = 4;
},
{
horizontal = 1;
origin = "{0, 13}";
type = Anchor;
options = 2;
}
);
layerId = "985FD43C-E2EB-4FA2-9714-12093F08C61F";
paths = (
{
closed = 1;
nodes = (
"149 0 LINE",
"149 32 LINE",
"127 32 LINE",
"127 451 LINE",
"249 451 LINE",
"249 424 LINE",
"285 424 LINE",
"285 510 LINE",
"249 510 LINE",
"249 483 LINE",
"127 483 LINE",
"127 648 LINE",
"308 648 LINE",
"308 597 LINE",
"344 597 LINE",
"344 680 LINE",
"47 680 LINE",
"47 648 LINE",
"69 648 LINE",
"69 32 LINE",
"47 32 LINE",
"47 0 LINE"
);
}
);
width = 376;
},
{
anchors = (
{
name = bottom;
position = "{119, 0}";
},
{
name = ogonek;
position = "{119, 10}";
},
{
name = top;
position = "{208, 680}";
}
);
background = {
paths = (
{
closed = 1;
nodes = (
"185 58 LINE",
"185 622 LINE",
"53 622 LINE",
"53 58 LINE"
);
},
{
closed = 1;
nodes = (
"205 0 LINE",
"205 78 LINE",
"33 78 LINE",
"33 0 LINE"
);
},
{
closed = 1;
nodes = (
"331 408 LINE",
"331 526 LINE",
"249 526 LINE",
"249 506 LINE",
"165 506 LINE",
"165 428 LINE",
"249 428 LINE",
"249 408 LINE"
);
},
{
closed = 1;
nodes = (
"431 552 LINE",
"431 680 LINE",
"33 680 LINE",
"33 602 LINE",
"305 602 LINE",
"305 552 LINE"
);
}
);
};
guideLines = (
{
angle = 90;
position = "{383, 552}";
}
);
layerId = "79669AF3-7E96-4900-AB6D-33745B934CAA";
paths = (
{
closed = 1;
nodes = (
"205 0 LINE",
"205 78 LINE",
"185 78 LINE",
"185 428 LINE",
"249 428 LINE",
"249 408 LINE",
"327 408 LINE",
"327 526 LINE",
"249 526 LINE",
"249 506 LINE",
"185 506 LINE",
"185 602 LINE",
"305 602 LINE",
"305 552 LINE",
"383 552 LINE",
"383 680 LINE",
"33 680 LINE",
"33 602 LINE",
"53 602 LINE",
"53 78 LINE",
"33 78 LINE",
"33 0 LINE"
);
}
);
width = 405;
}
);
leftKerningGroup = H;
leftMetricsKey = H;
unicode = 0046;
},
{
glyphname = G;
lastChange = "2020-04-28 01:40:45 +0000";
layers = (
{
anchors = (
{
name = bottom;
position = "{209, 0}";
},
{
name = ogonek;
position = "{224, 10}";
},
{
name = top;
position = "{209, 680}";
}
);
hints = (
{
horizontal = 1;
origin = "{0, 2}";
target = "{0, 21}";
type = TTStem;
options = 4;
},
{
horizontal = 1;
origin = "{0, 8}";
target = "{0, 15}";
type = TTStem;
options = 4;
},
{
horizontal = 1;
origin = "{2, 3}";
target = "{2, 5}";
type = TTStem;
options = 4;
},
{
horizontal = 1;
origin = "{1, 0}";
target = "{1, 3}";
type = TTStem;
options = 4;
},
{
horizontal = 1;
origin = "{1, 0}";
target = "{1, 1}";
type = Align;
options = 4;
},
{
horizontal = 1;
origin = "{0, 27}";
type = Anchor;
}
);
layerId = "985FD43C-E2EB-4FA2-9714-12093F08C61F";
paths = (
{
closed = 1;
nodes = (
"303 668 OFFCURVE",
"267 690 OFFCURVE",
"226 690 CURVE SMOOTH",
"110 690 OFFCURVE",
"30 554 OFFCURVE",
"30 340 CURVE SMOOTH",
"30 126 OFFCURVE",
"109 -10 OFFCURVE",
"224 -10 CURVE SMOOTH",
"270 -10 OFFCURVE",
"309 16 OFFCURVE",
"328 62 CURVE",
"311 78 LINE",
"296 42 OFFCURVE",
"265 26 OFFCURVE",
"234 26 CURVE SMOOTH",
"152 26 OFFCURVE",
"96 148 OFFCURVE",
"96 340 CURVE SMOOTH",
"96 532 OFFCURVE",
"149 654 OFFCURVE",
"226 654 CURVE SMOOTH",
"266 654 OFFCURVE",
"299 617 OFFCURVE",
"313 549 CURVE",
"348 549 LINE",
"348 680 LINE",
"312 680 LINE",
"312 614 LINE",
"318 614 LINE"
);
},
{
closed = 1;
nodes = (
"286 343 LINE",
"388 343 LINE",
"388 375 LINE",
"286 375 LINE"
);
},
{
closed = 1;
nodes = (
"366 355 LINE",
"308 355 LINE",
"308 0 LINE",
"388 0 LINE",
"388 32 LINE",
"366 32 LINE"
);
}
);
width = 423;
},
{
anchors = (
{
name = bottom;
position = "{251, 0}";
},
{
name = ogonek;
position = "{260, 10}";
},
{
name = top;
position = "{251, 680}";
}
);
background = {
paths = (
{
closed = 1;
nodes = (
"401 -10 OFFCURVE",
"498 126 OFFCURVE",
"498 340 CURVE SMOOTH",
"498 554 OFFCURVE",
"401 690 OFFCURVE",
"260 690 CURVE SMOOTH",
"119 690 OFFCURVE",
"22 554 OFFCURVE",
"22 340 CURVE SMOOTH",
"22 126 OFFCURVE",
"119 -10 OFFCURVE",
"260 -10 CURVE SMOOTH"
);
},
{
closed = 1;
nodes = (
"207 76 OFFCURVE",
"170 179 OFFCURVE",
"170 340 CURVE SMOOTH",
"170 501 OFFCURVE",
"207 604 OFFCURVE",
"260 604 CURVE SMOOTH",
"313 604 OFFCURVE",
"350 501 OFFCURVE",
"350 340 CURVE SMOOTH",
"350 179 OFFCURVE",
"313 76 OFFCURVE",
"260 76 CURVE SMOOTH"
);
}
);
};
guideLines = (
{
angle = 90;
position = "{260, 550}";
}
);
layerId = "79669AF3-7E96-4900-AB6D-33745B934CAA";
paths = (
{
closed = 1;
nodes = (
"354 668 OFFCURVE",
"310 690 OFFCURVE",
"260 690 CURVE SMOOTH",
"119 690 OFFCURVE",
"22 554 OFFCURVE",
"22 340 CURVE SMOOTH",
"22 126 OFFCURVE",
"123 -10 OFFCURVE",
"240 -10 CURVE SMOOTH",
"293 -10 OFFCURVE",
"329 16 OFFCURVE",
"347 62 CURVE",
"330 128 LINE",
"316 92 OFFCURVE",
"288 76 OFFCURVE",
"260 76 CURVE SMOOTH",
"207 76 OFFCURVE",
"170 179 OFFCURVE",
"170 340 CURVE SMOOTH",
"170 501 OFFCURVE",
"215 604 OFFCURVE",
"280 604 CURVE SMOOTH",
"311 604 OFFCURVE",
"336 579 OFFCURVE",
"347 533 CURVE",
"430 533 LINE",
"430 680 LINE",
"346 680 LINE",
"346 614 LINE",
"372 614 LINE"
);
},
{
closed = 1;
nodes = (
"305 297 LINE",
"481 297 LINE",
"481 375 LINE",
"305 375 LINE"
);
},
{
closed = 1;
nodes = (
"459 355 LINE",
"327 355 LINE",
"327 0 LINE",
"481 0 LINE",
"481 78 LINE",
"459 78 LINE"
);
}
);
width = 511;
}
);
leftKerningGroup = O;
leftMetricsKey = O;
rightKerningGroup = G;
unicode = 0047;
},
{
glyphname = H;
lastChange = "2020-04-28 19:54:51 +0000";
layers = (
{
anchors = (
{
name = bottom;
position = "{234, 0}";
},
{
name = ogonek;
position = "{234, 10}";
},
{
name = top;
position = "{234, 680}";
},
{
name = topleft;
position = "{20, 680}";
}
);
background = {
paths = (
{
closed = 1;
nodes = (
"421 0 LINE",
"421 32 LINE",
"399 32 LINE",
"399 648 LINE",
"421 648 LINE",
"421 680 LINE",
"319 680 LINE",
"319 648 LINE",
"341 648 LINE",
"341 32 LINE",
"319 32 LINE",
"319 0 LINE"
);
},
{
closed = 1;
nodes = (
"149 0 LINE",
"149 32 LINE",
"127 32 LINE",
"127 648 LINE",
"149 648 LINE",
"149 680 LINE",
"47 680 LINE",
"47 648 LINE",
"69 648 LINE",
"69 32 LINE",
"47 32 LINE",
"47 0 LINE"
);
},
{
closed = 1;
nodes = (
"361 451 LINE",
"361 483 LINE",
"107 483 LINE",
"107 451 LINE"
);
}
);
};
guideLines = (
{
angle = 90;
position = "{69, 20}";
},
{
angle = 90;
position = "{399, 648}";
},
{
position = "{15, 466}";
},
{
position = "{18, 483}";
},
{
position = "{13, 451}";
},
{
position = "{47, 648}";
},
{
angle = 90;
position = "{341, 648}";
}
);
hints = (
{
horizontal = 1;
origin = "{1, 6}";
target = "{1, 7}";
type = TTStem;
options = 4;
},
{
horizontal = 1;
origin = "{1, 11}";
target = "{1, 10}";
type = TTStem;
options = 4;
},
{
horizontal = 1;
origin = "{0, 11}";
target = "{0, 10}";
type = TTStem;
options = 4;
},
{
horizontal = 1;
origin = "{1, 3, 2, 0}";
target = "{1, 3, 2, 2}";
type = TTStem;
options = 4;
},
{
horizontal = 1;
origin = "{0, 6}";
target = "{0, 7}";
type = TTStem;
options = 4;
},
{
horizontal = 1;
origin = "{1, 7}";
target = "{1, 3}";
type = Align;
options = 4;
},
{
horizontal = 1;
origin = "{0, 7}";
target = "{0, 3}";
type = Align;
options = 4;
},
{
horizontal = 1;
origin = "{1, 10}";
target = "{1, 2}";
type = Align;
options = 4;
},
{
horizontal = 1;
origin = "{0, 10}";
target = "{0, 2}";
type = Align;
options = 4;
}
);
layerId = "985FD43C-E2EB-4FA2-9714-12093F08C61F";
paths = (
{
closed = 1;
nodes = (
"421 0 LINE",
"421 32 LINE",
"399 32 LINE",
"399 648 LINE",
"421 648 LINE",
"421 680 LINE",
"319 680 LINE",
"319 648 LINE",
"341 648 LINE",
"341 32 LINE",
"319 32 LINE",
"319 0 LINE"
);
},
{
closed = 1;
nodes = (
"149 0 LINE",
"149 32 LINE",
"127 32 LINE",
"127 648 LINE",
"149 648 LINE",
"149 680 LINE",
"47 680 LINE",
"47 648 LINE",
"69 648 LINE",
"69 32 LINE",
"47 32 LINE",
"47 0 LINE"
);
},
{
closed = 1;
nodes = (
"361 451 LINE",
"361 483 LINE",
"107 483 LINE",
"107 451 LINE"
);
}
);
width = 468;
},
{
associatedMasterId = "985FD43C-E2EB-4FA2-9714-12093F08C61F";
background = {
paths = (
{
closed = 1;
nodes = (
"79 20 LINE",
"137 20 LINE",
"137 660 LINE",
"79 660 LINE"
);
},
{
closed = 1;
nodes = (
"57 648 LINE",
"159 648 LINE",
"159 680 LINE",
"57 680 LINE"
);
},
{
closed = 1;
nodes = (
"57 32 LINE",
"57 0 LINE",
"258 0 LINE SMOOTH",
"338 0 OFFCURVE",
"377 41 OFFCURVE",
"377 123 CURVE SMOOTH",
"377 663 LINE",
"351 663 LINE",
"351 123 LINE SMOOTH",
"351 61 OFFCURVE",
"322 32 OFFCURVE",
"253 32 CURVE SMOOTH"
);
},
{
closed = 1;
nodes = (
"326 648 LINE",
"400 648 LINE",
"400 680 LINE",
"326 680 LINE"
);
}
);
};
layerId = "1F11B516-F05F-4E4A-90D2-EE1E7D17C144";
name = "Sep 7 18, 20:38";
paths = (
{
closed = 1;
nodes = (
"79 20 LINE",
"137 20 LINE",
"137 660 LINE",
"79 660 LINE"
);
},
{
closed = 1;
nodes = (
"57 648 LINE",
"159 648 LINE",
"159 680 LINE",
"57 680 LINE"
);
},
{
closed = 1;
nodes = (
"57 0 LINE",
"159 0 LINE",
"159 32 LINE",
"57 32 LINE"
);
},
{
closed = 1;
nodes = (
"351 20 LINE",
"409 20 LINE",
"409 660 LINE",
"351 660 LINE"
);
},
{
closed = 1;
nodes = (
"329 648 LINE",
"431 648 LINE",
"431 680 LINE",
"329 680 LINE"
);
},
{
closed = 1;
nodes = (
"329 0 LINE",
"431 0 LINE",
"431 32 LINE",
"329 32 LINE"
);
},
{
closed = 1;
nodes = (
"371 451 LINE",
"371 483 LINE",
"117 483 LINE",
"117 451 LINE"
);
}
);
width = 488;
},
{
anchors = (
{
name = bottom;
position = "{245, 0}";
},
{
name = ogonek;
position = "{245, 10}";
},
{
name = top;
position = "{245, 680}";
},
{
name = topleft;
position = "{20, 680}";
}
);
background = {
paths = (
{
closed = 1;
nodes = (
"432 0 LINE",
"432 32 LINE",
"410 32 LINE",
"410 648 LINE",
"432 648 LINE",
"432 680 LINE",
"330 680 LINE",
"330 648 LINE",
"352 648 LINE",
"352 32 LINE",
"330 32 LINE",
"330 0 LINE"
);
},
{
closed = 1;
nodes = (
"160 0 LINE",
"160 32 LINE",
"138 32 LINE",
"138 648 LINE",
"160 648 LINE",
"160 680 LINE",
"58 680 LINE",
"58 648 LINE",
"80 648 LINE",
"80 32 LINE",
"58 32 LINE",
"58 0 LINE"
);
},
{
closed = 1;
nodes = (
"372 451 LINE",
"372 483 LINE",
"118 483 LINE",
"118 451 LINE"
);
},
{
closed = 0;
nodes = (
"437 78 LINE"
);
}
);
};
layerId = "79669AF3-7E96-4900-AB6D-33745B934CAA";
paths = (
{
closed = 1;
nodes = (
"457 0 LINE",
"457 78 LINE",
"437 78 LINE",
"437 602 LINE",
"457 602 LINE",
"457 680 LINE",
"285 680 LINE",
"285 602 LINE",
"305 602 LINE",
"305 78 LINE",
"285 78 LINE",
"285 0 LINE"
);
},
{
closed = 1;
nodes = (
"205 0 LINE",
"205 78 LINE",
"185 78 LINE",
"185 602 LINE",
"205 602 LINE",
"205 680 LINE",
"33 680 LINE",
"33 602 LINE",
"53 602 LINE",
"53 78 LINE",
"33 78 LINE",
"33 0 LINE"
);
},
{
closed = 1;
nodes = (
"331 428 LINE",
"331 506 LINE",
"159 506 LINE",
"159 428 LINE"
);
}
);
width = 490;
},
{
anchors = (
{
name = bottom;
position = "{234, 0}";
},
{
name = top;
position = "{234, 680}";
},
{
name = topleft;
position = "{20, 680}";
}
);
associatedMasterId = "985FD43C-E2EB-4FA2-9714-12093F08C61F";
background = {
paths = (
{
closed = 1;
nodes = (
"421 0 LINE",
"421 32 LINE",
"399 32 LINE",
"399 648 LINE",
"421 648 LINE",
"421 680 LINE",
"319 680 LINE",
"319 648 LINE",
"341 648 LINE",
"341 32 LINE",
"319 32 LINE",
"319 0 LINE"
);
},
{
closed = 1;
nodes = (
"149 0 LINE",
"149 32 LINE",
"127 32 LINE",
"127 648 LINE",
"149 648 LINE",
"149 680 LINE",
"47 680 LINE",
"47 648 LINE",
"69 648 LINE",
"69 32 LINE",
"47 32 LINE",
"47 0 LINE"
);
},
{
closed = 1;
nodes = (
"361 451 LINE",
"361 483 LINE",
"107 483 LINE",
"107 451 LINE"
);
}
);
};
guideLines = (
{
angle = 90;
position = "{69, 20}";
},
{
angle = 90;
position = "{399, 648}";
},
{
position = "{15, 466}";
},
{
position = "{18, 483}";
},
{
position = "{13, 451}";
},
{
position = "{47, 648}";
},
{
angle = 90;
position = "{341, 648}";
}
);
layerId = "31418705-CECC-4B8F-B899-FAD5767B1D0C";
name = "Oct 29 18, 08:59";
paths = (
{
closed = 1;
nodes = (
"421 0 LINE",
"421 32 LINE",
"399 32 LINE",
"399 648 LINE",
"421 648 LINE",
"421 680 LINE",
"319 680 LINE",
"319 648 LINE",
"341 648 LINE",
"341 32 LINE",
"319 32 LINE",
"319 0 LINE"
);
},
{
closed = 1;
nodes = (
"149 0 LINE",
"149 32 LINE",
"127 32 LINE",
"127 648 LINE",
"149 648 LINE",
"149 680 LINE",
"47 680 LINE",
"47 648 LINE",
"69 648 LINE",
"69 32 LINE",
"47 32 LINE",
"47 0 LINE"
);
},
{
closed = 1;
nodes = (
"361 451 LINE",
"361 483 LINE",
"107 483 LINE",
"107 451 LINE"
);
}
);
width = 468;
}
);
leftKerningGroup = H;
rightKerningGroup = H;
unicode = 0048;
},
{
glyphname = Hbar;
lastChange = "2020-05-03 05:37:22 +0000";
layers = (
{
anchors = (
{
name = bottom;
position = "{234, 0}";
},
{
name = ogonek;
position = "{234, 10}";
},
{
name = top;
position = "{234, 680}";
},
{
name = topleft;
position = "{20, 680}";
}
);
hints = (
{
horizontal = 1;
origin = "{0, 5}";
target = "{0, 4}";
type = TTStem;
options = 4;
},
{
horizontal = 1;
origin = "{0, 4}";
target = "{0, 3}";
type = Align;
options = 4;
},
{
horizontal = 1;
origin = "{0, 4}";
target = "{0, 2}";
type = Align;
options = 4;
},
{
horizontal = 1;
origin = "{0, 5}";
target = "{0, 1}";
type = Align;
options = 4;
},
{
horizontal = 1;
origin = "{0, 5}";
target = "{0, 0}";
type = Align;
options = 4;
},
{
horizontal = 1;
origin = "{2, 6}";
target = "{2, 7}";
type = TTStem;
options = 4;
},
{
horizontal = 1;
origin = "{2, 11}";
target = "{2, 10}";
type = TTStem;
options = 4;
},
{
horizontal = 1;
origin = "{1, 11}";
target = "{1, 10}";
type = TTStem;
options = 4;
},
{
horizontal = 1;
origin = "{2, 3, 3, 0}";
target = "{2, 3, 3, 2}";
type = TTStem;
options = 4;
},
{
horizontal = 1;
origin = "{1, 6}";
target = "{1, 7}";
type = TTStem;
options = 4;
},
{
horizontal = 1;
origin = "{2, 7}";
target = "{2, 3}";
type = Align;
options = 4;
},
{
horizontal = 1;
origin = "{1, 7}";
target = "{1, 3}";
type = Align;
options = 4;
},
{
horizontal = 1;
origin = "{2, 10}";
target = "{2, 2}";
type = Align;
options = 4;
},
{
horizontal = 1;
origin = "{1, 10}";
target = "{1, 2}";
type = Align;
options = 4;
}
);
layerId = "985FD43C-E2EB-4FA2-9714-12093F08C61F";
paths = (
{
closed = 1;
nodes = (
"121 518 LINE",
"468 518 LINE",
"468 550 LINE",
"121 550 LINE",
"0 550 LINE",
"0 518 LINE"
);
},
{
closed = 1;
nodes = (
"421 0 LINE",
"421 32 LINE",
"399 32 LINE",
"399 648 LINE",
"421 648 LINE",
"421 680 LINE",
"319 680 LINE",
"319 648 LINE",
"341 648 LINE",
"341 32 LINE",
"319 32 LINE",
"319 0 LINE"
);
},
{
closed = 1;
nodes = (
"149 0 LINE",
"149 32 LINE",
"127 32 LINE",
"127 648 LINE",
"149 648 LINE",
"149 680 LINE",
"47 680 LINE",
"47 648 LINE",
"69 648 LINE",
"69 32 LINE",
"47 32 LINE",
"47 0 LINE"
);
},
{
closed = 1;
nodes = (
"361 388 LINE",
"361 420 LINE",
"107 420 LINE",
"107 388 LINE"
);
}
);
width = 468;
},
{
anchors = (
{
name = bottom;
position = "{245, 0}";
},
{
name = ogonek;
position = "{245, 10}";
},
{
name = top;
position = "{245, 680}";
},
{
name = topleft;
position = "{20, 680}";
}
);
background = {
components = (
{
name = H;
}
);
};
layerId = "79669AF3-7E96-4900-AB6D-33745B934CAA";
paths = (
{
closed = 1;
nodes = (
"171 450 LINE",
"490 450 LINE",
"490 528 LINE",
"172 528 LINE",
"0 528 LINE",
"0 450 LINE"
);
},
{
closed = 1;
nodes = (
"457 0 LINE",
"457 78 LINE",
"437 78 LINE",
"437 602 LINE",
"457 602 LINE",
"457 680 LINE",
"285 680 LINE",
"285 602 LINE",
"305 602 LINE",
"305 78 LINE",
"285 78 LINE",
"285 0 LINE"
);
},
{
closed = 1;
nodes = (
"205 0 LINE",
"205 78 LINE",
"185 78 LINE",
"185 602 LINE",
"205 602 LINE",
"205 680 LINE",
"33 680 LINE",
"33 602 LINE",
"53 602 LINE",
"53 78 LINE",
"33 78 LINE",
"33 0 LINE"
);
},
{
closed = 1;
nodes = (
"331 298 LINE",
"331 376 LINE",
"159 376 LINE",
"159 298 LINE"
);
}
);
width = 490;
}
);
leftKerningGroup = H;
rightKerningGroup = H;
unicode = 0126;
},
{
glyphname = I;
lastChange = "2020-04-16 19:27:39 +0000";
layers = (
{
anchors = (
{
name = bottom;
position = "{98, 0}";
},
{
name = ogonek;
position = "{98, 10}";
},
{
name = top;
position = "{98, 680}";
}
);
hints = (
{
horizontal = 1;
origin = "{0, 6}";
target = "{0, 7}";
type = TTStem;
options = 4;
},
{
horizontal = 1;
origin = "{0, 11}";
target = "{0, 10}";
type = TTStem;
options = 4;
},
{
horizontal = 1;
origin = "{0, 10}";
target = "{0, 2}";
type = Align;
options = 4;
},
{
horizontal = 1;
origin = "{0, 7}";
target = "{0, 3}";
type = Align;
options = 4;
}
);
layerId = "985FD43C-E2EB-4FA2-9714-12093F08C61F";
paths = (
{
closed = 1;
nodes = (
"149 0 LINE",
"149 32 LINE",
"127 32 LINE",
"127 648 LINE",
"149 648 LINE",
"149 680 LINE",
"47 680 LINE",
"47 648 LINE",
"69 648 LINE",
"69 32 LINE",
"47 32 LINE",
"47 0 LINE"
);
}
);
width = 196;
},
{
anchors = (
{
name = bottom;
position = "{119, 0}";
},
{
name = ogonek;
position = "{119, 10}";
},
{
name = top;
position = "{119, 680}";
}
);
guideLines = (
{
angle = 90;
position = "{33, 34}";
},
{
angle = 270;
position = "{205, 34}";
}
);
layerId = "79669AF3-7E96-4900-AB6D-33745B934CAA";
paths = (
{
closed = 1;
nodes = (
"205 0 LINE",
"205 78 LINE",
"185 78 LINE",
"185 602 LINE",
"205 602 LINE",
"205 680 LINE",
"33 680 LINE",
"33 602 LINE",
"53 602 LINE",
"53 78 LINE",
"33 78 LINE",
"33 0 LINE"
);
}
);
width = 238;
}
);
leftKerningGroup = H;
leftMetricsKey = H;
rightKerningGroup = H;
rightMetricsKey = H;
unicode = 0049;
},
{
glyphname = Ibreve;
lastChange = "2020-04-16 19:27:59 +0000";
layers = (
{
components = (
{
name = I;
}
);
hints = (
{
horizontal = 1;
origin = "{0, 13}";
target = "{0, 6}";
type = TTStem;
options = 4;
},
{
horizontal = 1;
origin = "{0, 10}";
type = Anchor;
},
{
horizontal = 1;
origin = "{0, 3}";
type = Anchor;
}
);
layerId = "985FD43C-E2EB-4FA2-9714-12093F08C61F";
paths = (
{
closed = 1;
nodes = (
"151 746 OFFCURVE",
"199 782 OFFCURVE",
"203 870 CURVE",
"167 870 LINE",
"164 813 OFFCURVE",
"131 794 OFFCURVE",
"98 794 CURVE SMOOTH",
"65 794 OFFCURVE",
"32 813 OFFCURVE",
"29 870 CURVE",
"-7 870 LINE",
"-3 782 OFFCURVE",
"45 746 OFFCURVE",
"98 746 CURVE SMOOTH"
);
}
);
width = 196;
},
{
components = (
{
name = I;
}
);
layerId = "79669AF3-7E96-4900-AB6D-33745B934CAA";
paths = (
{
closed = 1;
nodes = (
"184 746 OFFCURVE",
"241 788 OFFCURVE",
"243 900 CURVE",
"160 900 LINE",
"158 850 OFFCURVE",
"138 836 OFFCURVE",
"119 836 CURVE SMOOTH",
"100 836 OFFCURVE",
"80 850 OFFCURVE",
"78 900 CURVE",
"-5 900 LINE",
"-3 788 OFFCURVE",
"54 746 OFFCURVE",
"119 746 CURVE SMOOTH"
);
}
);
width = 238;
}
);
leftKerningGroup = H;
rightKerningGroup = H;
unicode = 012C;
},
{
glyphname = Icaron;
lastChange = "2020-04-17 23:50:16 +0000";
layers = (
{
components = (
{
name = I;
}
);
hints = (
{
horizontal = 1;
origin = "{0, 6}";
target = "{0, 3}";
type = Align;
options = 4;
},
{
horizontal = 1;
origin = "{0, 0}";
target = "{0, 6}";
type = TTStem;
stem = -1;
options = 4;
},
{
horizontal = 1;
origin = "{0, 6}";
target = "{0, 0}";
other1 = "{0, 4, 0, 6}";
type = Interpolate;
options = 4;
}
);
layerId = "985FD43C-E2EB-4FA2-9714-12093F08C61F";
paths = (
{
closed = 1;
nodes = (
"79 750 LINE",
"117 750 LINE",
"202 905 LINE",
"164 905 LINE",
"79 795 LINE",
"117 795 LINE",
"32 905 LINE",
"-6 905 LINE"
);
}
);
width = 196;
},
{
components = (
{
name = I;
}
);
layerId = "79669AF3-7E96-4900-AB6D-33745B934CAA";
paths = (
{
closed = 1;
nodes = (
"80 750 LINE",
"158 750 LINE",
"243 915 LINE",
"162 915 LINE",
"97 819 LINE",
"141 819 LINE",
"76 915 LINE",
"-5 915 LINE"
);
}
);
width = 238;
}
);
leftKerningGroup = H;
rightKerningGroup = H;
unicode = 01CF;
},
{
glyphname = Icircumflex;
lastChange = "2020-04-17 23:54:38 +0000";
layers = (
{
components = (
{
name = I;
}
);
hints = (
{
horizontal = 1;
origin = "{0, 0}";
target = "{0, 6}";
type = TTStem;
stem = -1;
options = 4;
},
{
horizontal = 1;
origin = "{0, 6}";
target = "{0, 0}";
other1 = "{0, 1, 0, 3}";
type = Interpolate;
options = 4;
}
);
layerId = "985FD43C-E2EB-4FA2-9714-12093F08C61F";
paths = (
{
closed = 1;
nodes = (
"32 750 LINE",
"117 860 LINE",
"79 860 LINE",
"164 750 LINE",
"202 750 LINE",
"117 905 LINE",
"79 905 LINE",
"-6 750 LINE"
);
}
);
width = 196;
},
{
components = (
{
name = I;
}
);
layerId = "79669AF3-7E96-4900-AB6D-33745B934CAA";
paths = (
{
closed = 1;
nodes = (
"76 750 LINE",
"141 846 LINE",
"97 846 LINE",
"162 750 LINE",
"243 750 LINE",
"158 915 LINE",
"80 915 LINE",
"-5 750 LINE"
);
}
);
width = 238;
}
);
leftKerningGroup = H;
rightKerningGroup = H;
unicode = 00CE;
},
{
glyphname = Idieresis;
lastChange = "2018-11-01 17:06:34 +0000";
layers = (
{
components = (
{
name = I;
}
);
layerId = "985FD43C-E2EB-4FA2-9714-12093F08C61F";
paths = (
{
closed = 1;
nodes = (
"52 746 OFFCURVE",
"71 763 OFFCURVE",
"71 786 CURVE SMOOTH",
"71 809 OFFCURVE",
"52 826 OFFCURVE",
"31 826 CURVE SMOOTH",
"10 826 OFFCURVE",
"-9 809 OFFCURVE",
"-9 786 CURVE SMOOTH",
"-9 763 OFFCURVE",
"10 746 OFFCURVE",
"31 746 CURVE SMOOTH"
);
},
{
closed = 1;
nodes = (
"186 746 OFFCURVE",
"205 763 OFFCURVE",
"205 786 CURVE SMOOTH",
"205 809 OFFCURVE",
"186 826 OFFCURVE",
"165 826 CURVE SMOOTH",
"144 826 OFFCURVE",
"125 809 OFFCURVE",
"125 786 CURVE SMOOTH",
"125 763 OFFCURVE",
"144 746 OFFCURVE",
"165 746 CURVE SMOOTH"
);
}
);
width = 196;
},
{
components = (
{
name = I;
}
);
layerId = "79669AF3-7E96-4900-AB6D-33745B934CAA";
paths = (
{
closed = 1;
nodes = (
"68 740 OFFCURVE",
"103 771 OFFCURVE",
"103 813 CURVE SMOOTH",
"103 855 OFFCURVE",
"68 886 OFFCURVE",
"30 886 CURVE SMOOTH",
"-8 886 OFFCURVE",
"-43 855 OFFCURVE",
"-43 813 CURVE SMOOTH",
"-43 771 OFFCURVE",
"-8 740 OFFCURVE",
"30 740 CURVE SMOOTH"
);
},
{
closed = 1;
nodes = (
"246 740 OFFCURVE",
"281 771 OFFCURVE",
"281 813 CURVE SMOOTH",
"281 855 OFFCURVE",
"246 886 OFFCURVE",
"208 886 CURVE SMOOTH",
"170 886 OFFCURVE",
"135 855 OFFCURVE",
"135 813 CURVE SMOOTH",
"135 771 OFFCURVE",
"170 740 OFFCURVE",
"208 740 CURVE SMOOTH"
);
}
);
width = 238;
}
);
leftKerningGroup = H;
rightKerningGroup = H;
unicode = 00CF;
},
{
glyphname = Imacron;
lastChange = "2020-04-16 19:29:46 +0000";
layers = (
{
components = (
{
name = I;
}
);
hints = (
{
horizontal = 1;
origin = "{0, 0}";
target = "{0, 3}";
type = TTStem;
options = 4;
}
);
layerId = "985FD43C-E2EB-4FA2-9714-12093F08C61F";
paths = (
{
closed = 1;
nodes = (
"5 750 LINE",
"191 750 LINE",
"191 796 LINE",
"5 796 LINE"
);
}
);
width = 196;
},
{
components = (
{
name = I;
}
);
layerId = "79669AF3-7E96-4900-AB6D-33745B934CAA";
paths = (
{
closed = 1;
nodes = (
"10 750 LINE",
"228 750 LINE",
"228 828 LINE",
"10 828 LINE"
);
}
);
width = 238;
}
);
leftKerningGroup = H;
rightKerningGroup = H;
unicode = 012A;
},
{
glyphname = Itilde;
lastChange = "2020-04-16 21:07:34 +0000";
layers = (
{
components = (
{
name = I;
}
);
hints = (
{
horizontal = 1;
origin = "{0, 9}";
target = "{0, 3}";
type = Align;
options = 4;
},
{
horizontal = 1;
origin = "{0, 19}";
target = "{0, 13}";
type = Align;
options = 4;
}
);
layerId = "985FD43C-E2EB-4FA2-9714-12093F08C61F";
paths = (
{
closed = 1;
nodes = (
"184 746 OFFCURVE",
"211 778 OFFCURVE",
"213 834 CURVE",
"181 834 LINE",
"177 802 OFFCURVE",
"165 790 OFFCURVE",
"146 790 CURVE SMOOTH",
"117 790 OFFCURVE",
"107 838 OFFCURVE",
"59 838 CURVE SMOOTH",
"12 838 OFFCURVE",
"-15 806 OFFCURVE",
"-17 750 CURVE",
"15 750 LINE",
"19 782 OFFCURVE",
"31 794 OFFCURVE",
"49 794 CURVE SMOOTH",
"78 794 OFFCURVE",
"89 746 OFFCURVE",
"137 746 CURVE SMOOTH"
);
}
);
width = 196;
},
{
components = (
{
name = I;
}
);
layerId = "79669AF3-7E96-4900-AB6D-33745B934CAA";
paths = (
{
closed = 1;
nodes = (
"218 742 OFFCURVE",
"254 787 OFFCURVE",
"254 861 CURVE",
"193 861 LINE",
"189 830 OFFCURVE",
"181 821 OFFCURVE",
"166 821 CURVE SMOOTH",
"155 821 OFFCURVE",
"125 869 OFFCURVE",
"85 869 CURVE SMOOTH",
"26 869 OFFCURVE",
"-10 824 OFFCURVE",
"-10 750 CURVE",
"51 750 LINE",
"55 780 OFFCURVE",
"64 790 OFFCURVE",
"77 790 CURVE SMOOTH",
"91 790 OFFCURVE",
"117 742 OFFCURVE",
"159 742 CURVE SMOOTH"
);
}
);
width = 238;
}
);
leftKerningGroup = H;
rightKerningGroup = H;
unicode = 0128;
},
{
glyphname = J;
lastChange = "2020-04-16 19:30:35 +0000";
layers = (
{
anchors = (
{
name = bottom;
position = "{79, 0}";
},
{
name = ogonek;
position = "{69, 30}";
},
{
name = top;
position = "{117, 680}";
}
);
background = {
components = (
{
name = H;
}
);
guideLines = (
{
angle = 90;
position = "{360, 160}";
},
{
position = "{230, 32}";
}
);
};
hints = (
{
horizontal = 1;
origin = "{0, 7}";
target = "{0, 8}";
type = TTStem;
options = 4;
},
{
horizontal = 1;
origin = "{0, 8}";
target = "{0, 4}";
type = Align;
options = 4;
},
{
horizontal = 1;
origin = "{0, 15}";
target = "{0, 14}";
type = TTStem;
options = 4;
}
);
layerId = "985FD43C-E2EB-4FA2-9714-12093F08C61F";
paths = (
{
closed = 1;
nodes = (
"27 0 LINE SMOOTH",
"107 0 OFFCURVE",
"146 41 OFFCURVE",
"146 123 CURVE SMOOTH",
"146 648 LINE",
"168 648 LINE",
"168 680 LINE",
"66 680 LINE",
"66 648 LINE",
"88 648 LINE",
"88 123 LINE SMOOTH",
"88 61 OFFCURVE",
"69 32 OFFCURVE",
"22 32 CURVE SMOOTH",
"12 32 LINE",
"12 0 LINE"
);
}
);
width = 215;
},
{
anchors = (
{
name = bottom;
position = "{106, 0}";
},
{
name = ogonek;
position = "{97, 40}";
},
{
name = top;
position = "{146, 680}";
}
);
layerId = "79669AF3-7E96-4900-AB6D-33745B934CAA";
paths = (
{
closed = 1;
nodes = (
"20 0 LINE SMOOTH",
"150 0 OFFCURVE",
"212 60 OFFCURVE",
"212 179 CURVE SMOOTH",
"212 602 LINE",
"232 602 LINE",
"232 680 LINE",
"60 680 LINE",
"60 602 LINE",
"80 602 LINE",
"80 184 LINE SMOOTH",
"80 105 OFFCURVE",
"60 78 OFFCURVE",
"10 78 CURVE SMOOTH",
"0 78 LINE",
"0 0 LINE"
);
}
);
width = 265;
}
);
leftKerningGroup = J;
rightKerningGroup = H;
rightMetricsKey = I;
unicode = 004A;
},
{
glyphname = K;
lastChange = "2020-04-18 00:42:02 +0000";
layers = (
{
associatedMasterId = "985FD43C-E2EB-4FA2-9714-12093F08C61F";
background = {
guideLines = (
{
position = "{10, 340}";
}
);
paths = (
{
closed = 1;
nodes = (
"79 20 LINE",
"137 20 LINE",
"137 660 LINE",
"79 660 LINE"
);
},
{
closed = 1;
nodes = (
"57 648 LINE",
"159 648 LINE",
"159 680 LINE",
"57 680 LINE"
);
},
{
closed = 1;
nodes = (
"57 0 LINE",
"159 0 LINE",
"159 32 LINE",
"57 32 LINE"
);
},
{
closed = 1;
nodes = (
"333 648 LINE",
"412 648 LINE",
"412 680 LINE",
"333 680 LINE"
);
},
{
closed = 1;
nodes = (
"135 216 LINE",
"163 203 LINE",
"392 652 LINE",
"360 657 LINE"
);
},
{
closed = 1;
nodes = (
"331 0 LINE",
"403 0 LINE",
"403 32 LINE",
"336 32 LINE",
"400 14 LINE",
"159 252 LINE",
"132 206 LINE"
);
}
);
};
guideLines = (
{
position = "{13, 216}";
},
{
position = "{13, 200}";
},
{
position = "{13, 232}";
},
{
position = "{10, 340}";
},
{
angle = 90;
position = "{108, 377}";
},
{
angle = -69.6291;
position = "{108, 680}";
},
{
position = "{10, 466}";
},
{
position = "{10, 483}";
},
{
position = "{10, 451}";
},
{
angle = 90;
position = "{403, 165}";
}
);
layerId = "610C9A3E-AD57-4923-BE25-B3F59B0FF76F";
name = "Sep 17 18, 12:23";
paths = (
{
closed = 1;
nodes = (
"79 20 LINE",
"137 20 LINE",
"137 660 LINE",
"79 660 LINE"
);
},
{
closed = 1;
nodes = (
"57 648 LINE",
"159 648 LINE",
"159 680 LINE",
"57 680 LINE"
);
},
{
closed = 1;
nodes = (
"57 0 LINE",
"159 0 LINE",
"159 32 LINE",
"57 32 LINE"
);
},
{
closed = 1;
nodes = (
"308 648 LINE",
"403 648 LINE",
"403 680 LINE",
"308 680 LINE"
);
},
{
closed = 1;
nodes = (
"111 466 LINE",
"131 442 LINE",
"381 649 LINE",
"338 655 LINE"
);
},
{
closed = 1;
nodes = (
"331 0 LINE",
"403 0 LINE",
"403 32 LINE",
"371 32 LINE",
"388 14 LINE",
"201 504 LINE",
"157 474 LINE"
);
}
);
width = 437;
},
{
anchors = (
{
name = bottom;
position = "{220, 0}";
},
{
name = ogonek;
position = "{220, 10}";
},
{
name = top;
position = "{220, 680}";
}
);
background = {
paths = (
{
closed = 1;
nodes = (
"393 0 LINE",
"393 32 LINE",
"355 32 LINE",
"382 22 LINE",
"149 256 LINE",
"122 210 LINE",
"321 0 LINE"
);
}
);
};
guideLines = (
{
position = "{3, 216}";
},
{
position = "{3, 200}";
},
{
position = "{3, 232}";
},
{
angle = 90;
position = "{393, 32}";
},
{
angle = 43.4594;
position = "{320, 0}";
showMeasurement = 1;
},
{
angle = 43.4594;
position = "{149, 173}";
showMeasurement = 1;
}
);
hints = (
{
horizontal = 1;
origin = "{0, 19}";
target = "{0, 20}";
type = TTStem;
options = 4;
},
{
horizontal = 1;
origin = "{0, 24}";
target = "{0, 23}";
type = TTStem;
options = 4;
},
{
horizontal = 1;
origin = "{0, 12}";
target = "{0, 13}";
type = TTStem;
options = 4;
},
{
horizontal = 1;
origin = "{0, 5}";
target = "{0, 6}";
type = TTStem;
options = 4;
},
{
horizontal = 1;
origin = "{0, 20}";
target = "{0, 17}";
type = Align;
options = 4;
},
{
horizontal = 1;
origin = "{0, 13}";
target = "{0, 10}";
type = Align;
options = 4;
},
{
horizontal = 1;
origin = "{0, 23}";
target = "{0, 2}";
type = Align;
options = 4;
}
);
layerId = "985FD43C-E2EB-4FA2-9714-12093F08C61F";
paths = (
{
closed = 1;
nodes = (
"149 0 LINE",
"149 32 LINE",
"127 32 LINE",
"127 206 LINE",
"323 0 LINE",
"393 0 LINE",
"393 32 LINE",
"372 32 LINE",
"171 244 LINE",
"371 648 LINE",
"393 648 LINE",
"393 680 LINE",
"314 680 LINE",
"314 648 LINE",
"337 648 LINE",
"127 224 LINE",
"127 648 LINE",
"149 648 LINE",
"149 680 LINE",
"47 680 LINE",
"47 648 LINE",
"69 648 LINE",
"69 32 LINE",
"47 32 LINE",
"47 0 LINE"
);
}
);
width = 403;
},
{
anchors = (
{
name = bottom;
position = "{245, 0}";
},
{
name = ogonek;
position = "{245, 10}";
},
{
name = top;
position = "{245, 680}";
}
);
background = {
paths = (
{
closed = 1;
nodes = (
"457 0 LINE",
"457 78 LINE",
"423 78 LINE",
"446 69 LINE",
"229 317 LINE",
"148 210 LINE",
"330 0 LINE"
);
}
);
};
guideLines = (
{
position = "{15, 259}";
},
{
position = "{15, 181}";
},
{
position = "{15, 220}";
},
{
angle = 90;
position = "{457, 78}";
},
{
angle = 40.9144;
position = "{305, 0}";
showMeasurement = 1;
},
{
angle = 40.9144;
position = "{186, 146}";
showMeasurement = 1;
}
);
layerId = "79669AF3-7E96-4900-AB6D-33745B934CAA";
paths = (
{
closed = 1;
nodes = (
"205 0 LINE",
"205 78 LINE",
"185 78 LINE",
"185 174 LINE",
"341 0 LINE",
"462 0 LINE",
"462 78 LINE",
"443 78 LINE",
"256 286 LINE",
"438 602 LINE",
"457 602 LINE",
"457 680 LINE",
"327 680 LINE",
"327 602 LINE",
"348 602 LINE",
"185 320 LINE",
"185 602 LINE",
"205 602 LINE",
"205 680 LINE",
"33 680 LINE",
"33 602 LINE",
"53 602 LINE",
"53 78 LINE",
"33 78 LINE",
"33 0 LINE"
);
}
);
width = 477;
},
{
anchors = (
{
name = bottom;
position = "{220, 0}";
},
{
name = ogonek;
position = "{220, 10}";
},
{
name = top;
position = "{220, 680}";
}
);
associatedMasterId = "985FD43C-E2EB-4FA2-9714-12093F08C61F";
background = {
paths = (
{
closed = 1;
nodes = (
"393 0 LINE",
"393 32 LINE",
"355 32 LINE",
"382 22 LINE",
"149 256 LINE",
"122 210 LINE",
"321 0 LINE"
);
}
);
};
guideLines = (
{
position = "{3, 216}";
},
{
position = "{3, 200}";
},
{
position = "{3, 232}";
},
{
angle = 90;
position = "{393, 32}";
},
{
angle = 43.4594;
position = "{320, 0}";
showMeasurement = 1;
},
{
angle = 43.4594;
position = "{149, 173}";
showMeasurement = 1;
}
);
hints = (
{
horizontal = 1;
origin = "{1, 6}";
target = "{1, 7}";
type = TTStem;
options = 4;
},
{
horizontal = 1;
origin = "{1, 11}";
target = "{1, 10}";
type = TTStem;
options = 4;
},
{
horizontal = 1;
origin = "{3, 2}";
target = "{3, 3}";
type = TTStem;
options = 4;
},
{
horizontal = 1;
origin = "{2, 0}";
target = "{2, 1}";
type = TTStem;
options = 4;
},
{
horizontal = 1;
origin = "{1, 7}";
target = "{1, 4}";
type = Align;
options = 4;
},
{
horizontal = 1;
origin = "{3, 3}";
target = "{0, 0, 3, 0}";
type = Align;
options = 4;
},
{
horizontal = 1;
origin = "{1, 10}";
target = "{1, 2}";
type = Align;
options = 4;
},
{
horizontal = 1;
origin = "{3, 2}";
target = "{2, 0}";
other1 = "{0, 2, 1, 3}";
type = Interpolate;
options = 4;
}
);
layerId = "37EA1365-1C21-49C7-B2E2-322A4D8B283F";
name = "Apr 16 20, 15:30";
paths = (
{
closed = 1;
nodes = (
"373 652 LINE",
"341 657 LINE",
"123 216 LINE",
"151 203 LINE"
);
},
{
closed = 1;
nodes = (
"149 0 LINE",
"149 32 LINE",
"127 32 LINE",
"127 648 LINE",
"149 648 LINE",
"149 680 LINE",
"47 680 LINE",
"47 648 LINE",
"69 648 LINE",
"69 32 LINE",
"47 32 LINE",
"47 0 LINE"
);
},
{
closed = 1;
nodes = (
"393 0 LINE",
"393 32 LINE",
"360 32 LINE",
"382 22 LINE",
"163 252 LINE",
"123 210 LINE",
"323 0 LINE"
);
},
{
closed = 1;
nodes = (
"393 648 LINE",
"393 680 LINE",
"314 680 LINE",
"314 648 LINE"
);
}
);
width = 403;
},
{
anchors = (
{
name = bottom;
position = "{245, 0}";
},
{
name = ogonek;
position = "{245, 10}";
},
{
name = top;
position = "{245, 680}";
}
);
associatedMasterId = "79669AF3-7E96-4900-AB6D-33745B934CAA";
background = {
paths = (
{
closed = 1;
nodes = (
"457 0 LINE",
"457 78 LINE",
"423 78 LINE",
"446 69 LINE",
"229 317 LINE",
"148 210 LINE",
"330 0 LINE"
);
}
);
};
guideLines = (
{
position = "{15, 259}";
},
{
position = "{15, 181}";
},
{
position = "{15, 220}";
},
{
angle = 90;
position = "{457, 78}";
},
{
angle = 40.9144;
position = "{305, 0}";
showMeasurement = 1;
},
{
angle = 40.9144;
position = "{186, 146}";
showMeasurement = 1;
}
);
layerId = "D1CA82A9-6DDD-4D66-83AF-49623B16532B";
name = "Apr 16 20, 15:57";
paths = (
{
closed = 1;
nodes = (
"444 613 LINE",
"357 618 LINE",
"127 220 LINE",
"210 207 LINE"
);
},
{
closed = 1;
nodes = (
"205 0 LINE",
"205 78 LINE",
"185 78 LINE",
"185 602 LINE",
"205 602 LINE",
"205 680 LINE",
"33 680 LINE",
"33 602 LINE",
"53 602 LINE",
"53 78 LINE",
"33 78 LINE",
"33 0 LINE"
);
},
{
closed = 1;
nodes = (
"462 0 LINE",
"462 78 LINE",
"428 78 LINE",
"451 69 LINE",
"223 323 LINE",
"153 210 LINE",
"341 0 LINE"
);
},
{
closed = 1;
nodes = (
"457 602 LINE",
"457 680 LINE",
"327 680 LINE",
"327 602 LINE"
);
}
);
width = 477;
}
);
leftKerningGroup = H;
leftMetricsKey = H;
rightKerningGroup = K;
unicode = 004B;
},
{
glyphname = L;
lastChange = "2020-04-17 17:42:25 +0000";
layers = (
{
anchors = (
{
name = bottom;
position = "{182, 0}";
},
{
name = ogonek;
position = "{182, 10}";
},
{
name = top;
position = "{98, 680}";
}
);
guideLines = (
{
angle = 90;
position = "{399, 648}";
},
{
angle = 90;
position = "{341, 648}";
}
);
hints = (
{
horizontal = 1;
origin = "{0, 8}";
target = "{0, 9}";
type = TTStem;
options = 4;
},
{
horizontal = 1;
origin = "{0, 9}";
target = "{0, 5}";
type = Align;
options = 4;
},
{
horizontal = 1;
origin = "{0, 13}";
target = "{0, 12}";
type = TTStem;
options = 4;
},
{
horizontal = 1;
origin = "{0, 12}";
target = "{0, 4}";
type = Align;
options = 4;
},
{
horizontal = 1;
origin = "{0, 2}";
type = Anchor;
options = 1;
}
);
layerId = "985FD43C-E2EB-4FA2-9714-12093F08C61F";
paths = (
{
closed = 1;
nodes = (
"317 0 LINE",
"317 83 LINE",
"281 83 LINE",
"281 32 LINE",
"127 32 LINE",
"127 648 LINE",
"149 648 LINE",
"149 680 LINE",
"47 680 LINE",
"47 648 LINE",
"69 648 LINE",
"69 32 LINE",
"47 32 LINE",
"47 0 LINE"
);
}
);
width = 337;
},
{
anchors = (
{
name = bottom;
position = "{212, 0}";
},
{
name = ogonek;
position = "{212, 10}";
},
{
name = top;
position = "{119, 680}";
}
);
guideLines = (
{
angle = 90;
position = "{437, 602}";
},
{
angle = 90;
position = "{53, 602}";
},
{
angle = 90;
position = "{305, 340}";
},
{
angle = 90;
position = "{371, 602}";
}
);
layerId = "79669AF3-7E96-4900-AB6D-33745B934CAA";
rightMetricsKey = "=12";
paths = (
{
closed = 1;
nodes = (
"391 0 LINE",
"391 128 LINE",
"265 128 LINE",
"265 78 LINE",
"185 78 LINE",
"185 602 LINE",
"205 602 LINE",
"205 680 LINE",
"33 680 LINE",
"33 602 LINE",
"53 602 LINE",
"53 78 LINE",
"33 78 LINE",
"33 0 LINE"
);
}
);
width = 403;
}
);
leftKerningGroup = H;
leftMetricsKey = I;
rightKerningGroup = L;
unicode = 004C;
},
{
glyphname = Lcaron;
lastChange = "2020-04-16 19:32:52 +0000";
layers = (
{
components = (
{
name = L;
}
);
guideLines = (
{
angle = 90;
position = "{317, 83}";
},
{
angle = 90;
position = "{281, 83}";
}
);
hints = (
{
horizontal = 1;
origin = "{0, 13}";
type = Anchor;
},
{
horizontal = 1;
origin = "{0, 5}";
type = Anchor;
}
);
layerId = "985FD43C-E2EB-4FA2-9714-12093F08C61F";
paths = (
{
closed = 1;
nodes = (
"248 650 OFFCURVE",
"253 616 OFFCURVE",
"253 582 CURVE SMOOTH",
"253 549 OFFCURVE",
"248 514 OFFCURVE",
"238 484 CURVE",
"286 484 LINE",
"296 514 OFFCURVE",
"301 549 OFFCURVE",
"301 582 CURVE SMOOTH",
"301 616 OFFCURVE",
"296 650 OFFCURVE",
"286 680 CURVE",
"238 680 LINE"
);
}
);
width = 337;
},
{
components = (
{
name = L;
}
);
guideLines = (
{
angle = 90;
position = "{391, 128}";
}
);
layerId = "79669AF3-7E96-4900-AB6D-33745B934CAA";
paths = (
{
closed = 1;
nodes = (
"267 651 OFFCURVE",
"272 619 OFFCURVE",
"272 586 CURVE SMOOTH",
"272 554 OFFCURVE",
"267 521 OFFCURVE",
"257 492 CURVE",
"368 492 LINE",
"378 521 OFFCURVE",
"383 554 OFFCURVE",
"383 586 CURVE SMOOTH",
"383 619 OFFCURVE",
"378 651 OFFCURVE",
"368 680 CURVE",
"257 680 LINE"
);
}
);
width = 403;
}
);
leftKerningGroup = H;
unicode = 013D;
},
{
glyphname = Ldot;
lastChange = "2018-11-01 16:11:11 +0000";
layers = (
{
components = (
{
name = L;
}
);
layerId = "985FD43C-E2EB-4FA2-9714-12093F08C61F";
paths = (
{
closed = 1;
nodes = (
"288 299 OFFCURVE",
"307 316 OFFCURVE",
"307 340 CURVE SMOOTH",
"307 364 OFFCURVE",
"288 381 OFFCURVE",
"266 381 CURVE SMOOTH",
"244 381 OFFCURVE",
"225 364 OFFCURVE",
"225 340 CURVE SMOOTH",
"225 316 OFFCURVE",
"244 299 OFFCURVE",
"266 299 CURVE SMOOTH"
);
}
);
width = 337;
},
{
components = (
{
name = L;
}
);
layerId = "79669AF3-7E96-4900-AB6D-33745B934CAA";
paths = (
{
closed = 1;
nodes = (
"357 269 OFFCURVE",
"391 299 OFFCURVE",
"391 340 CURVE SMOOTH",
"391 381 OFFCURVE",
"357 411 OFFCURVE",
"320 411 CURVE SMOOTH",
"283 411 OFFCURVE",
"249 381 OFFCURVE",
"249 340 CURVE SMOOTH",
"249 299 OFFCURVE",
"283 269 OFFCURVE",
"320 269 CURVE SMOOTH"
);
}
);
width = 403;
}
);
leftKerningGroup = H;
unicode = 013F;
},
{
glyphname = Lslash;
lastChange = "2018-11-01 16:11:06 +0000";
layers = (
{
background = {
paths = (
{
closed = 1;
nodes = (
"281 407 LINE",
"281 441 LINE",
"47 356 LINE",
"47 322 LINE"
);
}
);
};
components = (
{
locked = 1;
name = L;
}
);
guideLines = (
{
angle = 90;
position = "{47, 648}";
},
{
angle = 90;
position = "{281, 83}";
},
{
position = "{209, 340}";
},
{
angle = 90;
position = "{79, 398}";
},
{
angle = 90;
position = "{117, 398}";
}
);
layerId = "985FD43C-E2EB-4FA2-9714-12093F08C61F";
paths = (
{
closed = 1;
nodes = (
"117 344 LINE",
"281 403 LINE",
"281 437 LINE",
"117 378 LINE"
);
},
{
closed = 1;
nodes = (
"79 368 LINE",
"27 349 LINE",
"27 315 LINE",
"79 334 LINE"
);
}
);
width = 337;
},
{
background = {
paths = (
{
closed = 1;
nodes = (
"328 419 LINE",
"328 501 LINE",
"33 392 LINE",
"33 310 LINE"
);
}
);
};
components = (
{
locked = 1;
name = L;
}
);
guideLines = (
{
angle = 90;
position = "{33, 602}";
},
{
angle = 90;
position = "{265, 128}";
},
{
angle = 90;
position = "{391, 128}";
},
{
angle = 90;
position = "{328, 190}";
},
{
position = "{209, 340}";
},
{
angle = 90;
position = "{175, 603}";
},
{
angle = 90;
position = "{63, 602}";
}
);
layerId = "79669AF3-7E96-4900-AB6D-33745B934CAA";
paths = (
{
closed = 1;
nodes = (
"175 353 LINE",
"328 409 LINE",
"328 491 LINE",
"175 435 LINE"
);
},
{
closed = 1;
nodes = (
"63 404 LINE",
"13 385 LINE",
"13 303 LINE",
"63 322 LINE"
);
}
);
width = 403;
}
);
leftKerningGroup = H;
unicode = 0141;
},
{
glyphname = M;
lastChange = "2020-04-28 02:08:29 +0000";
layers = (
{
anchors = (
{
name = bottom;
position = "{254, 0}";
},
{
name = ogonek;
position = "{254, 10}";
},
{
name = top;
position = "{253, 680}";
}
);
guideLines = (
{
angle = 180;
position = "{15, 198}";
showMeasurement = 1;
},
{
angle = -21.2671;
position = "{346, 442}";
showMeasurement = 1;
}
);
hints = (
{
horizontal = 1;
origin = "{0, 3}";
target = "{0, 4}";
type = TTStem;
options = 4;
},
{
horizontal = 1;
origin = "{0, 8}";
target = "{0, 7}";
type = TTStem;
options = 4;
},
{
horizontal = 1;
origin = "{0, 18}";
target = "{0, 17}";
type = TTStem;
options = 4;
},
{
horizontal = 1;
origin = "{0, 7}";
target = "{0, 11}";
type = Align;
options = 4;
},
{
horizontal = 1;
origin = "{0, 17}";
target = "{0, 21}";
type = Align;
options = 4;
},
{
horizontal = 1;
origin = "{0, 24}";
target = "{0, 23}";
type = TTStem;
options = 4;
},
{
horizontal = 1;
origin = "{0, 4}";
target = "{0, 7}";
other1 = "{0, 13}";
type = Interpolate;
options = 4;
},
{
horizontal = 1;
origin = "{0, 13}";
target = "{0, 1}";
type = TTStem;
stem = -1;
options = 4;
}
);
layerId = "985FD43C-E2EB-4FA2-9714-12093F08C61F";
paths = (
{
closed = 1;
nodes = (
"375 680 LINE",
"257 375 LINE",
"139 680 LINE",
"42 680 LINE",
"42 648 LINE",
"65 648 LINE",
"65 32 LINE",
"43 32 LINE",
"43 0 LINE",
"121 0 LINE",
"121 32 LINE",
"99 32 LINE",
"99 605 LINE",
"226 277 LINE",
"256 277 LINE",
"384 608 LINE",
"384 32 LINE",
"362 32 LINE",
"362 0 LINE",
"464 0 LINE",
"464 32 LINE",
"442 32 LINE",
"442 648 LINE",
"464 648 LINE",
"464 680 LINE"
);
}
);
width = 511;
},
{
anchors = (
{
name = bottom;
position = "{307, 0}";
},
{
name = ogonek;
position = "{307, 10}";
},
{
name = top;
position = "{307, 680}";
}
);
background = {
paths = (
{
closed = 1;
nodes = (
"312 277 LINE",
"468 680 LINE",
"380 680 LINE",
"294 459 LINE",
"309 459 LINE",
"223 680 LINE",
"86 680 LINE",
"242 277 LINE"
);
},
{
closed = 1;
nodes = (
"157 0 LINE",
"157 78 LINE",
"31 78 LINE",
"31 0 LINE"
);
},
{
closed = 1;
nodes = (
"135 63 LINE",
"135 617 LINE",
"53 617 LINE",
"53 63 LINE"
);
},
{
closed = 1;
nodes = (
"573 0 LINE",
"573 78 LINE",
"397 78 LINE",
"397 0 LINE"
);
},
{
closed = 1;
nodes = (
"160 602 LINE",
"160 680 LINE",
"30 680 LINE",
"30 602 LINE"
);
},
{
closed = 1;
nodes = (
"551 66 LINE",
"551 614 LINE",
"419 614 LINE",
"419 66 LINE"
);
},
{
closed = 1;
nodes = (
"573 602 LINE",
"573 680 LINE",
"430 680 LINE",
"430 602 LINE"
);
}
);
};
guideLines = (
{
angle = -19.8998;
position = "{299, 537}";
showMeasurement = 1;
}
);
layerId = "79669AF3-7E96-4900-AB6D-33745B934CAA";
paths = (
{
closed = 1;
nodes = (
"381 680 LINE",
"307 474 LINE",
"232 680 LINE",
"30 680 LINE",
"30 602 LINE",
"53 602 LINE",
"53 78 LINE",
"31 78 LINE",
"31 0 LINE",
"157 0 LINE",
"157 78 LINE",
"135 78 LINE",
"135 572 LINE",
"242 277 LINE",
"318 277 LINE",
"429 575 LINE",
"429 78 LINE",
"407 78 LINE",
"407 0 LINE",
"583 0 LINE",
"583 78 LINE",
"561 78 LINE",
"561 602 LINE",
"583 602 LINE",
"583 680 LINE"
);
}
);
width = 616;
}
);
leftKerningGroup = N;
rightKerningGroup = H;
rightMetricsKey = H;
unicode = 004D;
},
{
glyphname = N;
lastChange = "2020-04-17 23:58:34 +0000";
layers = (
{
anchors = (
{
name = bottom;
position = "{223, 0}";
},
{
name = ogonek;
position = "{223, 10}";
},
{
name = top;
position = "{221, 680}";
}
);
background = {
paths = (
{
closed = 1;
nodes = (
"333 0 LINE",
"356 0 LINE",
"356 101 LINE",
"125 680 LINE",
"63 680 LINE"
);
},
{
closed = 1;
nodes = (
"346 0 LINE",
"402 0 LINE",
"402 32 LINE",
"346 32 LINE"
);
},
{
closed = 1;
nodes = (
"42 0 LINE",
"120 0 LINE",
"120 32 LINE",
"42 32 LINE"
);
},
{
closed = 1;
nodes = (
"42 648 LINE",
"115 648 LINE",
"115 680 LINE",
"42 680 LINE"
);
},
{
closed = 1;
nodes = (
"64 17 LINE",
"98 17 LINE",
"98 663 LINE",
"64 663 LINE"
);
},
{
closed = 1;
nodes = (
"325 648 LINE",
"403 648 LINE",
"403 680 LINE",
"325 680 LINE"
);
},
{
closed = 1;
nodes = (
"347 17 LINE",
"381 17 LINE",
"381 663 LINE",
"347 663 LINE"
);
}
);
};
guideLines = (
{
angle = 180;
position = "{139, 307}";
showMeasurement = 1;
}
);
hints = (
{
horizontal = 1;
origin = "{0, 16}";
target = "{0, 17}";
type = TTStem;
options = 4;
},
{
horizontal = 1;
origin = "{0, 11}";
target = "{0, 12}";
type = TTStem;
options = 4;
},
{
horizontal = 1;
origin = "{0, 12}";
target = "{0, 8}";
type = Align;
options = 4;
},
{
horizontal = 1;
origin = "{0, 21}";
target = "{0, 20}";
type = TTStem;
options = 4;
},
{
horizontal = 1;
origin = "{0, 20}";
target = "{0, 2}";
type = Align;
options = 4;
},
{
horizontal = 1;
origin = "{0, 5}";
target = "{0, 6}";
type = TTStem;
options = 4;
},
{
horizontal = 1;
origin = "{0, 17}";
target = "{0, 20}";
other1 = "{0, 3}";
type = Interpolate;
options = 4;
},
{
horizontal = 1;
origin = "{0, 12}";
target = "{0, 6}";
other1 = "{0, 14}";
type = Interpolate;
options = 4;
}
);
layerId = "985FD43C-E2EB-4FA2-9714-12093F08C61F";
paths = (
{
closed = 1;
nodes = (
"120 0 LINE",
"120 32 LINE",
"98 32 LINE",
"98 591 LINE",
"333 0 LINE",
"403 0 LINE",
"403 32 LINE",
"381 32 LINE",
"381 648 LINE",
"403 648 LINE",
"403 680 LINE",
"325 680 LINE",
"325 648 LINE",
"347 648 LINE",
"347 125 LINE",
"125 680 LINE",
"42 680 LINE",
"42 648 LINE",
"64 648 LINE",
"64 32 LINE",
"42 32 LINE",
"42 0 LINE"
);
}
);
width = 445;
},
{
anchors = (
{
name = bottom;
position = "{244, 0}";
},
{
name = ogonek;
position = "{244, 10}";
},
{
name = top;
position = "{244, 680}";
}
);
background = {
paths = (
{
closed = 1;
nodes = (
"346 0 LINE",
"369 0 LINE",
"369 101 LINE",
"138 680 LINE",
"76 680 LINE"
);
},
{
closed = 1;
nodes = (
"359 0 LINE",
"416 0 LINE",
"416 32 LINE",
"359 32 LINE"
);
},
{
closed = 1;
nodes = (
"55 0 LINE",
"135 0 LINE",
"135 32 LINE",
"55 32 LINE"
);
},
{
closed = 1;
nodes = (
"54 648 LINE",
"128 648 LINE",
"128 680 LINE",
"54 680 LINE"
);
},
{
closed = 1;
nodes = (
"77 17 LINE",
"111 17 LINE",
"111 663 LINE",
"77 663 LINE"
);
},
{
closed = 1;
nodes = (
"338 648 LINE",
"416 648 LINE",
"416 680 LINE",
"338 680 LINE"
);
},
{
closed = 1;
nodes = (
"360 17 LINE",
"394 17 LINE",
"394 663 LINE",
"360 663 LINE"
);
}
);
};
guideLines = (
{
angle = 90;
position = "{436, 602}";
},
{
angle = 90;
position = "{52, 602}";
}
);
layerId = "79669AF3-7E96-4900-AB6D-33745B934CAA";
paths = (
{
closed = 1;
nodes = (
"160 0 LINE",
"160 78 LINE",
"136 78 LINE",
"136 438 LINE",
"338 0 LINE",
"458 0 LINE",
"458 78 LINE",
"436 78 LINE",
"436 602 LINE",
"458 602 LINE",
"458 680 LINE",
"330 680 LINE",
"330 602 LINE",
"352 602 LINE",
"352 270 LINE",
"163 680 LINE",
"30 680 LINE",
"30 602 LINE",
"52 602 LINE",
"52 78 LINE",
"30 78 LINE",
"30 0 LINE"
);
}
);
width = 488;
},
{
anchors = (
{
name = bottom;
position = "{244, 0}";
},
{
name = ogonek;
position = "{244, 10}";
},
{
name = top;
position = "{244, 680}";
}
);
associatedMasterId = "79669AF3-7E96-4900-AB6D-33745B934CAA";
background = {
paths = (
{
closed = 1;
nodes = (
"346 0 LINE",
"369 0 LINE",
"369 101 LINE",
"138 680 LINE",
"76 680 LINE"
);
},
{
closed = 1;
nodes = (
"359 0 LINE",
"416 0 LINE",
"416 32 LINE",
"359 32 LINE"
);
},
{
closed = 1;
nodes = (
"55 0 LINE",
"135 0 LINE",
"135 32 LINE",
"55 32 LINE"
);
},
{
closed = 1;
nodes = (
"54 648 LINE",
"128 648 LINE",
"128 680 LINE",
"54 680 LINE"
);
},
{
closed = 1;
nodes = (
"77 17 LINE",
"111 17 LINE",
"111 663 LINE",
"77 663 LINE"
);
},
{
closed = 1;
nodes = (
"338 648 LINE",
"416 648 LINE",
"416 680 LINE",
"338 680 LINE"
);
},
{
closed = 1;
nodes = (
"360 17 LINE",
"394 17 LINE",
"394 663 LINE",
"360 663 LINE"
);
}
);
};
guideLines = (
{
angle = 90;
position = "{436, 602}";
},
{
angle = 90;
position = "{52, 602}";
}
);
layerId = "B55041A9-4F73-452E-A42C-BFEA8CE15A89";
name = "Apr 16 20, 15:54";
paths = (
{
closed = 1;
nodes = (
"160 0 LINE",
"160 78 LINE",
"136 78 LINE",
"136 497 LINE",
"111 492 LINE",
"338 0 LINE",
"458 0 LINE",
"458 78 LINE",
"436 78 LINE",
"436 602 LINE",
"458 602 LINE",
"458 680 LINE",
"330 680 LINE",
"330 602 LINE",
"352 602 LINE",
"352 211 LINE",
"377 216 LINE",
"163 680 LINE",
"30 680 LINE",
"30 602 LINE",
"52 602 LINE",
"52 78 LINE",
"30 78 LINE",
"30 0 LINE"
);
}
);
width = 488;
},
{
anchors = (
{
name = bottom;
position = "{223, 0}";
},
{
name = ogonek;
position = "{223, 10}";
},
{
name = top;
position = "{221, 680}";
}
);
associatedMasterId = "985FD43C-E2EB-4FA2-9714-12093F08C61F";
background = {
paths = (
{
closed = 1;
nodes = (
"333 0 LINE",
"356 0 LINE",
"356 101 LINE",
"125 680 LINE",
"63 680 LINE"
);
},
{
closed = 1;
nodes = (
"346 0 LINE",
"402 0 LINE",
"402 32 LINE",
"346 32 LINE"
);
},
{
closed = 1;
nodes = (
"42 0 LINE",
"120 0 LINE",
"120 32 LINE",
"42 32 LINE"
);
},
{
closed = 1;
nodes = (
"42 648 LINE",
"115 648 LINE",
"115 680 LINE",
"42 680 LINE"
);
},
{
closed = 1;
nodes = (
"64 17 LINE",
"98 17 LINE",
"98 663 LINE",
"64 663 LINE"
);
},
{
closed = 1;
nodes = (
"325 648 LINE",
"403 648 LINE",
"403 680 LINE",
"325 680 LINE"
);
},
{
closed = 1;
nodes = (
"347 17 LINE",
"381 17 LINE",
"381 663 LINE",
"347 663 LINE"
);
}
);
};
guideLines = (
{
angle = 180;
position = "{139, 307}";
showMeasurement = 1;
}
);
hints = (
{
horizontal = 1;
origin = "{0, 5}";
target = "{0, 6}";
type = TTStem;
options = 4;
},
{
horizontal = 1;
origin = "{0, 0}";
target = "{0, 1}";
type = TTStem;
options = 4;
},
{
horizontal = 1;
origin = "{0, 1}";
target = "{0, 19}";
type = Align;
options = 4;
},
{
horizontal = 1;
origin = "{0, 10}";
target = "{0, 9}";
type = TTStem;
options = 4;
},
{
horizontal = 1;
origin = "{0, 9}";
target = "{0, 13}";
type = Align;
options = 4;
},
{
horizontal = 1;
origin = "{0, 16}";
target = "{0, 17}";
type = TTStem;
options = 4;
}
);
layerId = "FAB6F0D6-84E9-4A42-AC53-E73D002E32FD";
name = "Apr 16 20, 15:54";
paths = (
{
closed = 1;
nodes = (
"325 680 LINE",
"325 648 LINE",
"347 648 LINE",
"347 125 LINE",
"125 680 LINE",
"42 680 LINE",
"42 648 LINE",
"64 648 LINE",
"64 32 LINE",
"42 32 LINE",
"42 0 LINE",
"120 0 LINE",
"120 32 LINE",
"98 32 LINE",
"98 591 LINE",
"333 0 LINE",
"403 0 LINE",
"403 32 LINE",
"381 32 LINE",
"381 648 LINE",
"403 648 LINE",
"403 680 LINE"
);
}
);
width = 445;
}
);
leftKerningGroup = N;
rightKerningGroup = N;
unicode = 004E;
},
{
glyphname = Eng;
lastChange = "2020-04-17 23:59:18 +0000";
layers = (
{
background = {
paths = (
{
closed = 1;
nodes = (
"356 124 LINE",
"126 680 LINE",
"89 680 LINE",
"89 620 LINE",
"356 -24 LINE"
);
},
{
closed = 1;
nodes = (
"123 0 LINE",
"123 32 LINE",
"43 32 LINE",
"43 0 LINE"
);
},
{
closed = 1;
nodes = (
"98 17 LINE",
"98 663 LINE",
"64 663 LINE",
"64 17 LINE"
);
},
{
closed = 1;
nodes = (
"346 -150 OFFCURVE",
"381 -115 OFFCURVE",
"381 -50 CURVE SMOOTH",
"381 663 LINE",
"347 663 LINE",
"347 -50 LINE SMOOTH",
"347 -97 OFFCURVE",
"326 -117 OFFCURVE",
"284 -117 CURVE",
"284 -150 LINE"
);
},
{
closed = 1;
nodes = (
"116 648 LINE",
"116 680 LINE",
"42 680 LINE",
"42 648 LINE"
);
},
{
closed = 1;
nodes = (
"403 648 LINE",
"403 680 LINE",
"325 680 LINE",
"325 648 LINE"
);
}
);
};
guideLines = (
{
angle = -67.3339;
position = "{64, 680}";
},
{
angle = 90;
position = "{358, 154}";
},
{
angle = -67.3339;
position = "{126, 680}";
},
{
angle = 22.6661;
position = "{255, 420}";
showMeasurement = 1;
},
{
angle = 90;
position = "{89, 670}";
}
);
hints = (
{
horizontal = 1;
origin = "{0, 3}";
target = "{0, 4}";
type = TTStem;
options = 4;
},
{
horizontal = 1;
origin = "{0, 25}";
target = "{0, 26}";
type = TTStem;
options = 4;
},
{
horizontal = 1;
origin = "{0, 26}";
target = "{0, 23}";
type = Align;
options = 4;
},
{
horizontal = 1;
origin = "{0, 8}";
target = "{0, 7}";
type = TTStem;
options = 4;
},
{
horizontal = 1;
origin = "{0, 7}";
target = "{0, 11}";
type = Align;
options = 4;
},
{
horizontal = 1;
origin = "{0, 18}";
target = "{0, 17}";
type = TTStem;
options = 4;
},
{
horizontal = 1;
origin = "{0, 4}";
target = "{0, 7}";
other1 = "{0, 12}";
type = Interpolate;
options = 4;
},
{
horizontal = 1;
origin = "{0, 4}";
target = "{0, 7}";
other1 = "{0, 1}";
type = Interpolate;
options = 4;
}
);
layerId = "985FD43C-E2EB-4FA2-9714-12093F08C61F";
paths = (
{
closed = 1;
nodes = (
"347 648 LINE",
"347 146 LINE",
"126 680 LINE",
"42 680 LINE",
"42 648 LINE",
"64 648 LINE",
"64 32 LINE",
"43 32 LINE",
"43 0 LINE",
"123 0 LINE",
"123 32 LINE",
"98 32 LINE",
"98 598 LINE",
"347 -2 LINE",
"347 -50 LINE SMOOTH",
"347 -97 OFFCURVE",
"326 -117 OFFCURVE",
"284 -117 CURVE",
"284 -150 LINE",
"346 -150 OFFCURVE",
"381 -115 OFFCURVE",
"381 -50 CURVE SMOOTH",
"381 648 LINE",
"403 648 LINE",
"403 680 LINE",
"325 680 LINE",
"325 648 LINE"
);
}
);
width = 445;
},
{
background = {
guideLines = (
{
angle = 90;
position = "{180, -150}";
},
{
position = "{148, -72}";
}
);
paths = (
{
closed = 1;
nodes = (
"360 276 LINE",
"164 680 LINE",
"30 680 LINE",
"30 602 LINE",
"53 602 LINE",
"53 78 LINE",
"31 78 LINE",
"31 0 LINE",
"161 0 LINE",
"161 78 LINE",
"137 78 LINE",
"137 504 LINE",
"111 498 LINE",
"360 -15 LINE"
);
},
{
closed = 1;
nodes = (
"387 -150 OFFCURVE",
"437 -90 OFFCURVE",
"437 29 CURVE SMOOTH",
"437 602 LINE",
"459 602 LINE",
"459 680 LINE",
"331 680 LINE",
"331 602 LINE",
"353 602 LINE",
"353 34 LINE SMOOTH",
"353 -45 OFFCURVE",
"333 -72 OFFCURVE",
"283 -72 CURVE",
"283 -150 LINE"
);
}
);
};
guideLines = (
{
angle = 90;
position = "{353, 393}";
}
);
layerId = "79669AF3-7E96-4900-AB6D-33745B934CAA";
paths = (
{
closed = 1;
nodes = (
"353 602 LINE",
"353 290 LINE",
"164 680 LINE",
"30 680 LINE",
"30 602 LINE",
"53 602 LINE",
"53 78 LINE",
"31 78 LINE",
"31 0 LINE",
"161 0 LINE",
"161 78 LINE",
"137 78 LINE",
"137 444 LINE",
"353 -1 LINE",
"353 -10 LINE SMOOTH",
"353 -45 OFFCURVE",
"333 -72 OFFCURVE",
"283 -72 CURVE",
"283 -150 LINE",
"387 -150 OFFCURVE",
"437 -90 OFFCURVE",
"437 29 CURVE SMOOTH",
"437 602 LINE",
"459 602 LINE",
"459 680 LINE",
"331 680 LINE",
"331 602 LINE"
);
}
);
width = 489;
},
{
anchors = (
{
name = bottom;
position = "{245, 0}";
},
{
name = top;
position = "{245, 680}";
}
);
associatedMasterId = "79669AF3-7E96-4900-AB6D-33745B934CAA";
background = {
guideLines = (
{
angle = 90;
position = "{180, -150}";
},
{
position = "{148, -72}";
}
);
paths = (
{
closed = 0;
nodes = (
"304 -72 LINE SMOOTH",
"293 -72 OFFCURVE",
"279 -75 OFFCURVE",
"261 -54 CURVE",
"247 -74 LINE",
"285 -74 OFFCURVE",
"311 -54 OFFCURVE",
"311 -19 CURVE SMOOTH",
"311 18 OFFCURVE",
"287 40 OFFCURVE",
"255 40 CURVE SMOOTH",
"220 40 OFFCURVE",
"190 18 OFFCURVE",
"190 -41 CURVE SMOOTH",
"190 -92 OFFCURVE",
"233 -150 OFFCURVE",
"317 -150 CURVE SMOOTH"
);
}
);
};
guideLines = (
{
angle = 90;
position = "{360, 134}";
}
);
layerId = "2E3A70AE-B011-4D4C-8AAC-DE85531125AD";
name = "Oct 18 18, 10:20";
paths = (
{
closed = 1;
nodes = (
"360 285 LINE",
"164 680 LINE",
"74 575 LINE",
"360 -15 LINE"
);
},
{
closed = 1;
nodes = (
"161 0 LINE",
"161 78 LINE",
"31 78 LINE",
"31 0 LINE"
);
},
{
closed = 1;
nodes = (
"137 17 LINE",
"137 663 LINE",
"53 663 LINE",
"53 17 LINE"
);
},
{
closed = 1;
nodes = (
"293 -150 LINE SMOOTH",
"390 -150 OFFCURVE",
"437 -90 OFFCURVE",
"437 29 CURVE SMOOTH",
"437 663 LINE",
"353 663 LINE",
"353 0 LINE SMOOTH",
"353 -45 OFFCURVE",
"333 -72 OFFCURVE",
"283 -72 CURVE SMOOTH",
"273 -72 LINE",
"273 -150 LINE"
);
},
{
closed = 1;
nodes = (
"164 602 LINE",
"164 680 LINE",
"30 680 LINE",
"30 602 LINE"
);
},
{
closed = 1;
nodes = (
"459 602 LINE",
"459 680 LINE",
"331 680 LINE",
"331 602 LINE"
);
}
);
width = 489;
},
{
associatedMasterId = "79669AF3-7E96-4900-AB6D-33745B934CAA";
background = {
guideLines = (
{
angle = 90;
position = "{180, -150}";
},
{
position = "{148, -72}";
}
);
paths = (
{
closed = 1;
nodes = (
"360 276 LINE",
"164 680 LINE",
"30 680 LINE",
"30 602 LINE",
"53 602 LINE",
"53 78 LINE",
"31 78 LINE",
"31 0 LINE",
"161 0 LINE",
"161 78 LINE",
"137 78 LINE",
"137 504 LINE",
"111 498 LINE",
"360 -15 LINE"
);
},
{
closed = 1;
nodes = (
"387 -150 OFFCURVE",
"437 -90 OFFCURVE",
"437 29 CURVE SMOOTH",
"437 602 LINE",
"459 602 LINE",
"459 680 LINE",
"331 680 LINE",
"331 602 LINE",
"353 602 LINE",
"353 34 LINE SMOOTH",
"353 -45 OFFCURVE",
"333 -72 OFFCURVE",
"283 -72 CURVE",
"283 -150 LINE"
);
}
);
};
guideLines = (
{
angle = 90;
position = "{353, 393}";
}
);
layerId = "6B61AB5B-C959-429B-8C41-4975F2C9334E";
name = "Nov 7 18, 17:55";
paths = (
{
closed = 1;
nodes = (
"360 276 LINE",
"164 680 LINE",
"30 680 LINE",
"30 602 LINE",
"53 602 LINE",
"53 78 LINE",
"31 78 LINE",
"31 0 LINE",
"161 0 LINE",
"161 78 LINE",
"137 78 LINE",
"137 504 LINE",
"111 498 LINE",
"360 -15 LINE"
);
},
{
closed = 1;
nodes = (
"387 -150 OFFCURVE",
"437 -90 OFFCURVE",
"437 29 CURVE SMOOTH",
"437 602 LINE",
"459 602 LINE",
"459 680 LINE",
"331 680 LINE",
"331 602 LINE",
"353 602 LINE",
"353 34 LINE SMOOTH",
"353 -45 OFFCURVE",
"333 -72 OFFCURVE",
"283 -72 CURVE",
"283 -150 LINE"
);
}
);
width = 489;
},
{
associatedMasterId = "985FD43C-E2EB-4FA2-9714-12093F08C61F";
background = {
paths = (
{
closed = 1;
nodes = (
"356 124 LINE",
"126 680 LINE",
"89 680 LINE",
"89 620 LINE",
"356 -24 LINE"
);
},
{
closed = 1;
nodes = (
"123 0 LINE",
"123 32 LINE",
"43 32 LINE",
"43 0 LINE"
);
},
{
closed = 1;
nodes = (
"98 17 LINE",
"98 663 LINE",
"64 663 LINE",
"64 17 LINE"
);
},
{
closed = 1;
nodes = (
"346 -150 OFFCURVE",
"381 -115 OFFCURVE",
"381 -50 CURVE SMOOTH",
"381 663 LINE",
"347 663 LINE",
"347 -50 LINE SMOOTH",
"347 -97 OFFCURVE",
"326 -117 OFFCURVE",
"284 -117 CURVE",
"284 -150 LINE"
);
},
{
closed = 1;
nodes = (
"116 648 LINE",
"116 680 LINE",
"42 680 LINE",
"42 648 LINE"
);
},
{
closed = 1;
nodes = (
"403 648 LINE",
"403 680 LINE",
"325 680 LINE",
"325 648 LINE"
);
}
);
};
guideLines = (
{
angle = -67.3339;
position = "{64, 680}";
},
{
angle = 90;
position = "{358, 154}";
},
{
angle = -67.3339;
position = "{126, 680}";
},
{
angle = 22.6661;
position = "{255, 420}";
showMeasurement = 1;
},
{
angle = 90;
position = "{89, 670}";
}
);
hints = (
{
horizontal = 1;
origin = "{0, 2}";
target = "{0, 3}";
type = TTStem;
options = 4;
},
{
horizontal = 1;
origin = "{1, 6}";
target = "{1, 7}";
type = TTStem;
options = 4;
},
{
horizontal = 1;
origin = "{1, 7}";
target = "{1, 4}";
type = Align;
options = 4;
},
{
horizontal = 1;
origin = "{0, 7}";
target = "{0, 6}";
type = TTStem;
options = 4;
},
{
horizontal = 1;
origin = "{0, 6}";
target = "{0, 10}";
type = Align;
options = 4;
},
{
horizontal = 1;
origin = "{1, 13}";
target = "{1, 12}";
type = TTStem;
options = 4;
}
);
layerId = "BFC59279-F65C-4140-98ED-B3D302E1E7F1";
name = "Apr 16 20, 15:55";
paths = (
{
closed = 1;
nodes = (
"356 124 LINE",
"126 680 LINE",
"42 680 LINE",
"42 648 LINE",
"64 648 LINE",
"64 32 LINE",
"43 32 LINE",
"43 0 LINE",
"123 0 LINE",
"123 32 LINE",
"98 32 LINE",
"98 624 LINE",
"88 622 LINE",
"356 -24 LINE"
);
},
{
closed = 1;
nodes = (
"346 -150 OFFCURVE",
"381 -115 OFFCURVE",
"381 -50 CURVE SMOOTH",
"381 648 LINE",
"403 648 LINE",
"403 680 LINE",
"325 680 LINE",
"325 648 LINE",
"347 648 LINE",
"347 -50 LINE SMOOTH",
"347 -97 OFFCURVE",
"326 -117 OFFCURVE",
"284 -117 CURVE",
"284 -150 LINE"
);
}
);
width = 445;
},
{
associatedMasterId = "79669AF3-7E96-4900-AB6D-33745B934CAA";
background = {
guideLines = (
{
angle = 90;
position = "{180, -150}";
},
{
position = "{148, -72}";
}
);
paths = (
{
closed = 1;
nodes = (
"360 276 LINE",
"164 680 LINE",
"30 680 LINE",
"30 602 LINE",
"53 602 LINE",
"53 78 LINE",
"31 78 LINE",
"31 0 LINE",
"161 0 LINE",
"161 78 LINE",
"137 78 LINE",
"137 504 LINE",
"111 498 LINE",
"360 -15 LINE"
);
},
{
closed = 1;
nodes = (
"387 -150 OFFCURVE",
"437 -90 OFFCURVE",
"437 29 CURVE SMOOTH",
"437 602 LINE",
"459 602 LINE",
"459 680 LINE",
"331 680 LINE",
"331 602 LINE",
"353 602 LINE",
"353 34 LINE SMOOTH",
"353 -45 OFFCURVE",
"333 -72 OFFCURVE",
"283 -72 CURVE",
"283 -150 LINE"
);
}
);
};
guideLines = (
{
angle = 90;
position = "{353, 393}";
}
);
layerId = "C608D140-FE93-4A92-A1B3-66104132B82B";
name = "Apr 16 20, 15:55";
paths = (
{
closed = 1;
nodes = (
"360 276 LINE",
"164 680 LINE",
"30 680 LINE",
"30 602 LINE",
"53 602 LINE",
"53 78 LINE",
"31 78 LINE",
"31 0 LINE",
"161 0 LINE",
"161 78 LINE",
"137 78 LINE",
"137 504 LINE",
"111 498 LINE",
"360 -15 LINE"
);
},
{
closed = 1;
nodes = (
"387 -150 OFFCURVE",
"437 -90 OFFCURVE",
"437 29 CURVE SMOOTH",
"437 602 LINE",
"459 602 LINE",
"459 680 LINE",
"331 680 LINE",
"331 602 LINE",
"353 602 LINE",
"353 -10 LINE SMOOTH",
"353 -45 OFFCURVE",
"333 -72 OFFCURVE",
"283 -72 CURVE",
"283 -150 LINE"
);
}
);
width = 489;
}
);
leftKerningGroup = N;
leftMetricsKey = N;
rightKerningGroup = N;
rightMetricsKey = N;
unicode = 014A;
},
{
glyphname = Nhookleft;
lastChange = "2020-05-03 05:45:54 +0000";
layers = (
{
anchors = (
{
name = bottom;
position = "{241, 0}";
},
{
name = ogonek;
position = "{241, 10}";
},
{
name = top;
position = "{223, 680}";
}
);
background = {
components = (
{
name = N;
}
);
};
guideLines = (
{
angle = 90;
position = "{110, 120}";
},
{
angle = 90;
position = "{144, 120}";
},
{
angle = 90;
position = "{499, 407}";
},
{
angle = 90;
position = "{537, 343}";
},
{
angle = 90;
position = "{718, 337}";
}
);
hints = (
{
horizontal = 1;
origin = "{0, 5}";
target = "{0, 6}";
type = TTStem;
options = 4;
},
{
horizontal = 1;
origin = "{0, 0}";
target = "{0, 1}";
type = TTStem;
options = 4;
},
{
horizontal = 1;
origin = "{0, 1}";
target = "{0, 21}";
type = Align;
options = 4;
},
{
horizontal = 1;
origin = "{0, 18}";
target = "{0, 19}";
type = TTStem;
options = 4;
},
{
horizontal = 1;
origin = "{0, 12}";
target = "{0, 11}";
type = TTStem;
options = 4;
},
{
horizontal = 1;
origin = "{0, 6}";
target = "{0, 19}";
other1 = "{0, 16}";
type = Interpolate;
options = 4;
},
{
horizontal = 1;
origin = "{0, 1}";
target = "{0, 19}";
other1 = "{0, 3}";
type = Interpolate;
options = 4;
}
);
layerId = "985FD43C-E2EB-4FA2-9714-12093F08C61F";
paths = (
{
closed = 1;
nodes = (
"325 680 LINE",
"325 648 LINE",
"347 648 LINE",
"347 125 LINE",
"125 680 LINE",
"41 680 LINE",
"41 648 LINE",
"64 648 LINE",
"64 -50 LINE SMOOTH",
"64 -97 OFFCURVE",
"43 -117 OFFCURVE",
"0 -117 CURVE",
"0 -150 LINE",
"63 -150 OFFCURVE",
"98 -115 OFFCURVE",
"98 -50 CURVE SMOOTH",
"98 591 LINE",
"333 0 LINE",
"403 0 LINE",
"403 32 LINE",
"381 32 LINE",
"381 648 LINE",
"403 648 LINE",
"403 680 LINE"
);
}
);
width = 445;
},
{
anchors = (
{
name = bottom;
position = "{298, 0}";
},
{
name = ogonek;
position = "{298, 10}";
},
{
name = top;
position = "{245, 680}";
}
);
background = {
components = (
{
name = N;
}
);
};
layerId = "79669AF3-7E96-4900-AB6D-33745B934CAA";
paths = (
{
closed = 1;
nodes = (
"330 680 LINE",
"330 602 LINE",
"352 602 LINE",
"352 270 LINE",
"163 680 LINE",
"29 680 LINE",
"29 602 LINE",
"52 602 LINE",
"52 34 LINE SMOOTH",
"52 -45 OFFCURVE",
"32 -72 OFFCURVE",
"-17 -72 CURVE",
"-17 -150 LINE",
"86 -150 OFFCURVE",
"136 -90 OFFCURVE",
"136 29 CURVE SMOOTH",
"136 438 LINE",
"338 0 LINE",
"458 0 LINE",
"458 78 LINE",
"436 78 LINE",
"436 602 LINE",
"458 602 LINE",
"458 680 LINE"
);
}
);
width = 488;
},
{
anchors = (
{
name = bottom;
position = "{241, 0}";
},
{
name = ogonek;
position = "{241, 10}";
},
{
name = top;
position = "{223, 680}";
}
);
associatedMasterId = "985FD43C-E2EB-4FA2-9714-12093F08C61F";
background = {
paths = (
{
closed = 1;
nodes = (
"404 680 LINE",
"326 680 LINE",
"326 648 LINE",
"348 648 LINE",
"348 124 LINE",
"126 680 LINE",
"42 680 LINE",
"42 648 LINE",
"65 648 LINE",
"65 -50 LINE SMOOTH",
"65 -97 OFFCURVE",
"44 -117 OFFCURVE",
"0 -117 CURVE",
"0 -150 LINE",
"64 -150 OFFCURVE",
"99 -115 OFFCURVE",
"99 -50 CURVE SMOOTH",
"99 592 LINE",
"334 0 LINE",
"404 0 LINE",
"404 32 LINE",
"382 32 LINE",
"382 648 LINE",
"404 648 LINE"
);
}
);
};
guideLines = (
{
angle = 90;
position = "{110, 120}";
},
{
angle = 90;
position = "{144, 120}";
},
{
angle = 90;
position = "{499, 407}";
},
{
angle = 90;
position = "{537, 343}";
},
{
angle = 90;
position = "{718, 337}";
}
);
layerId = "330D1277-1B46-4ED9-B977-236CAE05A26B";
name = "Nov 7 18, 12:27";
paths = (
{
closed = 1;
nodes = (
"357 0 LINE",
"357 101 LINE",
"126 680 LINE",
"64 680 LINE",
"334 0 LINE"
);
},
{
closed = 1;
nodes = (
"64 -150 OFFCURVE",
"99 -115 OFFCURVE",
"99 -50 CURVE SMOOTH",
"99 663 LINE",
"65 663 LINE",
"65 -50 LINE SMOOTH",
"65 -97 OFFCURVE",
"44 -117 OFFCURVE",
"0 -117 CURVE",
"0 -150 LINE"
);
},
{
closed = 1;
nodes = (
"404 0 LINE",
"404 32 LINE",
"347 32 LINE",
"347 0 LINE"
);
},
{
closed = 1;
nodes = (
"382 17 LINE",
"382 663 LINE",
"348 663 LINE",
"348 17 LINE"
);
},
{
closed = 1;
nodes = (
"116 648 LINE",
"116 680 LINE",
"42 680 LINE",
"42 648 LINE"
);
},
{
closed = 1;
nodes = (
"404 648 LINE",
"404 680 LINE",
"326 680 LINE",
"326 648 LINE"
);
}
);
width = 446;
},
{
anchors = (
{
name = bottom;
position = "{298, 0}";
},
{
name = ogonek;
position = "{298, 10}";
},
{
name = top;
position = "{245, 680}";
}
);
associatedMasterId = "79669AF3-7E96-4900-AB6D-33745B934CAA";
background = {
paths = (
{
closed = 1;
nodes = (
"362 0 LINE",
"410 146 LINE",
"164 680 LINE",
"74 575 LINE",
"339 0 LINE"
);
},
{
closed = 1;
nodes = (
"87 -150 OFFCURVE",
"137 -90 OFFCURVE",
"137 29 CURVE SMOOTH",
"137 663 LINE",
"53 663 LINE",
"53 34 LINE SMOOTH",
"53 -45 OFFCURVE",
"33 -72 OFFCURVE",
"-17 -72 CURVE",
"-17 -150 LINE"
);
},
{
closed = 1;
nodes = (
"437 17 LINE",
"437 663 LINE",
"353 663 LINE",
"353 17 LINE"
);
},
{
closed = 1;
nodes = (
"164 602 LINE",
"164 680 LINE",
"30 680 LINE",
"30 602 LINE"
);
},
{
closed = 1;
nodes = (
"459 602 LINE",
"459 680 LINE",
"331 680 LINE",
"331 602 LINE"
);
}
);
};
layerId = "56FB08B1-81F9-4B0E-8CB7-567882C3A5DD";
name = "Nov 7 18, 12:27";
paths = (
{
closed = 1;
nodes = (
"362 0 LINE",
"410 146 LINE",
"164 680 LINE",
"74 575 LINE",
"339 0 LINE"
);
},
{
closed = 1;
nodes = (
"87 -150 OFFCURVE",
"137 -90 OFFCURVE",
"137 29 CURVE SMOOTH",
"137 663 LINE",
"53 663 LINE",
"53 34 LINE SMOOTH",
"53 -45 OFFCURVE",
"33 -72 OFFCURVE",
"-17 -72 CURVE",
"-17 -150 LINE"
);
},
{
closed = 1;
nodes = (
"459 0 LINE",
"459 78 LINE",
"352 78 LINE",
"352 0 LINE"
);
},
{
closed = 1;
nodes = (
"437 17 LINE",
"437 663 LINE",
"353 663 LINE",
"353 17 LINE"
);
},
{
closed = 1;
nodes = (
"164 602 LINE",
"164 680 LINE",
"30 680 LINE",
"30 602 LINE"
);
},
{
closed = 1;
nodes = (
"459 602 LINE",
"459 680 LINE",
"331 680 LINE",
"331 602 LINE"
);
}
);
width = 489;
},
{
anchors = (
{
name = bottom;
position = "{241, 0}";
},
{
name = ogonek;
position = "{241, 10}";
},
{
name = top;
position = "{223, 680}";
}
);
associatedMasterId = "985FD43C-E2EB-4FA2-9714-12093F08C61F";
background = {
components = (
{
name = N;
}
);
};
guideLines = (
{
angle = 90;
position = "{110, 120}";
},
{
angle = 90;
position = "{144, 120}";
},
{
angle = 90;
position = "{499, 407}";
},
{
angle = 90;
position = "{537, 343}";
},
{
angle = 90;
position = "{718, 337}";
}
);
hints = (
{
horizontal = 1;
origin = "{0, 18}";
target = "{0, 19}";
type = TTStem;
options = 4;
},
{
horizontal = 1;
origin = "{0, 12}";
target = "{0, 13}";
type = TTStem;
options = 4;
},
{
horizontal = 1;
origin = "{0, 13}";
target = "{0, 9}";
type = Align;
options = 4;
},
{
horizontal = 1;
origin = "{0, 6}";
target = "{0, 7}";
type = TTStem;
options = 4;
},
{
horizontal = 1;
origin = "{0, 25}";
target = "{0, 24}";
type = TTStem;
options = 4;
}
);
layerId = "7931F18F-B15B-4340-B80D-D11A6981D339";
name = "Apr 16 20, 15:55";
paths = (
{
closed = 1;
nodes = (
"63 -150 OFFCURVE",
"98 -115 OFFCURVE",
"98 -50 CURVE SMOOTH",
"98 618 LINE",
"88 616 LINE",
"333 0 LINE",
"403 0 LINE",
"403 32 LINE",
"381 32 LINE",
"381 648 LINE",
"403 648 LINE",
"403 680 LINE",
"325 680 LINE",
"325 648 LINE",
"347 648 LINE",
"347 98 LINE",
"357 100 LINE",
"125 680 LINE",
"41 680 LINE",
"41 648 LINE",
"64 648 LINE",
"64 -50 LINE SMOOTH",
"64 -97 OFFCURVE",
"43 -117 OFFCURVE",
"0 -117 CURVE",
"0 -150 LINE"
);
}
);
width = 445;
},
{
anchors = (
{
name = bottom;
position = "{298, 0}";
},
{
name = ogonek;
position = "{298, 10}";
},
{
name = top;
position = "{245, 680}";
}
);
associatedMasterId = "79669AF3-7E96-4900-AB6D-33745B934CAA";
background = {
paths = (
{
closed = 1;
nodes = (
"160 0 LINE",
"160 78 LINE",
"136 78 LINE",
"136 497 LINE",
"111 492 LINE",
"338 0 LINE",
"458 0 LINE",
"458 78 LINE",
"436 78 LINE",
"436 602 LINE",
"458 602 LINE",
"458 680 LINE",
"330 680 LINE",
"330 602 LINE",
"352 602 LINE",
"352 211 LINE",
"377 216 LINE",
"163 680 LINE",
"30 680 LINE",
"30 602 LINE",
"52 602 LINE",
"52 78 LINE",
"30 78 LINE",
"30 0 LINE"
);
}
);
};
layerId = "14A88248-B8FE-45A3-9621-F260BE99D142";
name = "Apr 16 20, 15:55";
paths = (
{
closed = 1;
nodes = (
"86 -150 OFFCURVE",
"136 -90 OFFCURVE",
"136 29 CURVE SMOOTH",
"136 497 LINE",
"111 492 LINE",
"338 0 LINE",
"458 0 LINE",
"458 78 LINE",
"436 78 LINE",
"436 602 LINE",
"458 602 LINE",
"458 680 LINE",
"330 680 LINE",
"330 602 LINE",
"352 602 LINE",
"352 211 LINE",
"377 216 LINE",
"163 680 LINE",
"29 680 LINE",
"29 602 LINE",
"52 602 LINE",
"52 34 LINE SMOOTH",
"52 -45 OFFCURVE",
"32 -72 OFFCURVE",
"-17 -72 CURVE",
"-17 -150 LINE"
);
}
);
width = 488;
}
);
leftKerningGroup = N;
rightKerningGroup = N;
rightMetricsKey = N;
unicode = 019D;
},
{
glyphname = O;
lastChange = "2020-04-28 19:54:59 +0000";
layers = (
{
anchors = (
{
name = bottom;
position = "{232, 0}";
},
{
name = ogonek;
position = "{232, 10}";
},
{
name = top;
position = "{232, 680}";
},
{
name = topright;
position = "{288, 670}";
}
);
background = {
paths = (
{
closed = 1;
nodes = (
"107 -10 OFFCURVE",
"22 126 OFFCURVE",
"22 340 CURVE SMOOTH",
"22 554 OFFCURVE",
"107 690 OFFCURVE",
"232 690 CURVE SMOOTH",
"357 690 OFFCURVE",
"442 554 OFFCURVE",
"442 340 CURVE SMOOTH",
"442 126 OFFCURVE",
"357 -10 OFFCURVE",
"232 -10 CURVE SMOOTH"
);
},
{
closed = 1;
nodes = (
"314 30 OFFCURVE",
"370 150 OFFCURVE",
"370 340 CURVE SMOOTH",
"370 530 OFFCURVE",
"314 650 OFFCURVE",
"232 650 CURVE SMOOTH",
"150 650 OFFCURVE",
"94 530 OFFCURVE",
"94 340 CURVE SMOOTH",
"94 150 OFFCURVE",
"150 30 OFFCURVE",
"232 30 CURVE SMOOTH"
);
}
);
};
guideLines = (
{
angle = 90;
position = "{370, 340}";
},
{
angle = 90;
position = "{434, 340}";
},
{
angle = 90;
position = "{232, 355}";
}
);
hints = (
{
horizontal = 1;
origin = "{0, 5}";
target = "{1, 5}";
type = TTStem;
options = 4;
},
{
horizontal = 1;
origin = "{0, 11}";
target = "{1, 11}";
type = TTStem;
options = 4;
}
);
layerId = "985FD43C-E2EB-4FA2-9714-12093F08C61F";
paths = (
{
closed = 1;
nodes = (
"352 -10 OFFCURVE",
"434 126 OFFCURVE",
"434 340 CURVE SMOOTH",
"434 554 OFFCURVE",
"352 690 OFFCURVE",
"232 690 CURVE SMOOTH",
"112 690 OFFCURVE",
"30 554 OFFCURVE",
"30 340 CURVE SMOOTH",
"30 126 OFFCURVE",
"112 -10 OFFCURVE",
"232 -10 CURVE SMOOTH"
);
},
{
closed = 1;
nodes = (
"150 26 OFFCURVE",
"94 148 OFFCURVE",
"94 340 CURVE SMOOTH",
"94 532 OFFCURVE",
"150 654 OFFCURVE",
"232 654 CURVE SMOOTH",
"314 654 OFFCURVE",
"370 532 OFFCURVE",
"370 340 CURVE SMOOTH",
"370 148 OFFCURVE",
"314 26 OFFCURVE",
"232 26 CURVE SMOOTH"
);
}
);
width = 464;
},
{
anchors = (
{
name = bottom;
position = "{260, 0}";
},
{
name = ogonek;
position = "{260, 10}";
},
{
name = top;
position = "{260, 680}";
},
{
name = topright;
position = "{321, 625}";
}
);
background = {
anchors = (
{
name = bottom;
position = "{260, 0}";
},
{
name = ogonek;
position = "{295, 10}";
},
{
name = top;
position = "{260, 680}";
},
{
name = topleft;
position = "{38, 680}";
},
{
name = topright;
position = "{482, 680}";
}
);
paths = (
{
closed = 1;
nodes = (
"380 -10 OFFCURVE",
"462 126 OFFCURVE",
"462 340 CURVE SMOOTH",
"462 554 OFFCURVE",
"380 690 OFFCURVE",
"260 690 CURVE SMOOTH",
"140 690 OFFCURVE",
"58 554 OFFCURVE",
"58 340 CURVE SMOOTH",
"58 126 OFFCURVE",
"140 -10 OFFCURVE",
"260 -10 CURVE SMOOTH"
);
},
{
closed = 1;
nodes = (
"178 26 OFFCURVE",
"122 148 OFFCURVE",
"122 340 CURVE SMOOTH",
"122 532 OFFCURVE",
"178 654 OFFCURVE",
"260 654 CURVE SMOOTH",
"342 654 OFFCURVE",
"398 532 OFFCURVE",
"398 340 CURVE SMOOTH",
"398 148 OFFCURVE",
"342 26 OFFCURVE",
"260 26 CURVE SMOOTH"
);
}
);
};
guideLines = (
{
angle = 90;
position = "{350, 340}";
},
{
angle = 90;
position = "{498, 340}";
},
{
angle = 90;
position = "{260, 241}";
}
);
layerId = "79669AF3-7E96-4900-AB6D-33745B934CAA";
paths = (
{
closed = 1;
nodes = (
"401 -10 OFFCURVE",
"498 126 OFFCURVE",
"498 340 CURVE SMOOTH",
"498 554 OFFCURVE",
"401 690 OFFCURVE",
"260 690 CURVE SMOOTH",
"119 690 OFFCURVE",
"22 554 OFFCURVE",
"22 340 CURVE SMOOTH",
"22 126 OFFCURVE",
"119 -10 OFFCURVE",
"260 -10 CURVE SMOOTH"
);
},
{
closed = 1;
nodes = (
"207 76 OFFCURVE",
"170 179 OFFCURVE",
"170 340 CURVE SMOOTH",
"170 501 OFFCURVE",
"207 604 OFFCURVE",
"260 604 CURVE SMOOTH",
"313 604 OFFCURVE",
"350 501 OFFCURVE",
"350 340 CURVE SMOOTH",
"350 179 OFFCURVE",
"313 76 OFFCURVE",
"260 76 CURVE SMOOTH"
);
}
);
width = 520;
}
);
leftKerningGroup = O;
rightKerningGroup = O;
unicode = 004F;
},
{
glyphname = Ohorntilde;
lastChange = "2020-04-28 19:31:15 +0000";
layers = (
{
background = {
paths = (
{
closed = 1;
nodes = (
"284 746 OFFCURVE",
"309 778 OFFCURVE",
"311 834 CURVE",
"279 834 LINE",
"278 802 OFFCURVE",
"269 790 OFFCURVE",
"253 790 CURVE SMOOTH",
"241 790 OFFCURVE",
"232 799 OFFCURVE",
"223 809 CURVE SMOOTH",
"211 823 OFFCURVE",
"195 838 OFFCURVE",
"168 838 CURVE SMOOTH",
"130 838 OFFCURVE",
"105 806 OFFCURVE",
"103 750 CURVE",
"135 750 LINE",
"136 782 OFFCURVE",
"145 794 OFFCURVE",
"160 794 CURVE SMOOTH",
"172 794 OFFCURVE",
"181 785 OFFCURVE",
"190 775 CURVE SMOOTH",
"202 761 OFFCURVE",
"218 746 OFFCURVE",
"246 746 CURVE SMOOTH"
);
}
);
};
components = (
{
name = Ohorn;
}
);
hints = (
{
horizontal = 1;
origin = "{0, 3}";
target = "{0, 9}";
type = Align;
options = 4;
},
{
horizontal = 1;
origin = "{0, 19}";
target = "{0, 13}";
type = Align;
options = 4;
}
);
layerId = "985FD43C-E2EB-4FA2-9714-12093F08C61F";
paths = (
{
closed = 1;
nodes = (
"269 746 OFFCURVE",
"294 778 OFFCURVE",
"296 834 CURVE",
"264 834 LINE",
"263 802 OFFCURVE",
"254 790 OFFCURVE",
"238 790 CURVE SMOOTH",
"210 790 OFFCURVE",
"212 838 OFFCURVE",
"163 838 CURVE SMOOTH",
"125 838 OFFCURVE",
"100 806 OFFCURVE",
"98 750 CURVE",
"130 750 LINE",
"131 782 OFFCURVE",
"140 794 OFFCURVE",
"156 794 CURVE SMOOTH",
"184 794 OFFCURVE",
"182 746 OFFCURVE",
"231 746 CURVE SMOOTH"
);
}
);
width = 464;
},
{
background = {
paths = (
{
closed = 1;
nodes = (
"341 742 OFFCURVE",
"365 787 OFFCURVE",
"365 861 CURVE",
"305 861 LINE",
"302 830 OFFCURVE",
"295 821 OFFCURVE",
"281 821 CURVE SMOOTH",
"274 821 OFFCURVE",
"268 827 OFFCURVE",
"259 836 CURVE SMOOTH",
"244 851 OFFCURVE",
"224 869 OFFCURVE",
"190 869 CURVE SMOOTH",
"124 869 OFFCURVE",
"100 824 OFFCURVE",
"100 750 CURVE",
"160 750 LINE",
"163 780 OFFCURVE",
"171 790 OFFCURVE",
"183 790 CURVE SMOOTH",
"190 790 OFFCURVE",
"196 784 OFFCURVE",
"205 775 CURVE SMOOTH",
"220 760 OFFCURVE",
"241 742 OFFCURVE",
"275 742 CURVE SMOOTH"
);
}
);
};
components = (
{
name = Ohorn;
}
);
layerId = "79669AF3-7E96-4900-AB6D-33745B934CAA";
paths = (
{
closed = 1;
nodes = (
"326 742 OFFCURVE",
"350 787 OFFCURVE",
"350 861 CURVE",
"290 861 LINE",
"287 830 OFFCURVE",
"280 821 OFFCURVE",
"266 821 CURVE SMOOTH",
"246 821 OFFCURVE",
"242 869 OFFCURVE",
"185 869 CURVE SMOOTH",
"119 869 OFFCURVE",
"95 824 OFFCURVE",
"95 750 CURVE",
"155 750 LINE",
"158 780 OFFCURVE",
"166 790 OFFCURVE",
"178 790 CURVE SMOOTH",
"198 790 OFFCURVE",
"202 742 OFFCURVE",
"260 742 CURVE SMOOTH"
);
}
);
width = 520;
}
);
leftKerningGroup = O;
rightKerningGroup = O;
unicode = 1EE0;
},
{
glyphname = Oogonek;
lastChange = "2020-04-18 00:01:42 +0000";
layers = (
{
anchors = (
{
name = top;
position = "{232, 680}";
}
);
background = {
paths = (
{
closed = 1;
nodes = (
"245 -170 OFFCURVE",
"271 -158 OFFCURVE",
"280 -129 CURVE",
"265 -120 LINE",
"257 -132 OFFCURVE",
"245 -136 OFFCURVE",
"232 -136 CURVE SMOOTH",
"213 -136 OFFCURVE",
"198 -121 OFFCURVE",
"198 -92 CURVE SMOOTH",
"198 -54 OFFCURVE",
"221 -23 OFFCURVE",
"280 -2 CURVE SMOOTH",
"373 30 OFFCURVE",
"434 156 OFFCURVE",
"434 340 CURVE SMOOTH",
"434 554 OFFCURVE",
"352 690 OFFCURVE",
"232 690 CURVE SMOOTH",
"112 690 OFFCURVE",
"30 554 OFFCURVE",
"30 340 CURVE SMOOTH",
"30 126 OFFCURVE",
"111 -9 OFFCURVE",
"232 -10 CURVE",
"231 -5 LINE",
"166 -31 OFFCURVE",
"144 -58 OFFCURVE",
"144 -102 CURVE SMOOTH",
"144 -149 OFFCURVE",
"179 -170 OFFCURVE",
"216 -170 CURVE SMOOTH"
);
},
{
closed = 1;
nodes = (
"150 26 OFFCURVE",
"94 148 OFFCURVE",
"94 340 CURVE SMOOTH",
"94 532 OFFCURVE",
"150 654 OFFCURVE",
"232 654 CURVE SMOOTH",
"314 654 OFFCURVE",
"370 532 OFFCURVE",
"370 340 CURVE SMOOTH",
"370 148 OFFCURVE",
"314 26 OFFCURVE",
"232 26 CURVE SMOOTH"
);
}
);
};
guideLines = (
{
angle = 90;
position = "{232, 127}";
}
);
hints = (
{
horizontal = 1;
origin = "{0, 18}";
target = "{1, 5}";
type = TTStem;
options = 4;
},
{
horizontal = 1;
origin = "{0, 24, 0, 28}";
target = "{1, 11}";
type = TTStem;
options = 4;
},
{
horizontal = 1;
origin = "{0, 31}";
target = "{0, 6}";
type = TTStem;
options = 4;
},
{
horizontal = 1;
origin = "{0, 24, 0, 28}";
target = "{0, 12}";
type = Align;
options = 4;
}
);
layerId = "985FD43C-E2EB-4FA2-9714-12093F08C61F";
paths = (
{
closed = 1;
nodes = (
"245 -170 OFFCURVE",
"271 -158 OFFCURVE",
"280 -129 CURVE",
"265 -120 LINE",
"257 -132 OFFCURVE",
"245 -136 OFFCURVE",
"232 -136 CURVE SMOOTH",
"213 -136 OFFCURVE",
"198 -121 OFFCURVE",
"198 -92 CURVE SMOOTH",
"198 -54 OFFCURVE",
"221 -22 OFFCURVE",
"280 -2 CURVE SMOOTH",
"373 30 OFFCURVE",
"434 156 OFFCURVE",
"434 340 CURVE SMOOTH",
"434 554 OFFCURVE",
"352 690 OFFCURVE",
"232 690 CURVE SMOOTH",
"112 690 OFFCURVE",
"30 554 OFFCURVE",
"30 340 CURVE SMOOTH",
"30 126 OFFCURVE",
"111 -9 OFFCURVE",
"232 -10 CURVE",
"231 -5 LINE",
"166 -31 OFFCURVE",
"144 -58 OFFCURVE",
"144 -102 CURVE SMOOTH",
"144 -149 OFFCURVE",
"179 -170 OFFCURVE",
"216 -170 CURVE SMOOTH"
);
},
{
closed = 1;
nodes = (
"150 26 OFFCURVE",
"94 148 OFFCURVE",
"94 340 CURVE SMOOTH",
"94 532 OFFCURVE",
"150 654 OFFCURVE",
"232 654 CURVE SMOOTH",
"314 654 OFFCURVE",
"370 532 OFFCURVE",
"370 340 CURVE SMOOTH",
"370 148 OFFCURVE",
"314 26 OFFCURVE",
"232 26 CURVE SMOOTH"
);
}
);
width = 464;
},
{
anchors = (
{
name = top;
position = "{260, 680}";
}
);
background = {
paths = (
{
closed = 1;
nodes = (
"282 -199 OFFCURVE",
"311 -181 OFFCURVE",
"324 -140 CURVE",
"293 -125 LINE",
"286 -139 OFFCURVE",
"274 -145 OFFCURVE",
"260 -145 CURVE SMOOTH",
"243 -145 OFFCURVE",
"233 -126 OFFCURVE",
"233 -99 CURVE SMOOTH",
"233 -56 OFFCURVE",
"263 -23 OFFCURVE",
"324 0 CURVE SMOOTH",
"429 35 OFFCURVE",
"498 160 OFFCURVE",
"498 340 CURVE SMOOTH",
"498 554 OFFCURVE",
"401 690 OFFCURVE",
"260 690 CURVE SMOOTH",
"119 690 OFFCURVE",
"22 554 OFFCURVE",
"22 340 CURVE SMOOTH",
"22 131 OFFCURVE",
"114 -4 OFFCURVE",
"250 -10 CURVE",
"250 -5 LINE",
"172 -23 OFFCURVE",
"141 -65 OFFCURVE",
"141 -108 CURVE SMOOTH",
"141 -163 OFFCURVE",
"181 -199 OFFCURVE",
"244 -199 CURVE SMOOTH"
);
},
{
closed = 1;
nodes = (
"207 76 OFFCURVE",
"170 179 OFFCURVE",
"170 340 CURVE SMOOTH",
"170 501 OFFCURVE",
"207 604 OFFCURVE",
"260 604 CURVE SMOOTH",
"313 604 OFFCURVE",
"350 501 OFFCURVE",
"350 340 CURVE SMOOTH",
"350 179 OFFCURVE",
"313 76 OFFCURVE",
"260 76 CURVE SMOOTH"
);
}
);
};
guideLines = (
{
angle = 90;
position = "{260, 76}";
}
);
layerId = "79669AF3-7E96-4900-AB6D-33745B934CAA";
paths = (
{
closed = 1;
nodes = (
"282 -199 OFFCURVE",
"311 -181 OFFCURVE",
"324 -140 CURVE",
"293 -125 LINE",
"286 -139 OFFCURVE",
"274 -145 OFFCURVE",
"260 -145 CURVE SMOOTH",
"243 -145 OFFCURVE",
"233 -126 OFFCURVE",
"233 -99 CURVE SMOOTH",
"233 -56 OFFCURVE",
"263 -21 OFFCURVE",
"324 0 CURVE SMOOTH",
"429 36 OFFCURVE",
"498 160 OFFCURVE",
"498 340 CURVE SMOOTH",
"498 554 OFFCURVE",
"401 690 OFFCURVE",
"260 690 CURVE SMOOTH",
"119 690 OFFCURVE",
"22 554 OFFCURVE",
"22 340 CURVE SMOOTH",
"22 131 OFFCURVE",
"114 -4 OFFCURVE",
"250 -10 CURVE",
"250 -5 LINE",
"172 -23 OFFCURVE",
"141 -65 OFFCURVE",
"141 -108 CURVE SMOOTH",
"141 -163 OFFCURVE",
"181 -199 OFFCURVE",
"244 -199 CURVE SMOOTH"
);
},
{
closed = 1;
nodes = (
"207 76 OFFCURVE",
"170 179 OFFCURVE",
"170 340 CURVE SMOOTH",
"170 501 OFFCURVE",
"207 604 OFFCURVE",
"260 604 CURVE SMOOTH",
"313 604 OFFCURVE",
"350 501 OFFCURVE",
"350 340 CURVE SMOOTH",
"350 179 OFFCURVE",
"313 76 OFFCURVE",
"260 76 CURVE SMOOTH"
);
}
);
width = 520;
}
);
leftKerningGroup = O;
rightKerningGroup = O;
unicode = 01EA;
},
{
glyphname = Oslash;
lastChange = "2020-04-17 17:57:47 +0000";
layers = (
{
anchors = (
{
name = bottom;
position = "{232, 0}";
},
{
name = ogonek;
position = "{232, 10}";
},
{
name = top;
position = "{232, 680}";
},
{
name = topright;
position = "{288, 670}";
}
);
background = {
paths = (
{
closed = 1;
nodes = (
"414 710 LINE",
"-5 -5 LINE",
"39 -30 LINE",
"458 685 LINE"
);
}
);
};
guideLines = (
{
angle = 90;
position = "{30, 340}";
},
{
angle = 90;
position = "{434, 340}";
},
{
position = "{232, 705}";
},
{
position = "{232, -25}";
},
{
angle = -30.3709;
position = "{307, 296}";
showMeasurement = 1;
}
);
hints = (
{
horizontal = 1;
origin = "{0, 3}";
target = "{1, 9}";
type = TTStem;
options = 4;
},
{
horizontal = 1;
origin = "{0, 15}";
target = "{2, 5}";
type = TTStem;
options = 4;
}
);
layerId = "985FD43C-E2EB-4FA2-9714-12093F08C61F";
paths = (
{
closed = 1;
nodes = (
"97 67 LINE",
"132 17 OFFCURVE",
"178 -10 OFFCURVE",
"232 -10 CURVE SMOOTH",
"352 -10 OFFCURVE",
"434 126 OFFCURVE",
"434 340 CURVE SMOOTH",
"434 439 OFFCURVE",
"416 521 OFFCURVE",
"386 581 CURVE",
"446 689 LINE",
"418 705 LINE",
"367 613 LINE",
"332 663 OFFCURVE",
"286 690 OFFCURVE",
"232 690 CURVE SMOOTH",
"112 690 OFFCURVE",
"30 554 OFFCURVE",
"30 340 CURVE SMOOTH",
"30 241 OFFCURVE",
"48 159 OFFCURVE",
"78 99 CURVE",
"18 -9 LINE",
"46 -25 LINE"
);
},
{
closed = 1;
nodes = (
"188 26 OFFCURVE",
"152 60 OFFCURVE",
"128 121 CURVE",
"350 517 LINE",
"363 469 OFFCURVE",
"370 409 OFFCURVE",
"370 340 CURVE SMOOTH",
"370 148 OFFCURVE",
"314 26 OFFCURVE",
"232 26 CURVE SMOOTH"
);
},
{
closed = 1;
nodes = (
"101 211 OFFCURVE",
"94 271 OFFCURVE",
"94 340 CURVE SMOOTH",
"94 532 OFFCURVE",
"150 654 OFFCURVE",
"232 654 CURVE SMOOTH",
"276 654 OFFCURVE",
"312 620 OFFCURVE",
"336 559 CURVE",
"114 163 LINE"
);
}
);
width = 464;
},
{
anchors = (
{
name = bottom;
position = "{260, 0}";
},
{
name = ogonek;
position = "{260, 10}";
},
{
name = top;
position = "{260, 680}";
},
{
name = topright;
position = "{321, 625}";
}
);
background = {
paths = (
{
closed = 1;
nodes = (
"418 710 LINE",
"26 13 LINE",
"101 -30 LINE",
"493 667 LINE"
);
}
);
};
guideLines = (
{
angle = -29.2586;
position = "{192, 363}";
showMeasurement = 1;
},
{
position = "{260, 710}";
},
{
position = "{260, -30}";
},
{
angle = 90;
position = "{498, 340}";
}
);
layerId = "79669AF3-7E96-4900-AB6D-33745B934CAA";
paths = (
{
closed = 1;
nodes = (
"136 33 LINE",
"171 5 OFFCURVE",
"213 -10 OFFCURVE",
"260 -10 CURVE SMOOTH",
"401 -10 OFFCURVE",
"498 126 OFFCURVE",
"498 340 CURVE SMOOTH",
"498 437 OFFCURVE",
"478 518 OFFCURVE",
"443 578 CURVE",
"493 667 LINE",
"426 706 LINE",
"390 642 LINE",
"354 673 OFFCURVE",
"310 690 OFFCURVE",
"260 690 CURVE SMOOTH",
"119 690 OFFCURVE",
"22 554 OFFCURVE",
"22 340 CURVE SMOOTH",
"22 238 OFFCURVE",
"44 154 OFFCURVE",
"82 94 CURVE",
"34 9 LINE",
"101 -30 LINE"
);
},
{
closed = 1;
nodes = (
"235 76 OFFCURVE",
"213 99 OFFCURVE",
"197 141 CURVE",
"348 408 LINE",
"349 387 OFFCURVE",
"350 364 OFFCURVE",
"350 340 CURVE SMOOTH",
"350 179 OFFCURVE",
"313 76 OFFCURVE",
"260 76 CURVE SMOOTH"
);
},
{
closed = 1;
nodes = (
"171 283 OFFCURVE",
"170 310 OFFCURVE",
"170 340 CURVE SMOOTH",
"170 501 OFFCURVE",
"207 604 OFFCURVE",
"260 604 CURVE SMOOTH",
"287 604 OFFCURVE",
"310 577 OFFCURVE",
"326 529 CURVE",
"174 257 LINE"
);
}
);
width = 520;
},
{
anchors = (
{
name = bottom;
position = "{232, 0}";
},
{
name = ogonek;
position = "{232, 10}";
},
{
name = top;
position = "{232, 680}";
},
{
name = topright;
position = "{288, 670}";
}
);
associatedMasterId = "985FD43C-E2EB-4FA2-9714-12093F08C61F";
background = {
paths = (
{
closed = 1;
nodes = (
"414 710 LINE",
"-5 -5 LINE",
"39 -30 LINE",
"458 685 LINE"
);
}
);
};
guideLines = (
{
angle = 90;
position = "{30, 340}";
},
{
angle = 90;
position = "{434, 340}";
},
{
position = "{232, 705}";
},
{
position = "{232, -25}";
},
{
angle = -30.3709;
position = "{307, 296}";
showMeasurement = 1;
}
);
hints = (
{
horizontal = 1;
origin = "{1, 5}";
target = "{2, 5}";
type = TTStem;
options = 4;
},
{
horizontal = 1;
origin = "{1, 11}";
target = "{2, 11}";
type = TTStem;
options = 4;
}
);
layerId = "0D6B4DF7-92FB-4F33-BE36-691668391A6A";
name = "Apr 16 20, 16:51";
paths = (
{
closed = 1;
nodes = (
"418 705 LINE",
"18 -9 LINE",
"46 -25 LINE",
"446 689 LINE"
);
},
{
closed = 1;
nodes = (
"352 -10 OFFCURVE",
"434 126 OFFCURVE",
"434 340 CURVE SMOOTH",
"434 554 OFFCURVE",
"352 690 OFFCURVE",
"232 690 CURVE SMOOTH",
"112 690 OFFCURVE",
"30 554 OFFCURVE",
"30 340 CURVE SMOOTH",
"30 126 OFFCURVE",
"112 -10 OFFCURVE",
"232 -10 CURVE SMOOTH"
);
},
{
closed = 1;
nodes = (
"150 26 OFFCURVE",
"94 148 OFFCURVE",
"94 340 CURVE SMOOTH",
"94 532 OFFCURVE",
"150 654 OFFCURVE",
"232 654 CURVE SMOOTH",
"314 654 OFFCURVE",
"370 532 OFFCURVE",
"370 340 CURVE SMOOTH",
"370 148 OFFCURVE",
"314 26 OFFCURVE",
"232 26 CURVE SMOOTH"
);
}
);
width = 464;
},
{
anchors = (
{
name = bottom;
position = "{260, 0}";
},
{
name = ogonek;
position = "{260, 10}";
},
{
name = top;
position = "{260, 680}";
},
{
name = topright;
position = "{321, 625}";
}
);
associatedMasterId = "79669AF3-7E96-4900-AB6D-33745B934CAA";
background = {
paths = (
{
closed = 1;
nodes = (
"418 710 LINE",
"26 13 LINE",
"101 -30 LINE",
"493 667 LINE"
);
}
);
};
guideLines = (
{
angle = -29.2586;
position = "{192, 363}";
showMeasurement = 1;
},
{
position = "{260, 710}";
},
{
position = "{260, -30}";
},
{
angle = 90;
position = "{498, 340}";
}
);
layerId = "6B5B2730-1468-4503-9051-8C6FF7E2C08A";
name = "Apr 16 20, 16:51";
paths = (
{
closed = 1;
nodes = (
"426 706 LINE",
"34 9 LINE",
"101 -30 LINE",
"493 667 LINE"
);
},
{
closed = 1;
nodes = (
"401 -10 OFFCURVE",
"498 126 OFFCURVE",
"498 340 CURVE SMOOTH",
"498 554 OFFCURVE",
"401 690 OFFCURVE",
"260 690 CURVE SMOOTH",
"119 690 OFFCURVE",
"22 554 OFFCURVE",
"22 340 CURVE SMOOTH",
"22 126 OFFCURVE",
"119 -10 OFFCURVE",
"260 -10 CURVE SMOOTH"
);
},
{
closed = 1;
nodes = (
"207 76 OFFCURVE",
"170 179 OFFCURVE",
"170 340 CURVE SMOOTH",
"170 501 OFFCURVE",
"207 604 OFFCURVE",
"260 604 CURVE SMOOTH",
"313 604 OFFCURVE",
"350 501 OFFCURVE",
"350 340 CURVE SMOOTH",
"350 179 OFFCURVE",
"313 76 OFFCURVE",
"260 76 CURVE SMOOTH"
);
}
);
width = 520;
}
);
leftKerningGroup = O;
rightKerningGroup = O;
unicode = 00D8;
},
{
color = 0;
glyphname = OE;
lastChange = "2020-04-27 19:48:16 +0000";
layers = (
{
anchors = (
{
name = bottom;
position = "{401, 0}";
},
{
name = ogonek;
position = "{401, 10}";
},
{
name = top;
position = "{401, 680}";
}
);
background = {
paths = (
{
closed = 1;
nodes = (
"428 20 LINE",
"428 660 LINE",
"370 660 LINE",
"370 20 LINE"
);
},
{
closed = 1;
nodes = (
"645 0 LINE",
"645 83 LINE",
"609 83 LINE",
"609 32 LINE",
"348 32 LINE",
"348 0 LINE"
);
},
{
closed = 1;
nodes = (
"586 431 LINE",
"586 503 LINE",
"550 503 LINE",
"550 483 LINE",
"406 483 LINE",
"406 451 LINE",
"550 451 LINE",
"550 431 LINE"
);
},
{
closed = 1;
nodes = (
"645 597 LINE",
"645 680 LINE",
"348 680 LINE",
"348 648 LINE",
"609 648 LINE",
"609 597 LINE"
);
}
);
};
components = (
{
name = O;
}
);
guideLines = (
{
angle = 90;
position = "{401, 340}";
}
);
hints = (
{
horizontal = 1;
origin = "{1, 5}";
target = "{1, 4}";
type = TTStem;
options = 4;
},
{
horizontal = 1;
origin = "{0, 2}";
target = "{0, 3}";
type = TTStem;
options = 4;
},
{
horizontal = 1;
origin = "{2, 5}";
target = "{2, 4}";
type = TTStem;
options = 4;
}
);
layerId = "985FD43C-E2EB-4FA2-9714-12093F08C61F";
paths = (
{
closed = 1;
nodes = (
"625 597 LINE",
"625 680 LINE",
"276 680 LINE",
"276 648 LINE",
"589 648 LINE",
"589 597 LINE"
);
},
{
closed = 1;
nodes = (
"625 0 LINE",
"625 83 LINE",
"589 83 LINE",
"589 32 LINE",
"276 32 LINE",
"276 0 LINE"
);
},
{
closed = 1;
nodes = (
"566 431 LINE",
"566 503 LINE",
"530 503 LINE",
"530 483 LINE",
"406 483 LINE",
"406 451 LINE",
"530 451 LINE",
"530 431 LINE"
);
}
);
width = 667;
},
{
anchors = (
{
name = bottom;
position = "{424, 0}";
},
{
name = ogonek;
position = "{424, 10}";
},
{
name = top;
position = "{424, 680}";
}
);
annotations = (
{
position = "{566, 263}";
text = "WTF  is going on with interpolation of E? Why so light in intermediate instances?";
type = Text;
},
{
position = "{484.5, 719.5}";
type = Text;
}
);
background = {
paths = (
{
closed = 1;
nodes = (
"681 0 LINE",
"681 128 LINE",
"603 128 LINE",
"603 78 LINE",
"311 78 LINE",
"311 0 LINE"
);
},
{
closed = 1;
nodes = (
"625 408 LINE",
"625 526 LINE",
"547 526 LINE",
"547 506 LINE",
"463 506 LINE",
"463 428 LINE",
"547 428 LINE",
"547 408 LINE"
);
},
{
closed = 1;
nodes = (
"681 552 LINE",
"681 680 LINE",
"311 680 LINE",
"311 602 LINE",
"603 602 LINE",
"603 552 LINE"
);
}
);
};
components = (
{
name = O;
}
);
guideLines = (
{
angle = 90;
position = "{424, 340}";
}
);
layerId = "79669AF3-7E96-4900-AB6D-33745B934CAA";
paths = (
{
closed = 1;
nodes = (
"681 552 LINE",
"681 680 LINE",
"311 680 LINE",
"311 602 LINE",
"603 602 LINE",
"603 552 LINE"
);
},
{
closed = 1;
nodes = (
"681 0 LINE",
"681 128 LINE",
"603 128 LINE",
"603 78 LINE",
"311 78 LINE",
"311 0 LINE"
);
},
{
closed = 1;
nodes = (
"625 408 LINE",
"625 526 LINE",
"547 526 LINE",
"547 506 LINE",
"463 506 LINE",
"463 428 LINE",
"547 428 LINE",
"547 408 LINE"
);
}
);
width = 706;
}
);
leftKerningGroup = O;
leftMetricsKey = O;
rightKerningGroup = E;
rightMetricsKey = E;
unicode = 0152;
},
{
glyphname = P;
lastChange = "2020-04-18 00:07:37 +0000";
layers = (
{
anchors = (
{
name = bottom;
position = "{98, 0}";
},
{
name = ogonek;
position = "{98, 10}";
},
{
name = top;
position = "{230, 680}";
}
);
background = {
paths = (
{
closed = 1;
nodes = (
"365 315 OFFCURVE",
"292 232 OFFCURVE",
"193 232 CURVE SMOOTH",
"107 232 LINE",
"107 200 LINE",
"203 200 LINE SMOOTH",
"256 200 OFFCURVE",
"302 215 OFFCURVE",
"339 242 CURVE SMOOTH",
"398 284 OFFCURVE",
"437 351 OFFCURVE",
"437 444 CURVE SMOOTH",
"437 586 OFFCURVE",
"356 680 OFFCURVE",
"183 680 CURVE SMOOTH",
"51 680 LINE",
"51 648 LINE",
"193 648 LINE SMOOTH",
"287 648 OFFCURVE",
"365 570 OFFCURVE",
"365 444 CURVE SMOOTH"
);
}
);
};
guideLines = (
{
angle = 90;
position = "{431, 440}";
}
);
hints = (
{
horizontal = 1;
origin = "{0, 16}";
target = "{0, 0}";
type = TTStem;
options = 4;
},
{
horizontal = 1;
origin = "{0, 0}";
target = "{1, 0}";
type = Align;
options = 4;
},
{
horizontal = 1;
origin = "{0, 4}";
target = "{0, 3}";
type = TTStem;
options = 4;
},
{
horizontal = 1;
origin = "{0, 3}";
target = "{0, 7}";
type = Align;
options = 4;
},
{
horizontal = 1;
origin = "{0, 8}";
type = Anchor;
},
{
horizontal = 1;
origin = "{0, 8}";
target = "{1, 8}";
type = TTStem;
options = 4;
}
);
layerId = "985FD43C-E2EB-4FA2-9714-12093F08C61F";
paths = (
{
closed = 1;
nodes = (
"47 648 LINE",
"69 648 LINE",
"69 32 LINE",
"47 32 LINE",
"47 0 LINE",
"149 0 LINE",
"149 32 LINE",
"127 32 LINE",
"127 200 LINE",
"183 200 LINE SMOOTH",
"352 200 OFFCURVE",
"431 294 OFFCURVE",
"431 440 CURVE SMOOTH",
"431 586 OFFCURVE",
"352 680 OFFCURVE",
"183 680 CURVE SMOOTH",
"47 680 LINE"
);
},
{
closed = 1;
nodes = (
"127 648 LINE",
"193 648 LINE SMOOTH",
"287 648 OFFCURVE",
"365 570 OFFCURVE",
"365 440 CURVE SMOOTH",
"365 310 OFFCURVE",
"287 232 OFFCURVE",
"193 232 CURVE SMOOTH",
"127 232 LINE"
);
}
);
width = 459;
},
{
anchors = (
{
name = bottom;
position = "{119, 0}";
},
{
name = ogonek;
position = "{119, 10}";
},
{
name = top;
position = "{252, 680}";
}
);
guideLines = (
{
angle = 90;
position = "{471, 435}";
}
);
layerId = "79669AF3-7E96-4900-AB6D-33745B934CAA";
paths = (
{
closed = 1;
nodes = (
"33 602 LINE",
"55 602 LINE",
"55 78 LINE",
"33 78 LINE",
"33 0 LINE",
"205 0 LINE",
"205 78 LINE",
"183 78 LINE",
"183 181 LINE",
"216 181 LINE SMOOTH",
"370 181 OFFCURVE",
"471 287 OFFCURVE",
"471 435 CURVE SMOOTH",
"471 582 OFFCURVE",
"383 680 OFFCURVE",
"196 680 CURVE SMOOTH",
"33 680 LINE"
);
},
{
closed = 1;
nodes = (
"183 602 LINE",
"186 602 LINE SMOOTH",
"280 602 OFFCURVE",
"323 538 OFFCURVE",
"323 435 CURVE SMOOTH",
"323 328 OFFCURVE",
"283 259 OFFCURVE",
"186 259 CURVE SMOOTH",
"183 259 LINE"
);
}
);
width = 491;
}
);
leftKerningGroup = H;
leftMetricsKey = H;
rightKerningGroup = P;
unicode = 0050;
},
{
glyphname = Thorn;
lastChange = "2020-04-18 00:07:50 +0000";
layers = (
{
anchors = (
{
name = bottom;
position = "{98, 0}";
},
{
name = ogonek;
position = "{98, 10}";
},
{
name = top;
position = "{230, 680}";
}
);
guideLines = (
{
angle = 90;
position = "{431, 340}";
}
);
hints = (
{
horizontal = 1;
origin = "{0, 3}";
target = "{0, 4}";
type = TTStem;
options = 4;
},
{
horizontal = 1;
origin = "{0, 4}";
target = "{0, 0}";
type = Align;
options = 4;
},
{
horizontal = 1;
origin = "{0, 8}";
target = "{0, 7}";
type = TTStem;
options = 4;
},
{
horizontal = 1;
origin = "{0, 7}";
target = "{0, 11}";
type = Align;
options = 4;
},
{
horizontal = 1;
origin = "{0, 20}";
type = Anchor;
},
{
horizontal = 1;
origin = "{0, 12}";
type = Anchor;
},
{
horizontal = 1;
origin = "{0, 12}";
target = "{1, 8}";
type = TTStem;
options = 4;
},
{
horizontal = 1;
origin = "{0, 20}";
target = "{1, 0}";
type = TTStem;
options = 4;
}
);
layerId = "985FD43C-E2EB-4FA2-9714-12093F08C61F";
paths = (
{
closed = 1;
nodes = (
"127 648 LINE",
"149 648 LINE",
"149 680 LINE",
"47 680 LINE",
"47 648 LINE",
"69 648 LINE",
"69 32 LINE",
"47 32 LINE",
"47 0 LINE",
"149 0 LINE",
"149 32 LINE",
"127 32 LINE",
"127 100 LINE",
"183 100 LINE SMOOTH",
"352 100 OFFCURVE",
"431 194 OFFCURVE",
"431 340 CURVE SMOOTH",
"431 486 OFFCURVE",
"352 580 OFFCURVE",
"183 580 CURVE SMOOTH",
"127 580 LINE"
);
},
{
closed = 1;
nodes = (
"127 548 LINE",
"193 548 LINE SMOOTH",
"287 548 OFFCURVE",
"365 470 OFFCURVE",
"365 340 CURVE SMOOTH",
"365 210 OFFCURVE",
"287 132 OFFCURVE",
"193 132 CURVE SMOOTH",
"127 132 LINE"
);
}
);
width = 459;
},
{
anchors = (
{
name = bottom;
position = "{119, 0}";
},
{
name = ogonek;
position = "{119, 10}";
},
{
name = top;
position = "{246, 680}";
}
);
guideLines = (
{
angle = 90;
position = "{471, 345}";
}
);
layerId = "79669AF3-7E96-4900-AB6D-33745B934CAA";
paths = (
{
closed = 1;
nodes = (
"183 602 LINE",
"205 602 LINE",
"205 680 LINE",
"33 680 LINE",
"33 602 LINE",
"55 602 LINE",
"55 78 LINE",
"33 78 LINE",
"33 0 LINE",
"205 0 LINE",
"205 78 LINE",
"183 78 LINE",
"183 111 LINE",
"216 111 LINE SMOOTH",
"370 111 OFFCURVE",
"471 209 OFFCURVE",
"471 345 CURVE SMOOTH",
"471 480 OFFCURVE",
"383 570 OFFCURVE",
"196 570 CURVE SMOOTH",
"183 570 LINE"
);
},
{
closed = 1;
nodes = (
"183 492 LINE",
"186 492 LINE SMOOTH",
"280 492 OFFCURVE",
"323 436 OFFCURVE",
"323 345 CURVE SMOOTH",
"323 250 OFFCURVE",
"283 189 OFFCURVE",
"186 189 CURVE SMOOTH",
"183 189 LINE"
);
}
);
width = 491;
}
);
leftKerningGroup = H;
leftMetricsKey = H;
rightMetricsKey = P;
unicode = 00DE;
},
{
glyphname = Q;
lastChange = "2020-04-18 00:05:33 +0000";
layers = (
{
associatedMasterId = "985FD43C-E2EB-4FA2-9714-12093F08C61F";
background = {
paths = (
{
closed = 1;
nodes = (
"375 -10 OFFCURVE",
"460 126 OFFCURVE",
"460 340 CURVE SMOOTH",
"460 554 OFFCURVE",
"375 690 OFFCURVE",
"250 690 CURVE SMOOTH",
"125 690 OFFCURVE",
"40 554 OFFCURVE",
"40 340 CURVE SMOOTH",
"40 126 OFFCURVE",
"125 -10 OFFCURVE",
"250 -10 CURVE SMOOTH"
);
},
{
closed = 1;
nodes = (
"168 30 OFFCURVE",
"112 150 OFFCURVE",
"112 340 CURVE SMOOTH",
"112 530 OFFCURVE",
"168 650 OFFCURVE",
"250 650 CURVE SMOOTH",
"332 650 OFFCURVE",
"388 530 OFFCURVE",
"388 340 CURVE SMOOTH",
"388 150 OFFCURVE",
"332 30 OFFCURVE",
"250 30 CURVE SMOOTH"
);
}
);
};
components = (
{
locked = 1;
name = O;
}
);
guideLines = (
{
angle = 90;
position = "{444, 340}";
},
{
angle = 90;
position = "{380, 340}";
},
{
angle = 90;
position = "{411, 340}";
},
{
angle = 90;
position = "{242, -48}";
showMeasurement = 1;
}
);
layerId = "61C54CF0-570D-4DE8-84B7-8528B48F6319";
name = "Sep 13 18, 14:54";
paths = (
{
closed = 1;
nodes = (
"313 -100 OFFCURVE",
"242 -25 OFFCURVE",
"242 96 CURVE",
"274 96 LINE",
"276 -23 OFFCURVE",
"349 -56 OFFCURVE",
"411 -56 CURVE",
"411 -100 LINE"
);
}
);
width = 500;
},
{
associatedMasterId = "985FD43C-E2EB-4FA2-9714-12093F08C61F";
background = {
paths = (
{
closed = 1;
nodes = (
"375 -10 OFFCURVE",
"460 126 OFFCURVE",
"460 340 CURVE SMOOTH",
"460 554 OFFCURVE",
"375 690 OFFCURVE",
"250 690 CURVE SMOOTH",
"125 690 OFFCURVE",
"40 554 OFFCURVE",
"40 340 CURVE SMOOTH",
"40 126 OFFCURVE",
"125 -10 OFFCURVE",
"250 -10 CURVE SMOOTH"
);
},
{
closed = 1;
nodes = (
"168 30 OFFCURVE",
"112 150 OFFCURVE",
"112 340 CURVE SMOOTH",
"112 530 OFFCURVE",
"168 650 OFFCURVE",
"250 650 CURVE SMOOTH",
"332 650 OFFCURVE",
"388 530 OFFCURVE",
"388 340 CURVE SMOOTH",
"388 150 OFFCURVE",
"332 30 OFFCURVE",
"250 30 CURVE SMOOTH"
);
}
);
};
components = (
{
locked = 1;
name = O;
}
);
guideLines = (
{
angle = 90;
position = "{444, 340}";
},
{
angle = 90;
position = "{380, 340}";
},
{
angle = 90;
position = "{411, 340}";
},
{
angle = 90;
position = "{242, -48}";
},
{
position = "{202, 62}";
}
);
layerId = "B3F5A08E-089F-45DF-98BC-03904DB74C40";
name = "Sep 13 18, 14:47";
paths = (
{
closed = 1;
nodes = (
"285 72 LINE",
"300 -27 OFFCURVE",
"359 -56 OFFCURVE",
"411 -56 CURVE",
"411 -100 LINE",
"328 -100 OFFCURVE",
"265 -35 OFFCURVE",
"252 67 CURVE"
);
}
);
width = 500;
},
{
associatedMasterId = "985FD43C-E2EB-4FA2-9714-12093F08C61F";
background = {
paths = (
{
closed = 1;
nodes = (
"375 -10 OFFCURVE",
"460 126 OFFCURVE",
"460 340 CURVE SMOOTH",
"460 554 OFFCURVE",
"375 690 OFFCURVE",
"250 690 CURVE SMOOTH",
"125 690 OFFCURVE",
"40 554 OFFCURVE",
"40 340 CURVE SMOOTH",
"40 126 OFFCURVE",
"125 -10 OFFCURVE",
"250 -10 CURVE SMOOTH"
);
},
{
closed = 1;
nodes = (
"168 30 OFFCURVE",
"112 150 OFFCURVE",
"112 340 CURVE SMOOTH",
"112 530 OFFCURVE",
"168 650 OFFCURVE",
"250 650 CURVE SMOOTH",
"332 650 OFFCURVE",
"388 530 OFFCURVE",
"388 340 CURVE SMOOTH",
"388 150 OFFCURVE",
"332 30 OFFCURVE",
"250 30 CURVE SMOOTH"
);
}
);
};
components = (
{
locked = 1;
name = O;
}
);
guideLines = (
{
angle = 90;
position = "{444, 340}";
},
{
angle = 90;
position = "{380, 340}";
},
{
angle = 90;
position = "{411, 340}";
},
{
angle = 90;
position = "{242, -48}";
}
);
layerId = "7540957F-56C0-48FF-9C62-1BC97E5DD3A7";
name = "Sep 13 18, 14:56";
paths = (
{
closed = 1;
nodes = (
"260 -120 OFFCURVE",
"215 -65 OFFCURVE",
"215 10 CURVE",
"269 10 LINE",
"271 -51 OFFCURVE",
"300 -82 OFFCURVE",
"380 -82 CURVE",
"380 -120 LINE"
);
}
);
width = 500;
},
{
associatedMasterId = "985FD43C-E2EB-4FA2-9714-12093F08C61F";
background = {
paths = (
{
closed = 1;
nodes = (
"375 -10 OFFCURVE",
"460 126 OFFCURVE",
"460 340 CURVE SMOOTH",
"460 554 OFFCURVE",
"375 690 OFFCURVE",
"250 690 CURVE SMOOTH",
"125 690 OFFCURVE",
"40 554 OFFCURVE",
"40 340 CURVE SMOOTH",
"40 126 OFFCURVE",
"125 -10 OFFCURVE",
"250 -10 CURVE SMOOTH"
);
},
{
closed = 1;
nodes = (
"168 30 OFFCURVE",
"112 150 OFFCURVE",
"112 340 CURVE SMOOTH",
"112 530 OFFCURVE",
"168 650 OFFCURVE",
"250 650 CURVE SMOOTH",
"332 650 OFFCURVE",
"388 530 OFFCURVE",
"388 340 CURVE SMOOTH",
"388 150 OFFCURVE",
"332 30 OFFCURVE",
"250 30 CURVE SMOOTH"
);
}
);
};
components = (
{
locked = 1;
name = O;
}
);
guideLines = (
{
angle = 90;
position = "{444, 340}";
},
{
angle = 90;
position = "{380, 340}";
},
{
angle = 90;
position = "{411, 340}";
}
);
layerId = "1A842EA8-112F-4212-A9CF-924B110B1016";
name = "Sep 13 18, 14:58";
paths = (
{
closed = 1;
nodes = (
"254 -90 OFFCURVE",
"193 -53 OFFCURVE",
"113 59 CURVE",
"166 66 LINE",
"215 -12 OFFCURVE",
"277 -52 OFFCURVE",
"411 -52 CURVE",
"411 -90 LINE"
);
}
);
width = 500;
},
{
associatedMasterId = "985FD43C-E2EB-4FA2-9714-12093F08C61F";
background = {
paths = (
{
closed = 0;
nodes = (
"380 -76 LINE",
"380 -120 LINE"
);
}
);
};
components = (
{
locked = 1;
name = O;
}
);
guideLines = (
{
angle = 90;
position = "{444, 340}";
},
{
angle = 90;
position = "{380, 340}";
},
{
angle = 90;
position = "{411, 340}";
},
{
angle = 90;
position = "{242, -48}";
showMeasurement = 1;
}
);
layerId = "4C6B29AF-F465-4538-A7F3-69FB92037D54";
name = "Sep 13 18, 15:04";
paths = (
{
closed = 1;
nodes = (
"280 -120 OFFCURVE",
"224 -63 OFFCURVE",
"224 6 CURVE",
"260 6 LINE",
"262 -47 OFFCURVE",
"314 -76 OFFCURVE",
"380 -76 CURVE",
"380 -120 LINE"
);
}
);
width = 500;
},
{
associatedMasterId = "985FD43C-E2EB-4FA2-9714-12093F08C61F";
background = {
paths = (
{
closed = 1;
nodes = (
"375 -10 OFFCURVE",
"460 126 OFFCURVE",
"460 340 CURVE SMOOTH",
"460 554 OFFCURVE",
"375 690 OFFCURVE",
"250 690 CURVE SMOOTH",
"125 690 OFFCURVE",
"40 554 OFFCURVE",
"40 340 CURVE SMOOTH",
"40 126 OFFCURVE",
"125 -10 OFFCURVE",
"250 -10 CURVE SMOOTH"
);
},
{
closed = 1;
nodes = (
"168 30 OFFCURVE",
"112 150 OFFCURVE",
"112 340 CURVE SMOOTH",
"112 530 OFFCURVE",
"168 650 OFFCURVE",
"250 650 CURVE SMOOTH",
"332 650 OFFCURVE",
"388 530 OFFCURVE",
"388 340 CURVE SMOOTH",
"388 150 OFFCURVE",
"332 30 OFFCURVE",
"250 30 CURVE SMOOTH"
);
}
);
};
components = (
{
locked = 1;
name = O;
}
);
guideLines = (
{
angle = 90;
position = "{444, 340}";
},
{
angle = 90;
position = "{380, 340}";
},
{
angle = 90;
position = "{411, 340}";
},
{
angle = 90;
position = "{242, -48}";
showMeasurement = 1;
}
);
layerId = "204B32C3-1262-454C-BE0E-3ABF43CB1DA1";
name = "Sep 13 18, 15:05";
paths = (
{
closed = 1;
nodes = (
"303 -120 OFFCURVE",
"252 -65 OFFCURVE",
"252 4 CURVE",
"288 4 LINE",
"290 -49 OFFCURVE",
"336 -76 OFFCURVE",
"395 -76 CURVE",
"395 -120 LINE"
);
}
);
width = 500;
},
{
anchors = (
{
name = bottom;
position = "{90, 0}";
},
{
name = ogonek;
position = "{310, -91}";
},
{
name = top;
position = "{232, 680}";
}
);
background = {
paths = (
{
closed = 0;
nodes = (
"380 -76 LINE",
"380 -120 LINE"
);
}
);
};
components = (
{
locked = 1;
name = O;
}
);
guideLines = (
{
angle = 90;
position = "{444, 340}";
},
{
angle = 90;
position = "{30, 340}";
},
{
angle = 90;
position = "{232, 26}";
}
);
hints = (
{
horizontal = 1;
origin = "{0, 7}";
target = "{0, 0}";
type = TTStem;
options = 4;
},
{
horizontal = 1;
origin = "{0, 4}";
target = "{0, 3}";
type = Align;
options = 4;
}
);
layerId = "985FD43C-E2EB-4FA2-9714-12093F08C61F";
paths = (
{
closed = 1;
nodes = (
"370 -72 LINE",
"304 -72 OFFCURVE",
"251 -42 OFFCURVE",
"249 6 CURVE",
"215 6 LINE",
"215 -67 OFFCURVE",
"270 -130 OFFCURVE",
"370 -130 CURVE"
);
}
);
width = 464;
},
{
anchors = (
{
name = bottom;
position = "{121, 0}";
},
{
name = ogonek;
position = "{316, -85}";
},
{
name = top;
position = "{260, 680}";
}
);
components = (
{
locked = 1;
name = O;
}
);
guideLines = (
{
angle = 90;
position = "{260, 76}";
},
{
angle = 90;
position = "{219, 333}";
},
{
angle = 90;
position = "{22, 340}";
},
{
angle = 90;
position = "{350, 340}";
},
{
angle = 90;
position = "{313, 340}";
}
);
layerId = "79669AF3-7E96-4900-AB6D-33745B934CAA";
paths = (
{
closed = 1;
nodes = (
"406 -40 LINE",
"318 -40 OFFCURVE",
"309 -31 OFFCURVE",
"307 6 CURVE",
"213 6 LINE",
"213 -97 OFFCURVE",
"281 -150 OFFCURVE",
"406 -150 CURVE"
);
}
);
width = 520;
}
);
leftKerningGroup = O;
leftMetricsKey = O;
rightKerningGroup = O;
rightMetricsKey = O;
unicode = 0051;
},
{
glyphname = R;
lastChange = "2020-04-18 00:08:31 +0000";
layers = (
{
anchors = (
{
name = bottom;
position = "{223, 0}";
},
{
name = ogonek;
position = "{223, 10}";
},
{
name = top;
position = "{239, 680}";
}
);
background = {
paths = (
{
closed = 1;
nodes = (
"203 200 LINE SMOOTH",
"256 200 OFFCURVE",
"302 215 OFFCURVE",
"339 242 CURVE SMOOTH",
"394 284 OFFCURVE",
"431 351 OFFCURVE",
"431 444 CURVE SMOOTH",
"431 586 OFFCURVE",
"352 680 OFFCURVE",
"183 680 CURVE SMOOTH",
"47 680 LINE",
"47 648 LINE",
"193 648 LINE SMOOTH",
"287 648 OFFCURVE",
"365 570 OFFCURVE",
"365 444 CURVE SMOOTH",
"365 315 OFFCURVE",
"292 232 OFFCURVE",
"193 232 CURVE SMOOTH",
"107 232 LINE",
"107 200 LINE"
);
},
{
closed = 1;
nodes = (
"149 0 LINE",
"149 32 LINE",
"47 32 LINE",
"47 0 LINE"
);
},
{
closed = 1;
nodes = (
"127 20 LINE",
"127 660 LINE",
"69 660 LINE",
"69 20 LINE"
);
},
{
closed = 1;
nodes = (
"435 15 LINE",
"362 35 OFFCURVE",
"299 109 OFFCURVE",
"272 215 CURVE",
"211 210 LINE",
"238 103 OFFCURVE",
"317 12 OFFCURVE",
"425 -15 CURVE"
);
}
);
};
guideLines = (
{
angle = 90;
position = "{365, 444}";
},
{
angle = 90;
position = "{431, 444}";
},
{
angle = 90;
position = "{398, 444}";
},
{
angle = 16.5688;
position = "{249, 200}";
showMeasurement = 1;
}
);
hints = (
{
horizontal = 1;
origin = "{1, 3}";
target = "{1, 2}";
type = TTStem;
options = 4;
},
{
horizontal = 1;
origin = "{1, 2}";
target = "{1, 2, 2, 1}";
type = Align;
options = 4;
},
{
horizontal = 1;
origin = "{0, 7}";
target = "{0, 8}";
type = TTStem;
options = 4;
},
{
horizontal = 1;
origin = "{0, 8}";
target = "{0, 9, 2, 1}";
type = Align;
options = 4;
},
{
horizontal = 1;
origin = "{3, 7}";
target = "{3, 0}";
type = TTStem;
options = 4;
},
{
horizontal = 1;
origin = "{0, 0, 2, 1}";
type = Anchor;
},
{
horizontal = 1;
origin = "{0, 0, 2, 1}";
target = "{0, 16, 2, 1}";
type = TTStem;
options = 4;
}
);
layerId = "985FD43C-E2EB-4FA2-9714-12093F08C61F";
paths = (
{
closed = 1;
nodes = (
"203 200 LINE SMOOTH",
"341 200 OFFCURVE",
"431 302 OFFCURVE",
"431 444 CURVE SMOOTH",
"431 586 OFFCURVE",
"352 680 OFFCURVE",
"183 680 CURVE SMOOTH",
"47 680 LINE",
"47 648 LINE",
"193 648 LINE SMOOTH",
"287 648 OFFCURVE",
"365 570 OFFCURVE",
"365 444 CURVE SMOOTH",
"365 315 OFFCURVE",
"292 232 OFFCURVE",
"193 232 CURVE SMOOTH",
"107 232 LINE",
"107 200 LINE"
);
},
{
closed = 1;
nodes = (
"149 0 LINE",
"149 32 LINE",
"47 32 LINE",
"47 0 LINE"
);
},
{
closed = 1;
nodes = (
"127 20 LINE",
"127 660 LINE",
"69 660 LINE",
"69 20 LINE"
);
},
{
closed = 1;
nodes = (
"435 15 LINE",
"362 35 OFFCURVE",
"299 109 OFFCURVE",
"272 215 CURVE",
"211 210 LINE",
"238 103 OFFCURVE",
"317 12 OFFCURVE",
"425 -15 CURVE"
);
}
);
width = 459;
},
{
associatedMasterId = "985FD43C-E2EB-4FA2-9714-12093F08C61F";
background = {
paths = (
{
closed = 1;
nodes = (
"375 315 OFFCURVE",
"302 232 OFFCURVE",
"203 232 CURVE SMOOTH",
"117 232 LINE",
"117 200 LINE",
"213 200 LINE SMOOTH",
"266 200 OFFCURVE",
"312 215 OFFCURVE",
"349 242 CURVE SMOOTH",
"404 284 OFFCURVE",
"441 351 OFFCURVE",
"441 444 CURVE SMOOTH",
"441 586 OFFCURVE",
"362 680 OFFCURVE",
"193 680 CURVE SMOOTH",
"57 680 LINE",
"57 648 LINE",
"203 648 LINE SMOOTH",
"297 648 OFFCURVE",
"375 570 OFFCURVE",
"375 444 CURVE SMOOTH"
);
},
{
closed = 1;
nodes = (
"79 20 LINE",
"137 20 LINE",
"137 660 LINE",
"79 660 LINE"
);
},
{
closed = 1;
nodes = (
"57 0 LINE",
"159 0 LINE",
"159 32 LINE",
"57 32 LINE"
);
},
{
closed = 1;
nodes = (
"238 83 OFFCURVE",
"314 13 OFFCURVE",
"405 -9 CURVE",
"408 0 LINE",
"341 21 OFFCURVE",
"287 89 OFFCURVE",
"251 210 CURVE",
"198 210 LINE"
);
}
);
};
guideLines = (
{
angle = 90;
position = "{375, 444}";
},
{
angle = 90;
position = "{441, 444}";
},
{
angle = 90;
position = "{408, 444}";
}
);
layerId = "828A1030-75B8-4494-9F4D-5E43FAE843A0";
name = "Sep 14 18, 12:43";
paths = (
{
closed = 1;
nodes = (
"375 315 OFFCURVE",
"302 232 OFFCURVE",
"203 232 CURVE SMOOTH",
"117 232 LINE",
"117 200 LINE",
"213 200 LINE SMOOTH",
"266 200 OFFCURVE",
"312 215 OFFCURVE",
"349 242 CURVE SMOOTH",
"404 284 OFFCURVE",
"441 351 OFFCURVE",
"441 444 CURVE SMOOTH",
"441 586 OFFCURVE",
"362 680 OFFCURVE",
"193 680 CURVE SMOOTH",
"57 680 LINE",
"57 648 LINE",
"203 648 LINE SMOOTH",
"297 648 OFFCURVE",
"375 570 OFFCURVE",
"375 444 CURVE SMOOTH"
);
},
{
closed = 1;
nodes = (
"79 20 LINE",
"137 20 LINE",
"137 660 LINE",
"79 660 LINE"
);
},
{
closed = 1;
nodes = (
"57 0 LINE",
"159 0 LINE",
"159 32 LINE",
"57 32 LINE"
);
},
{
closed = 1;
nodes = (
"238 83 OFFCURVE",
"314 13 OFFCURVE",
"405 -9 CURVE",
"408 0 LINE",
"341 21 OFFCURVE",
"287 89 OFFCURVE",
"251 210 CURVE",
"198 210 LINE"
);
}
);
width = 473;
},
{
associatedMasterId = "985FD43C-E2EB-4FA2-9714-12093F08C61F";
background = {
paths = (
{
closed = 1;
nodes = (
"375 315 OFFCURVE",
"302 232 OFFCURVE",
"203 232 CURVE SMOOTH",
"117 232 LINE",
"117 200 LINE",
"213 200 LINE SMOOTH",
"266 200 OFFCURVE",
"312 215 OFFCURVE",
"349 242 CURVE SMOOTH",
"404 284 OFFCURVE",
"441 351 OFFCURVE",
"441 444 CURVE SMOOTH",
"441 586 OFFCURVE",
"362 680 OFFCURVE",
"193 680 CURVE SMOOTH",
"57 680 LINE",
"57 648 LINE",
"203 648 LINE SMOOTH",
"297 648 OFFCURVE",
"375 570 OFFCURVE",
"375 444 CURVE SMOOTH"
);
},
{
closed = 1;
nodes = (
"79 20 LINE",
"137 20 LINE",
"137 660 LINE",
"79 660 LINE"
);
},
{
closed = 1;
nodes = (
"57 0 LINE",
"159 0 LINE",
"159 32 LINE",
"57 32 LINE"
);
},
{
closed = 1;
nodes = (
"220 103 OFFCURVE",
"295 12 OFFCURVE",
"398 -15 CURVE",
"408 15 LINE",
"339 35 OFFCURVE",
"281 109 OFFCURVE",
"255 210 CURVE",
"194 210 LINE"
);
}
);
};
guideLines = (
{
angle = 90;
position = "{375, 444}";
},
{
angle = 90;
position = "{441, 444}";
},
{
angle = 90;
position = "{408, 444}";
},
{
angle = 16.5688;
position = "{259, 200}";
showMeasurement = 1;
}
);
layerId = "98C85E8C-8123-4673-8B71-5C0BDE4C7CF1";
name = "Sep 14 18, 15:52";
paths = (
{
closed = 1;
nodes = (
"375 315 OFFCURVE",
"302 232 OFFCURVE",
"203 232 CURVE SMOOTH",
"117 232 LINE",
"117 200 LINE",
"213 200 LINE SMOOTH",
"266 200 OFFCURVE",
"312 215 OFFCURVE",
"349 242 CURVE SMOOTH",
"404 284 OFFCURVE",
"441 351 OFFCURVE",
"441 444 CURVE SMOOTH",
"441 586 OFFCURVE",
"362 680 OFFCURVE",
"193 680 CURVE SMOOTH",
"57 680 LINE",
"57 648 LINE",
"203 648 LINE SMOOTH",
"297 648 OFFCURVE",
"375 570 OFFCURVE",
"375 444 CURVE SMOOTH"
);
},
{
closed = 1;
nodes = (
"79 20 LINE",
"137 20 LINE",
"137 660 LINE",
"79 660 LINE"
);
},
{
closed = 1;
nodes = (
"57 0 LINE",
"159 0 LINE",
"159 32 LINE",
"57 32 LINE"
);
},
{
closed = 1;
nodes = (
"220 103 OFFCURVE",
"295 12 OFFCURVE",
"398 -15 CURVE",
"408 15 LINE",
"339 35 OFFCURVE",
"281 109 OFFCURVE",
"255 210 CURVE",
"194 210 LINE"
);
}
);
width = 473;
},
{
anchors = (
{
name = bottom;
position = "{252, 0}";
},
{
name = ogonek;
position = "{252, 10}";
},
{
name = top;
position = "{252, 680}";
}
);
background = {
paths = (
{
closed = 1;
nodes = (
"365 315 OFFCURVE",
"292 232 OFFCURVE",
"193 232 CURVE SMOOTH",
"107 232 LINE",
"107 200 LINE",
"203 200 LINE SMOOTH",
"256 200 OFFCURVE",
"302 215 OFFCURVE",
"339 242 CURVE SMOOTH",
"394 284 OFFCURVE",
"431 351 OFFCURVE",
"431 444 CURVE SMOOTH",
"431 586 OFFCURVE",
"352 680 OFFCURVE",
"183 680 CURVE SMOOTH",
"47 680 LINE",
"47 648 LINE",
"193 648 LINE SMOOTH",
"287 648 OFFCURVE",
"365 570 OFFCURVE",
"365 444 CURVE SMOOTH"
);
},
{
closed = 1;
nodes = (
"69 20 LINE",
"127 20 LINE",
"127 660 LINE",
"69 660 LINE"
);
},
{
closed = 1;
nodes = (
"47 0 LINE",
"149 0 LINE",
"149 32 LINE",
"47 32 LINE"
);
},
{
closed = 1;
nodes = (
"238 103 OFFCURVE",
"317 12 OFFCURVE",
"425 -15 CURVE",
"435 15 LINE",
"362 35 OFFCURVE",
"299 109 OFFCURVE",
"272 215 CURVE",
"211 210 LINE"
);
}
);
};
guideLines = (
{
angle = 90;
position = "{471, 130}";
},
{
position = "{425, -15}";
}
);
layerId = "79669AF3-7E96-4900-AB6D-33745B934CAA";
paths = (
{
closed = 1;
nodes = (
"216 181 LINE SMOOTH",
"370 181 OFFCURVE",
"471 287 OFFCURVE",
"471 435 CURVE SMOOTH",
"471 582 OFFCURVE",
"383 680 OFFCURVE",
"196 680 CURVE SMOOTH",
"33 680 LINE",
"33 602 LINE",
"186 602 LINE SMOOTH",
"280 602 OFFCURVE",
"323 538 OFFCURVE",
"323 435 CURVE SMOOTH",
"323 328 OFFCURVE",
"283 259 OFFCURVE",
"186 259 CURVE SMOOTH",
"120 259 LINE",
"120 181 LINE"
);
},
{
closed = 1;
nodes = (
"205 0 LINE",
"205 78 LINE",
"33 78 LINE",
"33 0 LINE"
);
},
{
closed = 1;
nodes = (
"183 20 LINE",
"183 660 LINE",
"55 660 LINE",
"55 20 LINE"
);
},
{
closed = 1;
nodes = (
"483 58 LINE",
"440 74 OFFCURVE",
"375 134 OFFCURVE",
"350 235 CURVE",
"224 207 LINE",
"279 70 OFFCURVE",
"361 5 OFFCURVE",
"450 -16 CURVE"
);
}
);
width = 491;
},
{
anchors = (
{
name = bottom;
position = "{223, 0}";
},
{
name = ogonek;
position = "{223, 10}";
},
{
name = top;
position = "{239, 680}";
}
);
associatedMasterId = "985FD43C-E2EB-4FA2-9714-12093F08C61F";
background = {
paths = (
{
closed = 1;
nodes = (
"203 200 LINE SMOOTH",
"256 200 OFFCURVE",
"302 215 OFFCURVE",
"339 242 CURVE SMOOTH",
"394 284 OFFCURVE",
"431 351 OFFCURVE",
"431 444 CURVE SMOOTH",
"431 586 OFFCURVE",
"352 680 OFFCURVE",
"183 680 CURVE SMOOTH",
"47 680 LINE",
"47 648 LINE",
"193 648 LINE SMOOTH",
"287 648 OFFCURVE",
"365 570 OFFCURVE",
"365 444 CURVE SMOOTH",
"365 315 OFFCURVE",
"292 232 OFFCURVE",
"193 232 CURVE SMOOTH",
"107 232 LINE",
"107 200 LINE"
);
},
{
closed = 1;
nodes = (
"149 0 LINE",
"149 32 LINE",
"47 32 LINE",
"47 0 LINE"
);
},
{
closed = 1;
nodes = (
"127 20 LINE",
"127 660 LINE",
"69 660 LINE",
"69 20 LINE"
);
},
{
closed = 1;
nodes = (
"435 15 LINE",
"362 35 OFFCURVE",
"299 109 OFFCURVE",
"272 215 CURVE",
"211 210 LINE",
"238 103 OFFCURVE",
"317 12 OFFCURVE",
"425 -15 CURVE"
);
}
);
};
guideLines = (
{
angle = 90;
position = "{365, 444}";
},
{
angle = 90;
position = "{431, 444}";
},
{
angle = 90;
position = "{398, 444}";
},
{
angle = 16.5688;
position = "{249, 200}";
showMeasurement = 1;
}
);
hints = (
{
horizontal = 1;
origin = "{1, 3}";
target = "{1, 2}";
type = TTStem;
options = 4;
},
{
horizontal = 1;
origin = "{1, 2}";
target = "{1, 2, 2, 1}";
type = Align;
options = 4;
},
{
horizontal = 1;
origin = "{0, 7}";
target = "{0, 8}";
type = TTStem;
options = 4;
},
{
horizontal = 1;
origin = "{0, 8}";
target = "{0, 9, 2, 1}";
type = Align;
options = 4;
},
{
horizontal = 1;
origin = "{0, 0, 2, 1}";
target = "{0, 16, 2, 1}";
type = TTStem;
options = 4;
},
{
horizontal = 1;
origin = "{3, 7}";
target = "{3, 0}";
type = TTStem;
options = 4;
}
);
layerId = "10CC8326-6A96-44F1-99CE-108E8E2B58B4";
name = "Apr 17 20, 11:58";
paths = (
{
closed = 1;
nodes = (
"203 200 LINE SMOOTH",
"341 200 OFFCURVE",
"431 302 OFFCURVE",
"431 444 CURVE SMOOTH",
"431 586 OFFCURVE",
"352 680 OFFCURVE",
"183 680 CURVE SMOOTH",
"47 680 LINE",
"47 648 LINE",
"193 648 LINE SMOOTH",
"287 648 OFFCURVE",
"365 570 OFFCURVE",
"365 444 CURVE SMOOTH",
"365 315 OFFCURVE",
"292 232 OFFCURVE",
"193 232 CURVE SMOOTH",
"107 232 LINE",
"107 200 LINE"
);
},
{
closed = 1;
nodes = (
"149 0 LINE",
"149 32 LINE",
"47 32 LINE",
"47 0 LINE"
);
},
{
closed = 1;
nodes = (
"127 20 LINE",
"127 660 LINE",
"69 660 LINE",
"69 20 LINE"
);
},
{
closed = 1;
nodes = (
"435 15 LINE",
"362 35 OFFCURVE",
"299 109 OFFCURVE",
"272 215 CURVE",
"211 210 LINE",
"238 103 OFFCURVE",
"317 12 OFFCURVE",
"425 -15 CURVE"
);
}
);
width = 459;
},
{
anchors = (
{
name = bottom;
position = "{252, 0}";
},
{
name = ogonek;
position = "{252, 10}";
},
{
name = top;
position = "{252, 680}";
}
);
associatedMasterId = "79669AF3-7E96-4900-AB6D-33745B934CAA";
background = {
paths = (
{
closed = 1;
nodes = (
"365 315 OFFCURVE",
"292 232 OFFCURVE",
"193 232 CURVE SMOOTH",
"107 232 LINE",
"107 200 LINE",
"203 200 LINE SMOOTH",
"256 200 OFFCURVE",
"302 215 OFFCURVE",
"339 242 CURVE SMOOTH",
"394 284 OFFCURVE",
"431 351 OFFCURVE",
"431 444 CURVE SMOOTH",
"431 586 OFFCURVE",
"352 680 OFFCURVE",
"183 680 CURVE SMOOTH",
"47 680 LINE",
"47 648 LINE",
"193 648 LINE SMOOTH",
"287 648 OFFCURVE",
"365 570 OFFCURVE",
"365 444 CURVE SMOOTH"
);
},
{
closed = 1;
nodes = (
"69 20 LINE",
"127 20 LINE",
"127 660 LINE",
"69 660 LINE"
);
},
{
closed = 1;
nodes = (
"47 0 LINE",
"149 0 LINE",
"149 32 LINE",
"47 32 LINE"
);
},
{
closed = 1;
nodes = (
"238 103 OFFCURVE",
"317 12 OFFCURVE",
"425 -15 CURVE",
"435 15 LINE",
"362 35 OFFCURVE",
"299 109 OFFCURVE",
"272 215 CURVE",
"211 210 LINE"
);
}
);
};
guideLines = (
{
angle = 90;
position = "{471, 130}";
},
{
position = "{425, -15}";
}
);
layerId = "947436EC-F7E2-40D8-8DC1-178FBA84ED6F";
name = "Apr 17 20, 11:58";
paths = (
{
closed = 1;
nodes = (
"216 181 LINE SMOOTH",
"370 181 OFFCURVE",
"471 287 OFFCURVE",
"471 435 CURVE SMOOTH",
"471 582 OFFCURVE",
"383 680 OFFCURVE",
"196 680 CURVE SMOOTH",
"33 680 LINE",
"33 602 LINE",
"186 602 LINE SMOOTH",
"280 602 OFFCURVE",
"323 538 OFFCURVE",
"323 435 CURVE SMOOTH",
"323 328 OFFCURVE",
"283 259 OFFCURVE",
"186 259 CURVE SMOOTH",
"120 259 LINE",
"120 181 LINE"
);
},
{
closed = 1;
nodes = (
"205 0 LINE",
"205 78 LINE",
"33 78 LINE",
"33 0 LINE"
);
},
{
closed = 1;
nodes = (
"183 20 LINE",
"183 660 LINE",
"55 660 LINE",
"55 20 LINE"
);
},
{
closed = 1;
nodes = (
"483 58 LINE",
"440 74 OFFCURVE",
"375 134 OFFCURVE",
"350 235 CURVE",
"224 207 LINE",
"279 70 OFFCURVE",
"361 5 OFFCURVE",
"450 -16 CURVE"
);
}
);
width = 491;
}
);
leftKerningGroup = H;
leftMetricsKey = H;
rightKerningGroup = R;
unicode = 0052;
},
{
glyphname = S;
lastChange = "2020-04-28 01:42:39 +0000";
layers = (
{
anchors = (
{
name = bottom;
position = "{184, 0}";
},
{
name = ogonek;
position = "{184, 10}";
},
{
name = top;
position = "{195, 680}";
}
);
background = {
paths = (
{
closed = 1;
nodes = (
"286 -10 OFFCURVE",
"347 53 OFFCURVE",
"347 167 CURVE SMOOTH",
"347 401 OFFCURVE",
"100 405 OFFCURVE",
"100 562 CURVE SMOOTH",
"100 625 OFFCURVE",
"136 654 OFFCURVE",
"184 654 CURVE SMOOTH",
"244 654 OFFCURVE",
"279 614 OFFCURVE",
"279 573 CURVE",
"293 573 LINE",
"288 642 OFFCURVE",
"271 690 OFFCURVE",
"182 690 CURVE SMOOTH",
"98 690 OFFCURVE",
"42 645 OFFCURVE",
"42 556 CURVE SMOOTH",
"42 365 OFFCURVE",
"287 370 OFFCURVE",
"287 159 CURVE SMOOTH",
"287 71 OFFCURVE",
"247 26 OFFCURVE",
"172 26 CURVE SMOOTH",
"89 26 OFFCURVE",
"54 75 OFFCURVE",
"54 131 CURVE",
"33 131 LINE",
"33 41 OFFCURVE",
"85 -10 OFFCURVE",
"180 -10 CURVE SMOOTH"
);
},
{
closed = 1;
nodes = (
"54 0 LINE",
"54 131 LINE",
"20 131 LINE",
"20 0 LINE"
);
},
{
closed = 1;
nodes = (
"313 573 LINE",
"313 680 LINE",
"279 680 LINE",
"279 573 LINE"
);
}
);
};
guideLines = (
{
angle = 51.7401;
position = "{155, 356}";
showMeasurement = 1;
}
);
hints = (
{
horizontal = 1;
origin = "{0, 18}";
target = "{0, 11}";
type = TTStem;
options = 4;
},
{
horizontal = 1;
origin = "{0, 37}";
target = "{0, 30}";
type = TTStem;
options = 4;
},
{
horizontal = 1;
origin = "{0, 30}";
target = "{0, 18}";
other1 = "{0, 5}";
type = Interpolate;
options = 4;
},
{
horizontal = 1;
origin = "{0, 37}";
target = "{0, 11}";
other1 = "{0, 24}";
type = Interpolate;
options = 4;
},
{
horizontal = 1;
origin = "{2, 2}";
type = Anchor;
},
{
horizontal = 1;
origin = "{1, 3}";
type = Anchor;
}
);
layerId = "985FD43C-E2EB-4FA2-9714-12093F08C61F";
paths = (
{
closed = 1;
nodes = (
"286 -10 OFFCURVE",
"347 53 OFFCURVE",
"347 167 CURVE SMOOTH",
"347 296 OFFCURVE",
"272 356 OFFCURVE",
"205 408 CURVE SMOOTH",
"149 451 OFFCURVE",
"100 491 OFFCURVE",
"100 562 CURVE SMOOTH",
"100 625 OFFCURVE",
"136 654 OFFCURVE",
"184 654 CURVE SMOOTH",
"244 654 OFFCURVE",
"279 614 OFFCURVE",
"279 573 CURVE",
"293 573 LINE",
"288 642 OFFCURVE",
"271 690 OFFCURVE",
"182 690 CURVE SMOOTH",
"98 690 OFFCURVE",
"42 645 OFFCURVE",
"42 556 CURVE SMOOTH",
"42 463 OFFCURVE",
"100 414 OFFCURVE",
"160 367 CURVE SMOOTH",
"223 317 OFFCURVE",
"287 267 OFFCURVE",
"287 159 CURVE SMOOTH",
"287 71 OFFCURVE",
"247 26 OFFCURVE",
"172 26 CURVE SMOOTH",
"89 26 OFFCURVE",
"54 75 OFFCURVE",
"54 131 CURVE",
"33 131 LINE",
"33 41 OFFCURVE",
"85 -10 OFFCURVE",
"180 -10 CURVE SMOOTH"
);
},
{
closed = 1;
nodes = (
"54 0 LINE",
"54 131 LINE",
"20 131 LINE",
"20 0 LINE"
);
},
{
closed = 1;
nodes = (
"313 573 LINE",
"313 680 LINE",
"279 680 LINE",
"279 573 LINE"
);
}
);
width = 372;
},
{
associatedMasterId = "985FD43C-E2EB-4FA2-9714-12093F08C61F";
background = {
paths = (
{
closed = 1;
nodes = (
"18 60 OFFCURVE",
"74 -10 OFFCURVE",
"186 -10 CURVE SMOOTH",
"292 -10 OFFCURVE",
"365 53 OFFCURVE",
"365 167 CURVE SMOOTH",
"365 280 OFFCURVE",
"293 335 OFFCURVE",
"227 385 CURVE SMOOTH",
"149 444 OFFCURVE",
"110 478 OFFCURVE",
"110 552 CURVE SMOOTH",
"110 621 OFFCURVE",
"146 650 OFFCURVE",
"196 650 CURVE SMOOTH",
"258 650 OFFCURVE",
"293 604 OFFCURVE",
"293 525 CURVE",
"319 525 LINE",
"319 636 OFFCURVE",
"285 690 OFFCURVE",
"194 690 CURVE SMOOTH",
"108 690 OFFCURVE",
"40 644 OFFCURVE",
"40 547 CURVE SMOOTH",
"40 442 OFFCURVE",
"118 381 OFFCURVE",
"192 324 CURVE SMOOTH",
"254 276 OFFCURVE",
"293 242 OFFCURVE",
"293 159 CURVE SMOOTH",
"293 74 OFFCURVE",
"253 30 OFFCURVE",
"178 30 CURVE SMOOTH",
"94 30 OFFCURVE",
"52 84 OFFCURVE",
"52 191 CURVE",
"18 191 LINE"
);
},
{
closed = 1;
nodes = (
"293 680 LINE",
"293 525 LINE",
"327 525 LINE",
"327 680 LINE"
);
},
{
closed = 1;
nodes = (
"18 191 LINE",
"18 0 LINE",
"52 0 LINE",
"52 191 LINE"
);
}
);
};
guideLines = (
{
angle = 90;
position = "{18, 20}";
},
{
angle = 90;
position = "{348, 20}";
}
);
layerId = "E57F9DBE-B453-4D02-9F2A-502DF0CD4915";
name = "Sep 11 18, 11:29";
paths = (
{
closed = 1;
nodes = (
"18 60 OFFCURVE",
"74 -10 OFFCURVE",
"186 -10 CURVE SMOOTH",
"292 -10 OFFCURVE",
"365 53 OFFCURVE",
"365 167 CURVE SMOOTH",
"365 280 OFFCURVE",
"293 335 OFFCURVE",
"227 385 CURVE SMOOTH",
"149 444 OFFCURVE",
"110 478 OFFCURVE",
"110 552 CURVE SMOOTH",
"110 621 OFFCURVE",
"146 650 OFFCURVE",
"196 650 CURVE SMOOTH",
"258 650 OFFCURVE",
"293 604 OFFCURVE",
"293 525 CURVE",
"319 525 LINE",
"319 636 OFFCURVE",
"285 690 OFFCURVE",
"194 690 CURVE SMOOTH",
"108 690 OFFCURVE",
"40 644 OFFCURVE",
"40 547 CURVE SMOOTH",
"40 442 OFFCURVE",
"118 381 OFFCURVE",
"192 324 CURVE SMOOTH",
"254 276 OFFCURVE",
"293 242 OFFCURVE",
"293 159 CURVE SMOOTH",
"293 74 OFFCURVE",
"253 30 OFFCURVE",
"178 30 CURVE SMOOTH",
"94 30 OFFCURVE",
"52 84 OFFCURVE",
"52 191 CURVE",
"18 191 LINE"
);
},
{
closed = 1;
nodes = (
"293 680 LINE",
"293 525 LINE",
"327 525 LINE",
"327 680 LINE"
);
},
{
closed = 1;
nodes = (
"18 191 LINE",
"18 0 LINE",
"52 0 LINE",
"52 191 LINE"
);
}
);
width = 383;
},
{
associatedMasterId = "985FD43C-E2EB-4FA2-9714-12093F08C61F";
background = {
paths = (
{
closed = 1;
nodes = (
"16 60 OFFCURVE",
"76 -10 OFFCURVE",
"176 -10 CURVE SMOOTH",
"282 -10 OFFCURVE",
"343 53 OFFCURVE",
"343 167 CURVE SMOOTH",
"343 290 OFFCURVE",
"279 345 OFFCURVE",
"213 397 CURVE SMOOTH",
"138 459 OFFCURVE",
"96 492 OFFCURVE",
"96 562 CURVE SMOOTH",
"96 622 OFFCURVE",
"132 650 OFFCURVE",
"180 650 CURVE SMOOTH",
"240 650 OFFCURVE",
"275 604 OFFCURVE",
"275 525 CURVE",
"299 525 LINE",
"299 636 OFFCURVE",
"267 690 OFFCURVE",
"178 690 CURVE SMOOTH",
"94 690 OFFCURVE",
"38 645 OFFCURVE",
"38 556 CURVE SMOOTH",
"38 463 OFFCURVE",
"102 412 OFFCURVE",
"172 356 CURVE SMOOTH",
"240 301 OFFCURVE",
"283 254 OFFCURVE",
"283 159 CURVE SMOOTH",
"283 74 OFFCURVE",
"243 30 OFFCURVE",
"168 30 CURVE SMOOTH",
"92 30 OFFCURVE",
"50 84 OFFCURVE",
"50 191 CURVE",
"16 191 LINE"
);
},
{
closed = 1;
nodes = (
"275 680 LINE",
"275 525 LINE",
"309 525 LINE",
"309 680 LINE"
);
},
{
closed = 1;
nodes = (
"16 191 LINE",
"16 0 LINE",
"50 0 LINE",
"50 191 LINE"
);
}
);
};
guideLines = (
{
angle = 90;
position = "{38, 556}";
},
{
angle = 90;
position = "{343, 167}";
},
{
angle = 90;
position = "{283, 159}";
},
{
angle = 90;
position = "{96, 562}";
},
{
angle = 51.0333;
position = "{145, 319}";
showMeasurement = 1;
}
);
layerId = "E95B4FF1-8C8A-4533-B791-4B2A9D15C11A";
name = "Sep 17 18, 12:10";
paths = (
{
closed = 1;
nodes = (
"16 60 OFFCURVE",
"76 -10 OFFCURVE",
"176 -10 CURVE SMOOTH",
"282 -10 OFFCURVE",
"343 53 OFFCURVE",
"343 167 CURVE SMOOTH",
"343 290 OFFCURVE",
"279 345 OFFCURVE",
"213 397 CURVE SMOOTH",
"138 459 OFFCURVE",
"96 492 OFFCURVE",
"96 562 CURVE SMOOTH",
"96 622 OFFCURVE",
"132 650 OFFCURVE",
"180 650 CURVE SMOOTH",
"240 650 OFFCURVE",
"275 604 OFFCURVE",
"275 525 CURVE",
"299 525 LINE",
"299 636 OFFCURVE",
"267 690 OFFCURVE",
"178 690 CURVE SMOOTH",
"94 690 OFFCURVE",
"38 645 OFFCURVE",
"38 556 CURVE SMOOTH",
"38 463 OFFCURVE",
"102 412 OFFCURVE",
"172 356 CURVE SMOOTH",
"240 301 OFFCURVE",
"283 254 OFFCURVE",
"283 159 CURVE SMOOTH",
"283 74 OFFCURVE",
"243 30 OFFCURVE",
"168 30 CURVE SMOOTH",
"92 30 OFFCURVE",
"50 84 OFFCURVE",
"50 191 CURVE",
"16 191 LINE"
);
},
{
closed = 1;
nodes = (
"275 680 LINE",
"275 525 LINE",
"309 525 LINE",
"309 680 LINE"
);
},
{
closed = 1;
nodes = (
"16 191 LINE",
"16 0 LINE",
"50 0 LINE",
"50 191 LINE"
);
}
);
width = 367;
},
{
anchors = (
{
name = bottom;
position = "{196, 0}";
},
{
name = ogonek;
position = "{196, 10}";
},
{
name = top;
position = "{196, 680}";
}
);
background = {
paths = (
{
closed = 1;
nodes = (
"303 -10 OFFCURVE",
"381 53 OFFCURVE",
"381 181 CURVE SMOOTH",
"381 309 OFFCURVE",
"304 370 OFFCURVE",
"238 420 CURVE SMOOTH",
"188 458 OFFCURVE",
"144 493 OFFCURVE",
"144 548 CURVE SMOOTH",
"144 586 OFFCURVE",
"165 604 OFFCURVE",
"195 604 CURVE SMOOTH",
"236 604 OFFCURVE",
"264 569 OFFCURVE",
"264 533 CURVE",
"298 573 LINE",
"282 648 OFFCURVE",
"263 690 OFFCURVE",
"180 690 CURVE SMOOTH",
"92 690 OFFCURVE",
"20 645 OFFCURVE",
"20 535 CURVE SMOOTH",
"20 429 OFFCURVE",
"81 377 OFFCURVE",
"143 327 CURVE SMOOTH",
"198 282 OFFCURVE",
"249 240 OFFCURVE",
"249 163 CURVE SMOOTH",
"249 104 OFFCURVE",
"221 76 OFFCURVE",
"172 76 CURVE SMOOTH",
"114 76 OFFCURVE",
"94 111 OFFCURVE",
"94 151 CURVE",
"53 151 LINE",
"53 48 OFFCURVE",
"95 -10 OFFCURVE",
"197 -10 CURVE SMOOTH"
);
},
{
closed = 1;
nodes = (
"94 0 LINE",
"94 151 LINE",
"10 151 LINE",
"10 0 LINE"
);
},
{
closed = 1;
nodes = (
"348 533 LINE",
"348 680 LINE",
"264 680 LINE",
"264 533 LINE"
);
}
);
};
guideLines = (
{
angle = 51.1155;
position = "{138, 309}";
showMeasurement = 1;
}
);
layerId = "79669AF3-7E96-4900-AB6D-33745B934CAA";
paths = (
{
closed = 1;
nodes = (
"303 -10 OFFCURVE",
"381 53 OFFCURVE",
"381 181 CURVE SMOOTH",
"381 309 OFFCURVE",
"304 370 OFFCURVE",
"238 420 CURVE SMOOTH",
"188 458 OFFCURVE",
"144 493 OFFCURVE",
"144 548 CURVE SMOOTH",
"144 586 OFFCURVE",
"165 604 OFFCURVE",
"195 604 CURVE SMOOTH",
"236 604 OFFCURVE",
"264 569 OFFCURVE",
"264 533 CURVE",
"298 573 LINE",
"282 648 OFFCURVE",
"263 690 OFFCURVE",
"180 690 CURVE SMOOTH",
"92 690 OFFCURVE",
"20 645 OFFCURVE",
"20 535 CURVE SMOOTH",
"20 428 OFFCURVE",
"81 376 OFFCURVE",
"143 326 CURVE SMOOTH",
"198 281 OFFCURVE",
"249 240 OFFCURVE",
"249 163 CURVE SMOOTH",
"249 104 OFFCURVE",
"221 76 OFFCURVE",
"172 76 CURVE SMOOTH",
"114 76 OFFCURVE",
"94 111 OFFCURVE",
"94 151 CURVE",
"53 151 LINE",
"53 48 OFFCURVE",
"95 -10 OFFCURVE",
"197 -10 CURVE SMOOTH"
);
},
{
closed = 1;
nodes = (
"94 0 LINE",
"94 151 LINE",
"10 151 LINE",
"10 0 LINE"
);
},
{
closed = 1;
nodes = (
"348 533 LINE",
"348 680 LINE",
"264 680 LINE",
"264 533 LINE"
);
}
);
width = 381;
}
);
leftKerningGroup = S;
rightKerningGroup = S;
unicode = 0053;
},
{
glyphname = Germandbls;
lastChange = "2020-04-18 00:09:35 +0000";
layers = (
{
background = {
paths = (
{
closed = 1;
nodes = (
"217 163 LINE",
"221 162 OFFCURVE",
"225 161 OFFCURVE",
"229 161 CURVE SMOOTH",
"253 161 OFFCURVE",
"269 177 OFFCURVE",
"269 200 CURVE SMOOTH",
"269 223 OFFCURVE",
"255 239 OFFCURVE",
"232 239 CURVE SMOOTH",
"209 239 OFFCURVE",
"188 225 OFFCURVE",
"188 189 CURVE SMOOTH",
"188 78 OFFCURVE",
"238 0 OFFCURVE",
"328 0 CURVE SMOOTH",
"431 0 OFFCURVE",
"489 97 OFFCURVE",
"489 241 CURVE SMOOTH",
"489 373 OFFCURVE",
"438 483 OFFCURVE",
"323 484 CURVE",
"323 471 LINE",
"469 656 LINE",
"469 680 LINE",
"238 680 LINE SMOOTH",
"118 680 OFFCURVE",
"62 633 OFFCURVE",
"62 466 CURVE SMOOTH",
"62 32 LINE",
"42 32 LINE",
"42 0 LINE",
"138 0 LINE",
"138 32 LINE",
"118 32 LINE",
"118 466 LINE SMOOTH",
"118 561 OFFCURVE",
"109 640 OFFCURVE",
"238 640 CURVE SMOOTH",
"428 640 LINE",
"428 658 LINE",
"293 484 LINE",
"293 452 LINE",
"312 452 LINE SMOOTH",
"390 452 OFFCURVE",
"423 364 OFFCURVE",
"423 245 CURVE SMOOTH",
"423 124 OFFCURVE",
"396 46 OFFCURVE",
"323 46 CURVE SMOOTH",
"268 46 OFFCURVE",
"232 93 OFFCURVE",
"223 168 CURVE"
);
}
);
};
guideLines = (
{
position = "{15, 466}";
},
{
position = "{15, 483}";
},
{
position = "{15, 451}";
},
{
angle = 90;
position = "{489, 241}";
},
{
position = "{289, 200}";
}
);
hints = (
{
horizontal = 1;
origin = "{0, 9}";
target = "{0, 22}";
type = TTStem;
options = 4;
},
{
horizontal = 1;
origin = "{0, 15}";
target = "{0, 14}";
type = TTStem;
options = 4;
},
{
horizontal = 1;
origin = "{0, 14}";
target = "{0, 18}";
type = Align;
options = 4;
},
{
horizontal = 1;
origin = "{0, 52}";
target = "{0, 33}";
type = TTStem;
options = 4;
},
{
horizontal = 1;
origin = "{0, 25}";
target = "{0, 26}";
type = TTStem;
options = 4;
},
{
horizontal = 1;
origin = "{0, 5, 0, 7}";
target = "{0, 25}";
type = Align;
options = 4;
},
{
horizontal = 1;
origin = "{0, 8}";
target = "{0, 7}";
type = TTStem;
options = 4;
},
{
horizontal = 1;
origin = "{0, 52}";
target = "{0, 22}";
other1 = "{0, 26}";
type = Interpolate;
options = 4;
}
);
layerId = "985FD43C-E2EB-4FA2-9714-12093F08C61F";
paths = (
{
closed = 1;
nodes = (
"431 -10 OFFCURVE",
"489 97 OFFCURVE",
"489 236 CURVE SMOOTH",
"489 373 OFFCURVE",
"438 483 OFFCURVE",
"323 484 CURVE",
"323 471 LINE",
"469 656 LINE",
"469 680 LINE",
"238 680 LINE SMOOTH",
"118 680 OFFCURVE",
"62 633 OFFCURVE",
"62 466 CURVE SMOOTH",
"62 32 LINE",
"42 32 LINE",
"42 0 LINE",
"138 0 LINE",
"138 32 LINE",
"118 32 LINE",
"118 466 LINE SMOOTH",
"118 571 OFFCURVE",
"118 640 OFFCURVE",
"238 640 CURVE SMOOTH",
"428 640 LINE",
"428 658 LINE",
"293 484 LINE",
"293 452 LINE",
"312 452 LINE SMOOTH",
"390 452 OFFCURVE",
"423 364 OFFCURVE",
"423 240 CURVE SMOOTH",
"423 124 OFFCURVE",
"396 36 OFFCURVE",
"323 36 CURVE SMOOTH",
"268 36 OFFCURVE",
"232 83 OFFCURVE",
"223 158 CURVE",
"217 153 LINE",
"221 152 OFFCURVE",
"225 151 OFFCURVE",
"229 151 CURVE SMOOTH",
"253 151 OFFCURVE",
"269 167 OFFCURVE",
"269 190 CURVE SMOOTH",
"269 213 OFFCURVE",
"255 229 OFFCURVE",
"232 229 CURVE SMOOTH",
"209 229 OFFCURVE",
"188 215 OFFCURVE",
"188 179 CURVE SMOOTH",
"188 68 OFFCURVE",
"238 -10 OFFCURVE",
"328 -10 CURVE SMOOTH"
);
}
);
width = 519;
},
{
associatedMasterId = "985FD43C-E2EB-4FA2-9714-12093F08C61F";
background = {
paths = (
{
closed = 0;
nodes = (
"243 640 LINE",
"433 640 LINE",
"433 658 LINE",
"298 484 LINE",
"298 452 LINE",
"317 452 LINE SMOOTH",
"395 452 OFFCURVE",
"428 364 OFFCURVE",
"428 245 CURVE SMOOTH",
"428 124 OFFCURVE",
"398 46 OFFCURVE",
"318 46 CURVE SMOOTH",
"252 46 OFFCURVE",
"207 106 OFFCURVE",
"207 200 CURVE",
"173 200 LINE",
"173 77 OFFCURVE",
"237 0 OFFCURVE",
"323 0 CURVE SMOOTH",
"432 0 OFFCURVE",
"494 97 OFFCURVE",
"494 241 CURVE SMOOTH",
"494 373 OFFCURVE",
"443 483 OFFCURVE",
"328 484 CURVE",
"328 471 LINE",
"474 656 LINE",
"474 680 LINE",
"243 680 LINE"
);
}
);
};
guideLines = (
{
position = "{20, 466}";
},
{
position = "{20, 483}";
},
{
position = "{20, 451}";
},
{
angle = 90;
position = "{494, 241}";
}
);
layerId = "347F919D-01A3-4EFC-8723-8F1CB7237ACB";
name = "Sep 21 18, 14:40";
paths = (
{
closed = 1;
nodes = (
"433 640 LINE",
"433 658 LINE",
"298 484 LINE",
"298 452 LINE",
"317 452 LINE SMOOTH",
"395 452 OFFCURVE",
"428 364 OFFCURVE",
"428 245 CURVE SMOOTH",
"428 124 OFFCURVE",
"401 46 OFFCURVE",
"328 46 CURVE SMOOTH",
"268 46 OFFCURVE",
"227 106 OFFCURVE",
"227 200 CURVE",
"193 200 LINE",
"193 77 OFFCURVE",
"243 0 OFFCURVE",
"333 0 CURVE SMOOTH",
"436 0 OFFCURVE",
"494 97 OFFCURVE",
"494 241 CURVE SMOOTH",
"494 373 OFFCURVE",
"443 483 OFFCURVE",
"328 484 CURVE",
"328 471 LINE",
"474 656 LINE",
"474 680 LINE",
"243 680 LINE SMOOTH",
"123 680 OFFCURVE",
"67 633 OFFCURVE",
"67 466 CURVE SMOOTH",
"67 32 LINE",
"47 32 LINE",
"47 0 LINE",
"143 0 LINE",
"143 32 LINE",
"123 32 LINE",
"123 466 LINE SMOOTH",
"123 561 OFFCURVE",
"114 640 OFFCURVE",
"243 640 CURVE SMOOTH"
);
}
);
width = 531;
},
{
background = {
paths = (
{
closed = 1;
nodes = (
"526 -10 OFFCURVE",
"603 96 OFFCURVE",
"603 253 CURVE SMOOTH",
"603 386 OFFCURVE",
"553 494 OFFCURVE",
"422 496 CURVE",
"422 438 LINE",
"545 610 LINE",
"545 680 LINE",
"258 680 LINE SMOOTH",
"138 680 OFFCURVE",
"62 633 OFFCURVE",
"62 466 CURVE SMOOTH",
"62 78 LINE",
"42 78 LINE",
"42 0 LINE",
"214 0 LINE",
"214 78 LINE",
"194 78 LINE",
"194 466 LINE SMOOTH",
"194 571 OFFCURVE",
"214 600 OFFCURVE",
"314 600 CURVE SMOOTH",
"479 600 LINE",
"479 649 LINE",
"345 462 LINE",
"346 409 LINE",
"365 409 LINE SMOOTH",
"433 409 OFFCURVE",
"462 359 OFFCURVE",
"462 257 CURVE SMOOTH",
"462 153 OFFCURVE",
"433 86 OFFCURVE",
"381 86 CURVE SMOOTH",
"357 86 OFFCURVE",
"336 94 OFFCURVE",
"324 119 CURVE",
"298 119 LINE",
"306 115 OFFCURVE",
"313 114 OFFCURVE",
"320 114 CURVE SMOOTH",
"352 114 OFFCURVE",
"372 149 OFFCURVE",
"372 183 CURVE SMOOTH",
"372 226 OFFCURVE",
"344 251 OFFCURVE",
"307 251 CURVE SMOOTH",
"267 251 OFFCURVE",
"232 223 OFFCURVE",
"232 160 CURVE SMOOTH",
"232 74 OFFCURVE",
"276 -10 OFFCURVE",
"395 -10 CURVE SMOOTH"
);
}
);
};
guideLines = (
{
angle = 90;
position = "{386, 254}";
},
{
position = "{386, 335}";
},
{
position = "{479, 600}";
}
);
layerId = "79669AF3-7E96-4900-AB6D-33745B934CAA";
paths = (
{
closed = 1;
nodes = (
"526 -10 OFFCURVE",
"603 96 OFFCURVE",
"603 253 CURVE SMOOTH",
"603 386 OFFCURVE",
"553 494 OFFCURVE",
"422 496 CURVE",
"422 438 LINE",
"545 610 LINE",
"545 680 LINE",
"258 680 LINE SMOOTH",
"138 680 OFFCURVE",
"62 633 OFFCURVE",
"62 466 CURVE SMOOTH",
"62 78 LINE",
"42 78 LINE",
"42 0 LINE",
"214 0 LINE",
"214 78 LINE",
"194 78 LINE",
"194 466 LINE SMOOTH",
"194 571 OFFCURVE",
"214 600 OFFCURVE",
"314 600 CURVE SMOOTH",
"479 600 LINE",
"479 649 LINE",
"345 462 LINE",
"345 409 LINE",
"365 409 LINE SMOOTH",
"433 409 OFFCURVE",
"462 359 OFFCURVE",
"462 257 CURVE SMOOTH",
"462 153 OFFCURVE",
"433 86 OFFCURVE",
"381 86 CURVE SMOOTH",
"357 86 OFFCURVE",
"336 94 OFFCURVE",
"324 119 CURVE",
"298 119 LINE",
"306 115 OFFCURVE",
"313 114 OFFCURVE",
"320 114 CURVE SMOOTH",
"352 114 OFFCURVE",
"372 149 OFFCURVE",
"372 183 CURVE SMOOTH",
"372 226 OFFCURVE",
"344 251 OFFCURVE",
"307 251 CURVE SMOOTH",
"267 251 OFFCURVE",
"232 223 OFFCURVE",
"232 160 CURVE SMOOTH",
"232 74 OFFCURVE",
"276 -10 OFFCURVE",
"395 -10 CURVE SMOOTH"
);
}
);
width = 628;
}
);
unicode = 1E9E;
},
{
glyphname = Schwa;
lastChange = "2020-04-28 20:28:53 +0000";
layers = (
{
anchors = (
{
name = bottom;
position = "{207, 0}";
},
{
name = ogonek;
position = "{207, 10}";
},
{
name = top;
position = "{203, 680}";
}
);
background = {
paths = (
{
closed = 1;
nodes = (
"330 -10 OFFCURVE",
"412 126 OFFCURVE",
"412 340 CURVE SMOOTH",
"412 554 OFFCURVE",
"330 690 OFFCURVE",
"210 690 CURVE SMOOTH",
"90 690 OFFCURVE",
"8 554 OFFCURVE",
"8 340 CURVE SMOOTH",
"8 126 OFFCURVE",
"90 -10 OFFCURVE",
"210 -10 CURVE SMOOTH"
);
},
{
closed = 1;
nodes = (
"128 26 OFFCURVE",
"72 148 OFFCURVE",
"72 340 CURVE SMOOTH",
"72 532 OFFCURVE",
"128 654 OFFCURVE",
"210 654 CURVE SMOOTH",
"292 654 OFFCURVE",
"348 532 OFFCURVE",
"348 340 CURVE SMOOTH",
"348 148 OFFCURVE",
"292 26 OFFCURVE",
"210 26 CURVE SMOOTH"
);
}
);
};
guideLines = (
{
angle = -14.8757;
position = "{9, 511}";
showMeasurement = 1;
}
);
hints = (
{
horizontal = 1;
origin = "{0, 5}";
target = "{0, 12}";
type = TTStem;
options = 4;
},
{
horizontal = 1;
origin = "{0, 28}";
target = "{0, 18}";
type = TTStem;
options = 4;
},
{
horizontal = 1;
origin = "{0, 21, 0, 23}";
target = "{0, 25}";
type = TTStem;
options = 4;
}
);
layerId = "985FD43C-E2EB-4FA2-9714-12093F08C61F";
paths = (
{
closed = 1;
nodes = (
"332 -10 OFFCURVE",
"412 127 OFFCURVE",
"412 342 CURVE SMOOTH",
"412 547 OFFCURVE",
"339 690 OFFCURVE",
"205 690 CURVE SMOOTH",
"126 690 OFFCURVE",
"63 633 OFFCURVE",
"30 506 CURVE",
"61 498 LINE",
"94 609 OFFCURVE",
"145 654 OFFCURVE",
"203 654 CURVE SMOOTH",
"303 654 OFFCURVE",
"348 523 OFFCURVE",
"348 345 CURVE SMOOTH",
"348 141 OFFCURVE",
"290 26 OFFCURVE",
"207 26 CURVE SMOOTH",
"147 26 OFFCURVE",
"96 103 OFFCURVE",
"79 232 CURVE",
"70 223 LINE",
"365 223 LINE",
"365 257 LINE",
"12 257 LINE",
"31 91 OFFCURVE",
"108 -10 OFFCURVE",
"207 -10 CURVE SMOOTH"
);
}
);
width = 442;
},
{
anchors = (
{
name = bottom;
position = "{258, 0}";
},
{
name = ogonek;
position = "{258, 10}";
},
{
name = top;
position = "{258, 680}";
}
);
background = {
annotations = (
{
position = "{409.333, 572.333}";
type = Text;
},
{
position = "{436, 557}";
type = Text;
}
);
paths = (
{
closed = 1;
nodes = (
"397 -10 OFFCURVE",
"494 126 OFFCURVE",
"494 340 CURVE SMOOTH",
"494 554 OFFCURVE",
"397 690 OFFCURVE",
"256 690 CURVE SMOOTH",
"115 690 OFFCURVE",
"18 554 OFFCURVE",
"18 340 CURVE SMOOTH",
"18 126 OFFCURVE",
"115 -10 OFFCURVE",
"256 -10 CURVE SMOOTH"
);
},
{
closed = 1;
nodes = (
"203 76 OFFCURVE",
"166 179 OFFCURVE",
"166 340 CURVE SMOOTH",
"166 501 OFFCURVE",
"203 604 OFFCURVE",
"256 604 CURVE SMOOTH",
"309 604 OFFCURVE",
"346 501 OFFCURVE",
"346 340 CURVE SMOOTH",
"346 179 OFFCURVE",
"309 76 OFFCURVE",
"256 76 CURVE SMOOTH"
);
}
);
};
guideLines = (
{
angle = 90;
position = "{256, 184}";
showMeasurement = 1;
},
{
angle = -17.2096;
position = "{27, 517}";
showMeasurement = 1;
}
);
layerId = "79669AF3-7E96-4900-AB6D-33745B934CAA";
paths = (
{
closed = 1;
nodes = (
"395 -10 OFFCURVE",
"494 122 OFFCURVE",
"494 340 CURVE SMOOTH",
"494 551 OFFCURVE",
"400 690 OFFCURVE",
"246 690 CURVE SMOOTH",
"139 690 OFFCURVE",
"72 623 OFFCURVE",
"37 510 CURVE",
"111 485 LINE",
"138 568 OFFCURVE",
"178 604 OFFCURVE",
"231 604 CURVE SMOOTH",
"304 604 OFFCURVE",
"350 506 OFFCURVE",
"350 340 CURVE SMOOTH",
"350 176 OFFCURVE",
"311 76 OFFCURVE",
"256 76 CURVE SMOOTH",
"212 76 OFFCURVE",
"176 137 OFFCURVE",
"166 271 CURVE",
"148 253 LINE",
"401 253 LINE",
"401 331 LINE",
"18 331 LINE",
"18 124 OFFCURVE",
"118 -10 OFFCURVE",
"256 -10 CURVE SMOOTH"
);
}
);
width = 516;
}
);
rightKerningGroup = O;
unicode = 018F;
},
{
glyphname = T;
lastChange = "2020-04-17 17:42:40 +0000";
layers = (
{
anchors = (
{
name = bottom;
position = "{188, 0}";
},
{
name = ogonek;
position = "{188, 10}";
},
{
name = top;
position = "{188, 680}";
}
);
background = {
paths = (
{
closed = 1;
nodes = (
"217 20 LINE",
"217 660 LINE",
"159 660 LINE",
"159 20 LINE"
);
},
{
closed = 1;
nodes = (
"239 0 LINE",
"239 32 LINE",
"137 32 LINE",
"137 0 LINE"
);
},
{
closed = 1;
nodes = (
"87 597 LINE",
"87 648 LINE",
"289 648 LINE",
"289 597 LINE",
"325 597 LINE",
"325 680 LINE",
"51 680 LINE",
"51 597 LINE"
);
},
{
closed = 1;
nodes = (
"279 232 OFFCURVE",
"353 306 OFFCURVE",
"353 397 CURVE SMOOTH",
"353 488 OFFCURVE",
"279 562 OFFCURVE",
"188 562 CURVE SMOOTH",
"97 562 OFFCURVE",
"23 488 OFFCURVE",
"23 397 CURVE SMOOTH",
"23 306 OFFCURVE",
"97 232 OFFCURVE",
"188 232 CURVE SMOOTH"
);
}
);
};
guideLines = (
{
position = "{44, 466}";
},
{
position = "{47, 483}";
},
{
position = "{42, 451}";
},
{
angle = 90;
position = "{188, 32}";
},
{
angle = 90;
position = "{362, 680}";
},
{
angle = 90;
position = "{14, 680}";
}
);
hints = (
{
horizontal = 1;
origin = "{0, 14}";
target = "{0, 2}";
type = TTStem;
options = 4;
},
{
horizontal = 1;
origin = "{0, 2}";
target = "{0, 9}";
type = Align;
options = 4;
},
{
horizontal = 1;
origin = "{0, 15}";
type = Anchor;
},
{
horizontal = 1;
origin = "{0, 11}";
type = Anchor;
},
{
horizontal = 1;
origin = "{0, 5}";
target = "{0, 4}";
type = TTStem;
options = 4;
},
{
horizontal = 1;
origin = "{0, 4}";
target = "{0, 8}";
type = Align;
options = 4;
}
);
layerId = "985FD43C-E2EB-4FA2-9714-12093F08C61F";
paths = (
{
closed = 1;
nodes = (
"50 597 LINE",
"50 648 LINE",
"159 648 LINE",
"159 32 LINE",
"137 32 LINE",
"137 0 LINE",
"239 0 LINE",
"239 32 LINE",
"217 32 LINE",
"217 648 LINE",
"326 648 LINE",
"326 597 LINE",
"362 597 LINE",
"362 680 LINE",
"14 680 LINE",
"14 597 LINE"
);
}
);
width = 376;
},
{
anchors = (
{
name = bottom;
position = "{230, 0}";
},
{
name = ogonek;
position = "{230, 10}";
},
{
name = top;
position = "{230, 680}";
}
);
background = {
paths = (
{
closed = 1;
nodes = (
"296 58 LINE",
"296 622 LINE",
"164 622 LINE",
"164 58 LINE"
);
},
{
closed = 1;
nodes = (
"316 0 LINE",
"316 78 LINE",
"144 78 LINE",
"144 0 LINE"
);
},
{
closed = 1;
nodes = (
"129 502 LINE",
"129 602 LINE",
"331 602 LINE",
"331 502 LINE",
"457 502 LINE",
"457 680 LINE",
"3 680 LINE",
"3 502 LINE"
);
}
);
};
guideLines = (
{
angle = 90;
position = "{18, 680}";
},
{
angle = 90;
position = "{442, 680}";
},
{
angle = 90;
position = "{230, 602}";
}
);
layerId = "79669AF3-7E96-4900-AB6D-33745B934CAA";
paths = (
{
closed = 1;
nodes = (
"96 492 LINE",
"96 602 LINE",
"164 602 LINE",
"164 78 LINE",
"144 78 LINE",
"144 0 LINE",
"316 0 LINE",
"316 78 LINE",
"296 78 LINE",
"296 602 LINE",
"364 602 LINE",
"364 492 LINE",
"442 492 LINE",
"442 680 LINE",
"18 680 LINE",
"18 492 LINE"
);
}
);
width = 460;
}
);
leftKerningGroup = T;
rightKerningGroup = T;
unicode = 0054;
},
{
glyphname = Tbar;
lastChange = "2020-04-18 00:10:28 +0000";
layers = (
{
components = (
{
name = T;
}
);
guideLines = (
{
angle = 90;
position = "{50, 597}";
},
{
angle = 90;
position = "{326, 597}";
}
);
hints = (
{
horizontal = 1;
origin = "{0, 3}";
target = "{0, 2}";
type = TTStem;
options = 4;
},
{
horizontal = 1;
origin = "{0, 2}";
target = "{0, 1}";
type = Align;
options = 4;
},
{
horizontal = 1;
origin = "{0, 0}";
target = "{0, 3}";
type = Align;
options = 4;
}
);
layerId = "985FD43C-E2EB-4FA2-9714-12093F08C61F";
paths = (
{
closed = 1;
nodes = (
"326 324 LINE",
"326 356 LINE",
"50 356 LINE",
"50 324 LINE"
);
}
);
width = 376;
},
{
components = (
{
name = T;
}
);
guideLines = (
{
angle = 90;
position = "{96, 492}";
},
{
angle = 90;
position = "{364, 492}";
},
{
angle = 90;
position = "{18, 492}";
},
{
angle = 90;
position = "{57, 472}";
},
{
angle = 90;
position = "{403, 464}";
}
);
layerId = "79669AF3-7E96-4900-AB6D-33745B934CAA";
paths = (
{
closed = 1;
nodes = (
"403 301 LINE",
"403 379 LINE",
"57 379 LINE",
"57 301 LINE"
);
}
);
width = 460;
}
);
unicode = 0166;
},
{
glyphname = U;
lastChange = "2020-04-28 19:55:06 +0000";
layers = (
{
anchors = (
{
name = bottom;
position = "{216, 0}";
},
{
name = ogonek;
position = "{216, 10}";
},
{
name = top;
position = "{221, 680}";
},
{
name = topright;
position = "{423, 680}";
}
);
background = {
paths = (
{
closed = 1;
nodes = (
"421 0 LINE",
"421 32 LINE",
"399 32 LINE",
"399 648 LINE",
"421 648 LINE",
"421 680 LINE",
"319 680 LINE",
"319 648 LINE",
"341 648 LINE",
"341 32 LINE",
"319 32 LINE",
"319 0 LINE"
);
},
{
closed = 1;
nodes = (
"149 0 LINE",
"149 32 LINE",
"127 32 LINE",
"127 648 LINE",
"149 648 LINE",
"149 680 LINE",
"47 680 LINE",
"47 648 LINE",
"69 648 LINE",
"69 32 LINE",
"47 32 LINE",
"47 0 LINE"
);
},
{
closed = 1;
nodes = (
"361 451 LINE",
"361 483 LINE",
"107 483 LINE",
"107 451 LINE"
);
}
);
};
guideLines = (
{
position = "{19, 216}";
},
{
position = "{19, 242}";
showMeasurement = 1;
},
{
angle = 90;
position = "{230, 144}";
}
);
hints = (
{
horizontal = 1;
origin = "{0, 19}";
target = "{0, 20}";
type = TTStem;
options = 4;
},
{
horizontal = 1;
origin = "{0, 6}";
target = "{0, 7}";
type = TTStem;
options = 4;
},
{
horizontal = 1;
origin = "{0, 7}";
target = "{0, 3}";
type = Align;
options = 4;
},
{
horizontal = 1;
origin = "{0, 20}";
target = "{0, 16}";
type = Align;
options = 4;
},
{
horizontal = 1;
origin = "{0, 25}";
target = "{0, 12}";
type = TTStem;
options = 4;
}
);
layerId = "985FD43C-E2EB-4FA2-9714-12093F08C61F";
leftMetricsKey = "=H-2";
rightMetricsKey = "=H-5";
paths = (
{
closed = 1;
nodes = (
"324 -10 OFFCURVE",
"375 66 OFFCURVE",
"375 232 CURVE SMOOTH",
"375 648 LINE",
"397 648 LINE",
"397 680 LINE",
"319 680 LINE",
"319 648 LINE",
"341 648 LINE",
"341 232 LINE SMOOTH",
"341 80 OFFCURVE",
"297 26 OFFCURVE",
"230 26 CURVE SMOOTH",
"156 26 OFFCURVE",
"125 80 OFFCURVE",
"125 232 CURVE SMOOTH",
"125 648 LINE",
"147 648 LINE",
"147 680 LINE",
"45 680 LINE",
"45 648 LINE",
"67 648 LINE",
"67 232 LINE SMOOTH",
"67 66 OFFCURVE",
"117 -10 OFFCURVE",
"222 -10 CURVE SMOOTH"
);
}
);
width = 439;
},
{
associatedMasterId = "985FD43C-E2EB-4FA2-9714-12093F08C61F";
layerId = "D2852738-347B-4586-BE3E-105B40227E3A";
name = "Sep 7 18, 20:31";
paths = (
{
closed = 1;
nodes = (
"79 20 LINE",
"137 20 LINE",
"137 660 LINE",
"79 660 LINE"
);
},
{
closed = 1;
nodes = (
"57 648 LINE",
"159 648 LINE",
"159 680 LINE",
"57 680 LINE"
);
},
{
closed = 1;
nodes = (
"57 32 LINE",
"57 0 LINE",
"258 0 LINE SMOOTH",
"338 0 OFFCURVE",
"377 41 OFFCURVE",
"377 123 CURVE SMOOTH",
"377 663 LINE",
"351 663 LINE",
"351 123 LINE SMOOTH",
"351 61 OFFCURVE",
"322 32 OFFCURVE",
"253 32 CURVE SMOOTH"
);
},
{
closed = 1;
nodes = (
"329 648 LINE",
"399 648 LINE",
"399 680 LINE",
"329 680 LINE"
);
}
);
width = 457;
},
{
anchors = (
{
name = bottom;
position = "{245, 0}";
},
{
name = ogonek;
position = "{245, 10}";
},
{
name = top;
position = "{245, 680}";
},
{
name = topright;
position = "{425, 680}";
}
);
background = {
paths = (
{
closed = 1;
nodes = (
"355 204 LINE",
"355 0 LINE",
"457 0 LINE",
"457 78 LINE",
"437 78 LINE",
"437 204 LINE"
);
}
);
};
guideLines = (
{
angle = 90;
position = "{270, 216}";
},
{
position = "{266, 20}";
}
);
layerId = "79669AF3-7E96-4900-AB6D-33745B934CAA";
rightMetricsKey = "=I-3";
paths = (
{
closed = 1;
nodes = (
"376 -10 OFFCURVE",
"437 54 OFFCURVE",
"437 216 CURVE SMOOTH",
"437 602 LINE",
"457 602 LINE",
"457 680 LINE",
"335 680 LINE",
"335 602 LINE",
"355 602 LINE",
"355 216 LINE SMOOTH",
"355 107 OFFCURVE",
"328 76 OFFCURVE",
"270 76 CURVE SMOOTH",
"219 76 OFFCURVE",
"185 107 OFFCURVE",
"185 216 CURVE SMOOTH",
"185 602 LINE",
"205 602 LINE",
"205 680 LINE",
"33 680 LINE",
"33 602 LINE",
"53 602 LINE",
"53 216 LINE SMOOTH",
"53 54 OFFCURVE",
"118 -10 OFFCURVE",
"254 -10 CURVE SMOOTH"
);
}
);
width = 487;
}
);
leftKerningGroup = U;
leftMetricsKey = I;
rightKerningGroup = U;
rightMetricsKey = I;
unicode = 0055;
},
{
glyphname = Udieresisacute;
lastChange = "2020-05-03 05:33:24 +0000";
layers = (
{
anchors = (
{
name = top;
position = "{221, 997.5}";
}
);
background = {
components = (
{
name = U;
},
{
name = dieresiscomb.case;
transform = "{1, 0, 0, 1, -29, 0}";
},
{
alignment = -1;
name = acutecomb.case;
transform = "{0.9, 0, 0, 0.9, -4, 201}";
}
);
};
components = (
{
name = U;
},
{
name = dieresiscomb.case;
transform = "{1, 0, 0, 1, -29, 0}";
}
);
layerId = "985FD43C-E2EB-4FA2-9714-12093F08C61F";
paths = (
{
closed = 1;
nodes = (
"237.2 876 LINE",
"313.7 963.3 LINE SMOOTH",
"320 970.5 OFFCURVE",
"324.5 980.4 OFFCURVE",
"324.5 989.4 CURVE SMOOTH",
"324.5 1003.8 OFFCURVE",
"314.6 1015.5 OFFCURVE",
"296.6 1015.5 CURVE SMOOTH",
"284.9 1015.5 OFFCURVE",
"274.1 1010.1 OFFCURVE",
"266 993.9 CURVE SMOOTH",
"204.8 876 LINE"
);
}
);
width = 439;
},
{
anchors = (
{
name = top;
position = "{245, 1060.9}";
}
);
background = {
components = (
{
name = U;
},
{
name = dieresiscomb.case;
transform = "{1, 0, 0, 1, -5, 0}";
},
{
name = acutecomb.case;
transform = "{1, 0, 0, 1, -5, 186}";
}
);
};
components = (
{
name = U;
},
{
name = dieresiscomb.case;
transform = "{1, 0, 0, 1, -5, 0}";
}
);
layerId = "79669AF3-7E96-4900-AB6D-33745B934CAA";
paths = (
{
closed = 1;
nodes = (
"280.1 925 LINE",
"349.4 1001.5 LINE SMOOTH",
"357.5 1010.5 OFFCURVE",
"359.3 1023.1 OFFCURVE",
"359.3 1033 CURVE SMOOTH",
"359.3 1059.1 OFFCURVE",
"335.9 1078.9 OFFCURVE",
"309.8 1078.9 CURVE SMOOTH",
"281 1078.9 OFFCURVE",
"266.6 1061.8 OFFCURVE",
"255.8 1037.5 CURVE SMOOTH",
"206.3 925 LINE"
);
}
);
width = 487;
}
);
leftKerningGroup = U;
rightKerningGroup = U;
unicode = 01D7;
},
{
glyphname = Uhorn;
lastChange = "2020-04-16 21:15:26 +0000";
layers = (
{
hints = (
{
horizontal = 1;
origin = "{0, 17}";
target = "{0, 18}";
type = TTStem;
options = 4;
},
{
horizontal = 1;
origin = "{0, 18}";
target = "{0, 14}";
type = Align;
options = 4;
},
{
horizontal = 1;
origin = "{0, 4}";
target = "{0, 5}";
type = TTStem;
options = 4;
},
{
horizontal = 1;
origin = "{0, 5}";
target = "{1, 15}";
type = Align;
options = 4;
},
{
horizontal = 1;
origin = "{0, 23}";
target = "{0, 10}";
type = TTStem;
options = 4;
}
);
layerId = "985FD43C-E2EB-4FA2-9714-12093F08C61F";
paths = (
{
closed = 1;
nodes = (
"324 -10 OFFCURVE",
"375 66 OFFCURVE",
"375 232 CURVE SMOOTH",
"375 680 LINE",
"319 680 LINE",
"319 648 LINE",
"341 648 LINE",
"341 232 LINE SMOOTH",
"341 80 OFFCURVE",
"297 26 OFFCURVE",
"230 26 CURVE SMOOTH",
"156 26 OFFCURVE",
"125 80 OFFCURVE",
"125 232 CURVE SMOOTH",
"125 648 LINE",
"147 648 LINE",
"147 680 LINE",
"45 680 LINE",
"45 648 LINE",
"67 648 LINE",
"67 232 LINE SMOOTH",
"67 66 OFFCURVE",
"117 -10 OFFCURVE",
"222 -10 CURVE SMOOTH"
);
},
{
closed = 1;
nodes = (
"447 648 OFFCURVE",
"483 692 OFFCURVE",
"483 765 CURVE SMOOTH",
"483 803 OFFCURVE",
"460 819 OFFCURVE",
"437 819 CURVE SMOOTH",
"414 819 OFFCURVE",
"394 802 OFFCURVE",
"394 775 CURVE SMOOTH",
"394 748 OFFCURVE",
"412 732 OFFCURVE",
"443 732 CURVE",
"441 697 OFFCURVE",
"416 680 OFFCURVE",
"375 680 CURVE",
"375 648 LINE"
);
}
);
width = 439;
},
{
background = {
components = (
{
name = U;
}
);
};
layerId = "79669AF3-7E96-4900-AB6D-33745B934CAA";
paths = (
{
closed = 1;
nodes = (
"376 -10 OFFCURVE",
"437 54 OFFCURVE",
"437 216 CURVE SMOOTH",
"437 680 LINE",
"335 680 LINE",
"335 602 LINE",
"355 602 LINE",
"355 216 LINE SMOOTH",
"355 107 OFFCURVE",
"328 76 OFFCURVE",
"270 76 CURVE SMOOTH",
"219 76 OFFCURVE",
"185 107 OFFCURVE",
"185 216 CURVE SMOOTH",
"185 602 LINE",
"205 602 LINE",
"205 680 LINE",
"33 680 LINE",
"33 602 LINE",
"53 602 LINE",
"53 216 LINE SMOOTH",
"53 54 OFFCURVE",
"118 -10 OFFCURVE",
"254 -10 CURVE SMOOTH"
);
},
{
closed = 1;
nodes = (
"537 576 OFFCURVE",
"604 629 OFFCURVE",
"604 756 CURVE SMOOTH",
"604 818 OFFCURVE",
"569 844 OFFCURVE",
"530 844 CURVE SMOOTH",
"494 844 OFFCURVE",
"466 812 OFFCURVE",
"466 776 CURVE SMOOTH",
"466 738 OFFCURVE",
"491 711 OFFCURVE",
"543 711 CURVE",
"536 649 OFFCURVE",
"501 625 OFFCURVE",
"437 625 CURVE",
"437 576 LINE"
);
}
);
width = 604;
}
);
leftKerningGroup = U;
leftMetricsKey = U;
rightKerningGroup = U;
unicode = 01AF;
},
{
glyphname = Uogonek;
lastChange = "2020-04-18 00:11:06 +0000";
layers = (
{
anchors = (
{
name = top;
position = "{221, 680}";
}
);
background = {
paths = (
{
closed = 1;
nodes = (
"166 -33 OFFCURVE",
"148 -60 OFFCURVE",
"148 -98 CURVE SMOOTH",
"148 -146 OFFCURVE",
"186 -168 OFFCURVE",
"226 -168 CURVE SMOOTH",
"255 -168 OFFCURVE",
"281 -156 OFFCURVE",
"290 -127 CURVE",
"275 -118 LINE",
"267 -130 OFFCURVE",
"255 -134 OFFCURVE",
"242 -134 CURVE SMOOTH",
"220 -134 OFFCURVE",
"202 -118 OFFCURVE",
"202 -88 CURVE SMOOTH",
"202 -58 OFFCURVE",
"218 -30 OFFCURVE",
"258 -10 CURVE",
"330 13 OFFCURVE",
"375 76 OFFCURVE",
"375 232 CURVE SMOOTH",
"375 648 LINE",
"397 648 LINE",
"397 680 LINE",
"319 680 LINE",
"319 648 LINE",
"341 648 LINE",
"341 232 LINE SMOOTH",
"341 80 OFFCURVE",
"297 26 OFFCURVE",
"230 26 CURVE SMOOTH",
"156 26 OFFCURVE",
"125 80 OFFCURVE",
"125 232 CURVE SMOOTH",
"125 648 LINE",
"147 648 LINE",
"147 680 LINE",
"45 680 LINE",
"45 648 LINE",
"67 648 LINE",
"67 232 LINE SMOOTH",
"67 69 OFFCURVE",
"115 -8 OFFCURVE",
"220 -10 CURVE"
);
}
);
};
hints = (
{
horizontal = 1;
origin = "{0, 32}";
target = "{0, 33}";
type = TTStem;
options = 4;
},
{
horizontal = 1;
origin = "{0, 19}";
target = "{0, 20}";
type = TTStem;
options = 4;
},
{
horizontal = 1;
origin = "{0, 33}";
target = "{0, 29}";
type = Align;
options = 4;
},
{
horizontal = 1;
origin = "{0, 20}";
target = "{0, 16}";
type = Align;
options = 4;
},
{
horizontal = 1;
origin = "{0, 38}";
target = "{0, 25}";
type = TTStem;
options = 4;
},
{
horizontal = 1;
origin = "{0, 44}";
target = "{0, 6}";
type = TTStem;
options = 4;
},
{
horizontal = 1;
origin = "{0, 38}";
target = "{0, 12}";
type = Align;
options = 4;
}
);
layerId = "985FD43C-E2EB-4FA2-9714-12093F08C61F";
paths = (
{
closed = 1;
nodes = (
"255 -168 OFFCURVE",
"281 -156 OFFCURVE",
"290 -127 CURVE",
"275 -118 LINE",
"267 -130 OFFCURVE",
"255 -134 OFFCURVE",
"242 -134 CURVE SMOOTH",
"220 -134 OFFCURVE",
"202 -118 OFFCURVE",
"202 -88 CURVE SMOOTH",
"202 -58 OFFCURVE",
"219 -24 OFFCURVE",
"259 -10 CURVE SMOOTH",
"331 15 OFFCURVE",
"375 76 OFFCURVE",
"375 232 CURVE SMOOTH",
"375 648 LINE",
"397 648 LINE",
"397 680 LINE",
"319 680 LINE",
"319 648 LINE",
"341 648 LINE",
"341 232 LINE SMOOTH",
"341 80 OFFCURVE",
"297 26 OFFCURVE",
"230 26 CURVE SMOOTH",
"156 26 OFFCURVE",
"125 80 OFFCURVE",
"125 232 CURVE SMOOTH",
"125 648 LINE",
"147 648 LINE",
"147 680 LINE",
"45 680 LINE",
"45 648 LINE",
"67 648 LINE",
"67 232 LINE SMOOTH",
"67 69 OFFCURVE",
"115 -8 OFFCURVE",
"220 -10 CURVE",
"166 -33 OFFCURVE",
"148 -60 OFFCURVE",
"148 -98 CURVE SMOOTH",
"148 -146 OFFCURVE",
"186 -168 OFFCURVE",
"226 -168 CURVE SMOOTH"
);
}
);
width = 439;
},
{
anchors = (
{
name = top;
position = "{245, 680}";
}
);
background = {
paths = (
{
closed = 1;
nodes = (
"285 -199 OFFCURVE",
"314 -181 OFFCURVE",
"327 -140 CURVE",
"296 -125 LINE",
"289 -139 OFFCURVE",
"277 -145 OFFCURVE",
"263 -145 CURVE SMOOTH",
"243 -145 OFFCURVE",
"234 -126 OFFCURVE",
"234 -99 CURVE SMOOTH",
"234 -60 OFFCURVE",
"259 -24 OFFCURVE",
"325 -1 CURVE SMOOTH",
"399 23 OFFCURVE",
"437 90 OFFCURVE",
"437 216 CURVE SMOOTH",
"437 602 LINE",
"457 602 LINE",
"457 680 LINE",
"335 680 LINE",
"335 602 LINE",
"355 602 LINE",
"355 216 LINE SMOOTH",
"355 107 OFFCURVE",
"328 76 OFFCURVE",
"270 76 CURVE SMOOTH",
"219 76 OFFCURVE",
"185 107 OFFCURVE",
"185 216 CURVE SMOOTH",
"185 602 LINE",
"205 602 LINE",
"205 680 LINE",
"33 680 LINE",
"33 602 LINE",
"53 602 LINE",
"53 216 LINE SMOOTH",
"53 67 OFFCURVE",
"108 -5 OFFCURVE",
"237 -9 CURVE",
"166 -31 OFFCURVE",
"142 -70 OFFCURVE",
"142 -108 CURVE SMOOTH",
"142 -163 OFFCURVE",
"182 -199 OFFCURVE",
"247 -199 CURVE SMOOTH"
);
}
);
};
layerId = "79669AF3-7E96-4900-AB6D-33745B934CAA";
paths = (
{
closed = 1;
nodes = (
"285 -199 OFFCURVE",
"314 -181 OFFCURVE",
"327 -140 CURVE",
"296 -125 LINE",
"289 -139 OFFCURVE",
"277 -145 OFFCURVE",
"263 -145 CURVE SMOOTH",
"243 -145 OFFCURVE",
"234 -126 OFFCURVE",
"234 -99 CURVE SMOOTH",
"234 -60 OFFCURVE",
"259 -23 OFFCURVE",
"325 -1 CURVE SMOOTH",
"399 24 OFFCURVE",
"437 90 OFFCURVE",
"437 216 CURVE SMOOTH",
"437 602 LINE",
"457 602 LINE",
"457 680 LINE",
"335 680 LINE",
"335 602 LINE",
"355 602 LINE",
"355 216 LINE SMOOTH",
"355 107 OFFCURVE",
"328 76 OFFCURVE",
"270 76 CURVE SMOOTH",
"219 76 OFFCURVE",
"185 107 OFFCURVE",
"185 216 CURVE SMOOTH",
"185 602 LINE",
"205 602 LINE",
"205 680 LINE",
"33 680 LINE",
"33 602 LINE",
"53 602 LINE",
"53 216 LINE SMOOTH",
"53 67 OFFCURVE",
"108 -5 OFFCURVE",
"237 -9 CURVE",
"166 -31 OFFCURVE",
"142 -70 OFFCURVE",
"142 -108 CURVE SMOOTH",
"142 -163 OFFCURVE",
"182 -199 OFFCURVE",
"247 -199 CURVE SMOOTH"
);
}
);
width = 487;
}
);
leftKerningGroup = U;
rightKerningGroup = U;
unicode = 0172;
},
{
glyphname = V;
lastChange = "2020-04-18 00:13:53 +0000";
layers = (
{
anchors = (
{
name = bottom;
position = "{220, 0}";
},
{
name = ogonek;
position = "{220, 10}";
},
{
name = top;
position = "{220, 680}";
}
);
background = {
paths = (
{
closed = 1;
nodes = (
"409 0 LINE",
"409 32 LINE",
"387 32 LINE",
"387 648 LINE",
"409 648 LINE",
"409 680 LINE",
"307 680 LINE",
"307 648 LINE",
"329 648 LINE",
"329 32 LINE",
"307 32 LINE",
"307 0 LINE"
);
},
{
closed = 1;
nodes = (
"137 0 LINE",
"137 32 LINE",
"115 32 LINE",
"115 648 LINE",
"137 648 LINE",
"137 680 LINE",
"35 680 LINE",
"35 648 LINE",
"57 648 LINE",
"57 32 LINE",
"35 32 LINE",
"35 0 LINE"
);
},
{
closed = 1;
nodes = (
"349 451 LINE",
"349 483 LINE",
"95 483 LINE",
"95 451 LINE"
);
}
);
};
guideLines = (
{
angle = 90;
position = "{10, 664}";
},
{
angle = 90;
position = "{434, 661}";
}
);
hints = (
{
horizontal = 1;
origin = "{0, 6}";
target = "{0, 7}";
type = TTStem;
options = 4;
},
{
horizontal = 1;
origin = "{0, 14}";
target = "{0, 0}";
type = TTStem;
options = 4;
},
{
horizontal = 1;
origin = "{0, 9}";
type = Anchor;
},
{
horizontal = 1;
origin = "{0, 0}";
target = "{0, 11}";
type = Align;
options = 4;
},
{
horizontal = 1;
origin = "{0, 7}";
target = "{0, 3}";
type = Align;
options = 4;
},
{
horizontal = 1;
origin = "{0, 6}";
target = "{0, 9}";
other1 = "{0, 2}";
type = Interpolate;
options = 4;
}
);
layerId = "985FD43C-E2EB-4FA2-9714-12093F08C61F";
paths = (
{
closed = 1;
nodes = (
"359 648 LINE",
"379 648 LINE",
"234 86 LINE",
"88 648 LINE",
"108 648 LINE",
"108 680 LINE",
"10 680 LINE",
"10 648 LINE",
"30 648 LINE",
"200 0 LINE",
"246 0 LINE",
"414 648 LINE",
"434 648 LINE",
"434 680 LINE",
"359 680 LINE"
);
}
);
width = 439;
},
{
anchors = (
{
name = bottom;
position = "{235, 0}";
},
{
name = ogonek;
position = "{213, 10}";
},
{
name = top;
position = "{234, 680}";
}
);
background = {
paths = (
{
closed = 1;
nodes = (
"311 0 LINE",
"456 658 LINE",
"374 658 LINE",
"246 78 LINE",
"272 78 LINE",
"143 658 LINE",
"12 658 LINE",
"158 0 LINE"
);
},
{
closed = 1;
nodes = (
"176 602 LINE",
"176 680 LINE",
"4 680 LINE",
"4 602 LINE"
);
},
{
closed = 1;
nodes = (
"464 602 LINE",
"464 680 LINE",
"342 680 LINE",
"342 602 LINE"
);
}
);
};
guideLines = (
{
angle = 90;
position = "{247, 0}";
},
{
angle = 90;
position = "{458, 641}";
}
);
layerId = "79669AF3-7E96-4900-AB6D-33745B934CAA";
paths = (
{
closed = 1;
nodes = (
"336 602 LINE",
"356 602 LINE",
"259 140 LINE",
"161 602 LINE",
"182 602 LINE",
"182 680 LINE",
"10 680 LINE",
"10 602 LINE",
"30 602 LINE",
"158 0 LINE",
"311 0 LINE",
"438 602 LINE",
"458 602 LINE",
"458 680 LINE",
"336 680 LINE"
);
}
);
width = 463;
}
);
unicode = 0056;
},
{
glyphname = W;
lastChange = "2020-04-18 00:14:28 +0000";
layers = (
{
anchors = (
{
name = bottom;
position = "{366, 0}";
},
{
name = ogonek;
position = "{366, 10}";
},
{
name = top;
position = "{366, 680}";
}
);
background = {
paths = (
{
closed = 1;
nodes = (
"232 0 LINE",
"373 628 LINE",
"351 628 LINE",
"498 0 LINE",
"544 0 LINE",
"691 658 LINE",
"652 658 LINE",
"520 69 LINE",
"540 69 LINE",
"396 680 LINE",
"352 680 LINE",
"214 69 LINE",
"228 69 LINE",
"96 658 LINE",
"38 658 LINE",
"186 0 LINE"
);
},
{
closed = 1;
nodes = (
"134 648 LINE",
"134 680 LINE",
"10 680 LINE",
"10 648 LINE"
);
},
{
closed = 1;
nodes = (
"722 648 LINE",
"722 680 LINE",
"615 680 LINE",
"615 648 LINE"
);
}
);
};
guideLines = (
{
angle = 90;
position = "{10, 664}";
},
{
angle = 270;
position = "{722, 664}";
}
);
hints = (
{
horizontal = 1;
origin = "{0, 9}";
target = "{0, 10}";
type = TTStem;
options = 4;
},
{
horizontal = 1;
origin = "{0, 20}";
target = "{0, 0}";
type = TTStem;
options = 4;
},
{
horizontal = 1;
origin = "{0, 12}";
type = Anchor;
},
{
horizontal = 1;
origin = "{0, 15}";
type = Anchor;
},
{
horizontal = 1;
origin = "{0, 4}";
type = Anchor;
},
{
horizontal = 1;
origin = "{0, 10}";
target = "{0, 6}";
type = Align;
options = 4;
},
{
horizontal = 1;
origin = "{0, 0}";
target = "{0, 17}";
type = Align;
options = 4;
},
{
horizontal = 1;
origin = "{0, 0}";
target = "{0, 15}";
other1 = "{0, 2}";
type = Interpolate;
options = 4;
},
{
horizontal = 1;
origin = "{0, 10}";
target = "{0, 12}";
other1 = "{0, 5}";
type = Interpolate;
options = 4;
}
);
layerId = "985FD43C-E2EB-4FA2-9714-12093F08C61F";
leftMetricsKey = "=10";
rightMetricsKey = "=5";
paths = (
{
closed = 1;
nodes = (
"619 648 LINE",
"654 648 LINE",
"532 104 LINE",
"396 680 LINE",
"350 680 LINE",
"220 105 LINE",
"98 648 LINE",
"134 648 LINE",
"134 680 LINE",
"10 680 LINE",
"10 648 LINE",
"40 648 LINE",
"186 0 LINE",
"232 0 LINE",
"362 580 LINE",
"498 0 LINE",
"544 0 LINE",
"689 648 LINE",
"722 648 LINE",
"722 680 LINE",
"619 680 LINE"
);
}
);
width = 727;
},
{
associatedMasterId = "985FD43C-E2EB-4FA2-9714-12093F08C61F";
background = {
paths = (
{
closed = 1;
nodes = (
"104 680 LINE",
"-20 680 LINE",
"-20 648 LINE",
"104 648 LINE"
);
},
{
closed = 1;
nodes = (
"66 658 LINE",
"8 658 LINE",
"186 0 LINE",
"232 0 LINE",
"415 680 LINE",
"376 680 LINE",
"213 69 LINE",
"224 69 LINE"
);
},
{
closed = 1;
nodes = (
"434 680 LINE",
"376 680 LINE",
"560 0 LINE",
"606 0 LINE",
"783 658 LINE",
"744 658 LINE",
"587 69 LINE",
"598 69 LINE"
);
},
{
closed = 1;
nodes = (
"814 680 LINE",
"707 680 LINE",
"707 648 LINE",
"814 648 LINE"
);
}
);
};
guideLines = (
{
position = "{378, 628}";
}
);
layerId = "7086C9E3-F490-41BC-95D2-DAE90B5FAA63";
leftMetricsKey = "=10";
rightMetricsKey = "=10";
name = "Sep 7 18, 20:41";
paths = (
{
closed = 1;
nodes = (
"256 0 LINE",
"401 628 LINE",
"378 628 LINE",
"524 0 LINE",
"570 0 LINE",
"717 658 LINE",
"678 658 LINE",
"551 69 LINE",
"562 69 LINE",
"422 680 LINE",
"376 680 LINE",
"237 69 LINE",
"248 69 LINE",
"120 658 LINE",
"62 658 LINE",
"210 0 LINE"
);
},
{
closed = 1;
nodes = (
"158 648 LINE",
"158 680 LINE",
"34 680 LINE",
"34 648 LINE"
);
},
{
closed = 1;
nodes = (
"748 648 LINE",
"748 680 LINE",
"641 680 LINE",
"641 648 LINE"
);
}
);
width = 782;
},
{
anchors = (
{
name = bottom;
position = "{395, 0}";
},
{
name = ogonek;
position = "{395, 10}";
},
{
name = top;
position = "{395, 680}";
}
);
background = {
paths = (
{
closed = 1;
nodes = (
"301 0 LINE",
"440 658 LINE",
"358 658 LINE",
"236 78 LINE",
"262 78 LINE",
"139 658 LINE",
"8 658 LINE",
"148 0 LINE"
);
},
{
closed = 1;
nodes = (
"172 602 LINE",
"172 680 LINE",
"0 680 LINE",
"0 602 LINE"
);
},
{
closed = 1;
nodes = (
"448 602 LINE",
"448 680 LINE",
"326 680 LINE",
"326 602 LINE"
);
},
{
closed = 1;
nodes = (
"647 0 LINE",
"786 658 LINE",
"704 658 LINE",
"582 78 LINE",
"608 78 LINE",
"485 658 LINE",
"354 658 LINE",
"494 0 LINE"
);
},
{
closed = 1;
nodes = (
"518 602 LINE",
"518 680 LINE",
"346 680 LINE",
"346 602 LINE"
);
},
{
closed = 1;
nodes = (
"794 602 LINE",
"794 680 LINE",
"672 680 LINE",
"672 602 LINE"
);
}
);
};
guideLines = (
{
angle = 90;
position = "{779, 641}";
}
);
layerId = "79669AF3-7E96-4900-AB6D-33745B934CAA";
paths = (
{
closed = 1;
nodes = (
"657 602 LINE",
"678 602 LINE",
"591 153 LINE",
"475 680 LINE",
"362 680 LINE",
"245 164 LINE",
"160 602 LINE",
"182 602 LINE",
"182 680 LINE",
"10 680 LINE",
"10 602 LINE",
"29 602 LINE",
"148 0 LINE",
"291 0 LINE",
"394 449 LINE",
"494 0 LINE",
"642 0 LINE",
"760 602 LINE",
"779 602 LINE",
"779 680 LINE",
"657 680 LINE"
);
}
);
width = 786;
}
);
leftKerningGroup = W;
rightKerningGroup = W;
unicode = 0057;
},
